<svg width="275" height="370" viewBox="0 0 275 370" fill="none" xmlns="http://www.w3.org/2000/svg">
<g id="undraw_Balloons_re_8ymj 1">
<g id="baloons">
<path id="Vector" d="M184.997 42.5254C185.163 19.1878 171.301 0.148929 154.035 0.000868627C136.77 -0.147192 122.639 18.6516 122.473 41.9892C122.322 63.1475 133.702 80.7718 148.696 83.9894L147.661 90.8031L159.119 90.9013L158.18 84.0707C173.218 81.1107 184.847 63.6837 184.997 42.5254Z" fill="#1D438A"/>
<path id="Vector_2" d="M132.975 53.1723L128.646 53.1352C127.275 44.2124 127.34 35.0948 128.838 26.1967L133.166 26.2338C131.227 35.5318 131.163 44.5113 132.975 53.1723Z" fill="white"/>
<path id="Vector_3" d="M159.931 84.0413L146.945 83.9299L146.923 87.0991L159.909 87.2105L159.931 84.0413Z" fill="#3F3D56"/>
<path id="Vector_4" d="M245.156 55.4113C246.838 32.1462 234.249 12.0692 217.037 10.5679C199.825 9.06662 184.508 26.7096 182.825 49.9747C181.3 71.0672 191.505 89.5387 206.251 93.9235L204.776 100.639L216.198 101.635L215.707 94.7482C230.898 92.9746 243.63 76.5038 245.156 55.4113Z" fill="#FF6584"/>
<path id="Vector_5" d="M192.574 61.9526L188.259 61.5762C187.471 52.5688 188.129 43.4795 190.201 34.7214L194.516 35.0978C191.977 44.2201 191.329 53.1716 192.574 61.9526Z" fill="white"/>
<path id="Vector_6" d="M217.455 94.8561L204.509 93.7269L204.281 96.8863L217.226 98.0154L217.455 94.8561Z" fill="#3F3D56"/>
<path id="Vector_7" d="M210.528 94.9495L116.018 264.367L117.248 265.195L211.758 95.7774L210.528 94.9495Z" fill="#3F3D56"/>
<path id="Vector_8" d="M269.586 78.267C279.585 57.6734 275.339 33.7463 260.104 24.8244C244.868 15.9025 224.412 25.3643 214.413 45.9579C205.348 64.6285 207.992 86.0385 219.918 96.5231L216.124 102.033L226.235 107.954L228.288 101.424C242.861 106.458 260.521 96.9376 269.586 78.267Z" fill="#1D438A"/>
<path id="Vector_9" d="M218.998 61.2138L215.178 58.977C217.73 50.3731 221.636 42.3275 226.719 35.2058L230.539 37.4426C224.895 44.6935 221.048 52.6173 218.998 61.2138Z" fill="white"/>
<path id="Vector_10" d="M229.851 102.29L218.392 95.5793L217.035 98.3759L228.494 105.086L229.851 102.29Z" fill="#3F3D56"/>
<path id="Vector_11" d="M222.578 100.436L116.145 261.099L117.312 262.031L223.745 101.368L222.578 100.436Z" fill="#3F3D56"/>
<path id="Vector_12" d="M154.23 85.4565L122.596 281.079L124.016 281.356L155.651 85.7335L154.23 85.4565Z" fill="#3F3D56"/>
</g>
<g id="leaves">
<path id="Vector_13" d="M67.4965 170.979L68.0697 170.13L83.3402 182.57C82.5103 179.792 79.5729 170.986 74.7577 167.473C69.0052 163.276 64.958 164.581 62.753 168.226C60.548 171.871 61.0201 176.474 66.7727 180.672C71.6489 184.23 80.3356 183.735 82.8699 183.502L67.4965 170.979Z" fill="#F2F2F2"/>
<path id="Vector_14" d="M71.2948 237.37L71.8681 236.521L87.1385 248.961C86.3086 246.183 83.3713 237.377 78.5561 233.864C72.8035 229.667 68.7563 230.972 66.5513 234.617C64.3463 238.262 64.8185 242.865 70.571 247.063C75.4473 250.621 84.1339 250.126 86.6683 249.893L71.2948 237.37Z" fill="#F2F2F2"/>
</g>
</g>
</svg>
