<svg width="497" height="400" viewBox="0 0 497 400" fill="none" xmlns="http://www.w3.org/2000/svg">
<g id="undraw_basketball_agx4 1" clip-path="url(#clip0)">
<path id="Vector" d="M116.156 322.663C116.156 322.663 126.27 333.075 120.561 348.525C114.853 363.975 130.349 389.675 130.349 389.675L129.855 389.593C109.08 385.821 98.7442 361.357 110.309 343.187C114.645 336.435 118.166 328.51 116.156 322.663Z" fill="#6C63FF"/>
<path id="Vector_2" d="M116.156 322.663C116.156 322.663 121.865 335.429 116.156 345.841C110.448 356.253 115.169 385.496 130.349 389.675" stroke="#535461" stroke-miterlimit="10"/>
<path id="Vector_3" d="M98.1615 364.783C98.1615 364.783 109.702 362.892 110.754 373.538C111.806 384.184 132.946 385.663 132.946 385.663L132.551 385.933C115.095 397.733 98.4084 393.447 100.947 377.798C101.836 371.962 101.781 366.11 98.1615 364.783Z" fill="#6C63FF"/>
<path id="Vector_4" opacity="0.2" d="M98.1615 364.783C98.1615 364.783 109.702 362.892 110.754 373.538C111.806 384.184 132.946 385.663 132.946 385.663L132.551 385.933C115.095 397.733 98.4084 393.447 100.947 377.798C101.836 371.962 101.781 366.11 98.1615 364.783Z" fill="#F5F5F5"/>
<path id="Vector_5" d="M98.1615 364.784C98.1615 364.784 107.119 366.817 106.384 375.195C105.648 383.574 119.687 393.635 132.946 385.668" stroke="#535461" stroke-miterlimit="10"/>
<path id="Vector_6" d="M412.129 214.215C417.448 227.843 414.063 247.394 421.596 258.533C427.12 266.702 436.29 266.656 442.554 273.548C447.427 278.926 449.854 287.727 452.063 296.082L462.795 336.693C467.683 355.189 471.858 378.999 462.014 392.558C456.113 400.68 447.199 401.602 439.141 400.738C380.815 394.478 333.901 321.087 275.775 311.613C234.692 304.912 194.102 331.275 152.782 329.818C130.927 329.047 109.588 320.536 88.4997 312.042C72.2803 305.527 54.28 296.958 46.547 274.993C43.092 265.176 42.0179 253.318 36.8842 245.248C32.9503 239.057 27.2633 236.127 22.3761 231.643C1.08821 212.085 -1.35306 168.341 0.502309 131.506C1.52997 111.073 3.26908 90.1518 9.74659 72.0159C16.2241 53.8799 28.4119 38.8826 42.3248 38.2908C51.1227 37.9137 59.5299 43.1468 68.0907 46.0708C76.6514 48.9949 86.6908 49.0819 93.1172 40.2692C98.3903 33.0345 100.046 21.4138 105.319 14.1617C109.425 8.5283 115.154 6.34108 120.692 5.00089C150.475 -2.20477 182.203 10.3036 205.56 38.4533C211.238 45.2934 216.645 53.1837 223.583 56.6937C232.823 61.364 242.923 57.4073 252.693 57.5059C287.159 57.854 310.534 104.395 334.826 133.734C349.028 150.889 362.764 154.585 378.174 166.014C387.711 173.092 406.376 199.484 412.129 214.215Z" fill="#1D438A"/>
<path id="Vector_7" d="M150.215 181.385H128.072V389.644H150.215V181.385Z" fill="url(#paint0_linear)"/>
<path id="Vector_8" d="M174.368 398.968H104.922L129.583 382.908H148.2L174.368 398.968Z" fill="url(#paint1_linear)"/>
<path id="Vector_9" d="M30.4489 74.668C30.4489 74.668 124.057 -20.6408 245.32 74.668V157.028C245.32 157.028 150.215 216.088 30.4539 157.028L30.4489 74.668Z" fill="url(#paint2_linear)"/>
<path id="Vector_10" d="M37.2439 76.7626C37.2439 76.7626 124.922 -12.5319 238.525 76.7626V153.927C238.525 153.927 149.435 209.25 37.2439 153.927V76.7626Z" fill="url(#paint3_linear)"/>
<path id="Vector_11" d="M164.299 122.33H110.961V168.955H164.299V122.33Z" fill="url(#paint4_linear)"/>
<path id="Vector_12" d="M159.77 126.285H115.49V164.994H159.77V126.285Z" fill="url(#paint5_linear)"/>
<g id="Group" opacity="0.1">
<path id="Vector_13" opacity="0.1" d="M156.299 240.013L139.474 210.17L124.551 238.966L111.603 208.788L98.1319 239.515L97.6627 239.322C103.095 222.992 97.7072 176.703 97.6627 176.235L97.4553 174.501L111.618 207.512L123.425 180.567L139.489 209.072L154.18 180.684L166.625 209.921L178.703 176.484L181.726 175.864L181.657 176.24C181.568 176.718 173.316 221.487 178.007 236.668L179.123 239.291L178.679 239.53C178.196 238.683 177.812 237.78 177.533 236.841L166.669 211.304L156.299 240.013ZM139.751 209.616L156.195 238.803L166.373 210.633L154.136 181.883L139.751 209.616ZM111.86 208.137L124.551 237.781L139.158 209.626L123.45 181.7L111.86 208.137ZM98.3195 177.857C99.1788 185.828 102.522 219.835 98.9862 236.246L111.332 208.137L98.3195 177.857ZM166.921 210.623L176.832 233.907C173.82 217.334 180.289 180.978 181.099 176.535L179.089 176.947L166.921 210.623Z" fill="url(#paint6_linear)"/>
</g>
<g id="Group_2" opacity="0.1">
<path id="Vector_14" opacity="0.1" d="M112.463 240.079L99.9788 207.903L100.448 207.71L112.487 238.722L124.551 210.379L108.468 179.957L108.907 179.707L124.803 209.779L136.857 181.472H137.005L172.797 177.989L139.642 238.91L124.862 210.948L112.463 240.079ZM125.119 210.353L139.647 237.837L171.899 178.584L137.213 181.96L125.119 210.353Z" fill="url(#paint7_linear)"/>
</g>
<g id="Group_3" opacity="0.1">
<path id="Vector_15" opacity="0.1" d="M165.844 238.483L165.588 237.975L135.899 178.914L136.349 178.675L165.78 237.222L176.842 207.715L177.311 207.903L165.844 238.483Z" fill="url(#paint8_linear)"/>
</g>
<path id="Vector_16" d="M138.64 168.436C115.016 168.436 95.8702 171.685 95.8702 175.691C95.8702 179.697 115.021 182.946 138.64 182.946C162.259 182.946 181.41 179.697 181.41 175.691C181.41 171.685 162.259 168.436 138.64 168.436ZM138.64 179.835C116.961 179.835 99.3911 177.745 99.3911 175.173C99.3911 172.6 116.961 170.516 138.64 170.516C160.319 170.516 177.884 172.595 177.884 175.173C177.884 177.75 160.314 179.835 138.64 179.835Z" fill="url(#paint9_linear)"/>
<g id="Group_4" opacity="0.2">
<path id="Vector_17" opacity="0.2" d="M138.64 168.436C115.016 168.436 95.8702 171.685 95.8702 175.691C95.8702 179.697 115.021 182.946 138.64 182.946C162.259 182.946 181.41 179.697 181.41 175.691C181.41 171.685 162.259 168.436 138.64 168.436ZM138.64 179.835C116.961 179.835 99.3911 177.745 99.3911 175.173C99.3911 172.6 116.961 170.516 138.64 170.516C160.319 170.516 177.884 172.595 177.884 175.173C177.884 177.75 160.314 179.835 138.64 179.835Z" fill="url(#paint10_linear)"/>
</g>
<path id="Vector_18" d="M138.64 166.886C115.016 166.886 95.8702 170.134 95.8702 174.14C95.8702 178.147 115.021 181.395 138.64 181.395C162.259 181.395 181.41 178.147 181.41 174.14C181.41 170.134 162.259 166.886 138.64 166.886ZM138.64 178.284C116.961 178.284 99.3911 176.194 99.3911 173.622C99.3911 171.049 116.966 168.96 138.64 168.96C160.314 168.96 177.884 171.024 177.884 173.617C177.884 176.21 160.314 178.279 138.64 178.279V178.284Z" fill="url(#paint11_linear)"/>
<path id="Vector_19" d="M149.983 182.026H128.255V386.4H149.983V182.026Z" fill="#E8EAF1"/>
<path id="Vector_20" d="M173.686 395.552H105.539L129.736 379.791H148.008L173.686 395.552Z" fill="#E8EAF1"/>
<path id="Vector_21" d="M32.4538 77.2964C32.4538 77.2964 124.304 -16.2483 243.315 77.2964V158.131C243.315 158.131 149.983 216.088 32.4538 158.131V77.2964Z" fill="#E8EAF1"/>
<path id="Vector_22" d="M39.1204 79.3554C39.1204 79.3554 125.164 -8.27667 236.648 79.3554V155.076C236.648 155.076 149.242 209.367 39.1204 155.076V79.3554Z" fill="#F3F5F7"/>
<path id="Vector_23" d="M163.81 124.069H111.465V169.824H163.81V124.069Z" fill="white"/>
<path id="Vector_24" d="M159.366 127.953H115.909V165.94H159.366V127.953Z" fill="#F3F5F7"/>
<path id="Vector_25" d="M155.958 239.561L139.445 210.257L124.773 238.529L112.067 208.915L98.8726 239.073L98.4134 238.885C103.766 222.855 98.4578 177.43 98.4134 176.972L98.2109 175.269L112.112 207.664L123.702 181.228L139.465 209.189L153.919 181.329L166.131 210.023L177.983 177.206L180.945 176.596L180.876 176.967C180.787 177.44 172.689 221.37 177.296 236.271L178.392 238.844L177.953 239.078C177.479 238.247 177.101 237.361 176.827 236.439L166.16 211.375L155.958 239.561ZM139.721 209.728L155.859 238.371L165.844 210.73L153.84 182.514L139.721 209.728ZM112.344 208.294L124.818 237.375L139.139 209.743L123.707 182.351L112.344 208.294ZM99.0553 178.579C99.8997 186.398 103.179 219.759 99.7072 235.88L111.801 208.294L99.0553 178.579ZM166.378 210.714L176.101 233.557C173.138 217.288 179.489 181.614 180.289 177.257L178.313 177.664L166.378 210.714Z" fill="white"/>
<path id="Vector_26" d="M112.937 239.627L100.685 208.05L101.144 207.862L112.961 238.31L124.813 210.481L109.011 180.628L109.445 180.384L125.045 209.87L136.897 182.092H137.04L172.165 178.675L139.608 238.478L125.104 211.025L112.937 239.627ZM125.356 210.455L139.613 237.425L171.267 179.275L137.228 182.585L125.356 210.455Z" fill="white"/>
<path id="Vector_27" d="M165.326 238.061L165.069 237.558L135.934 179.601L136.373 179.367L165.257 236.821L176.116 207.862L176.575 208.045L165.326 238.061Z" fill="white"/>
<path id="Vector_28" d="M138.625 169.316C115.445 169.316 96.6504 172.503 96.6504 176.433C96.6504 180.363 115.445 183.551 138.625 183.551C161.805 183.551 180.6 180.363 180.6 176.433C180.6 172.503 161.805 169.316 138.625 169.316ZM138.625 180.501C117.351 180.501 100.107 178.467 100.107 175.925C100.107 173.383 117.351 171.349 138.625 171.349C159.899 171.349 177.143 173.383 177.143 175.925C177.143 178.467 159.899 180.501 138.625 180.501Z" fill="#5F546F"/>
<path id="Vector_29" opacity="0.2" d="M138.625 169.316C115.445 169.316 96.6504 172.503 96.6504 176.433C96.6504 180.363 115.445 183.551 138.625 183.551C161.805 183.551 180.6 180.363 180.6 176.433C180.6 172.503 161.805 169.316 138.625 169.316ZM138.625 180.501C117.351 180.501 100.107 178.467 100.107 175.925C100.107 173.383 117.351 171.349 138.625 171.349C159.899 171.349 177.143 173.383 177.143 175.925C177.143 178.467 159.899 180.501 138.625 180.501Z" fill="black"/>
<path id="Vector_30" d="M138.625 167.791C115.445 167.791 96.6504 170.978 96.6504 174.908C96.6504 178.838 115.445 182.026 138.625 182.026C161.805 182.026 180.6 178.838 180.6 174.908C180.6 170.978 161.805 167.791 138.625 167.791ZM138.625 178.975C117.351 178.975 100.107 176.942 100.107 174.4C100.107 171.858 117.351 169.824 138.625 169.824C159.899 169.824 177.143 171.858 177.143 174.4C177.143 176.942 159.899 178.975 138.625 178.975Z" fill="#5F546F"/>
<path id="Vector_31" d="M292.04 374.382C278.662 378.251 263.922 374.296 250.747 378.841C249.587 379.178 248.503 379.749 247.557 380.518C244.406 383.35 245.651 388.876 248.465 392.059C252.964 397.143 260.036 398.729 266.678 399.41C299.121 402.73 331.57 390.651 364.054 393.193C368.883 393.574 374.513 393.986 377.752 390.28C380.142 387.549 380.305 383.34 379.125 379.873C376.957 373.508 370.967 369.161 364.661 367.336C358.355 365.51 351.674 365.81 345.126 366.11C336.237 366.527 327.274 366.41 318.41 367.015C308.934 367.686 301.018 371.804 292.04 374.382Z" fill="#1D438A"/>
<g id="basketman">
<path id="Vector_32" d="M295.033 167.389C295.033 167.389 270.119 182.331 275.443 173.861C277.745 170.294 278.95 166.095 278.9 161.812C278.899 160.414 278.716 159.022 278.356 157.674L288.756 152.691C288.576 154.158 288.704 155.647 289.131 157.058C290.588 162.356 295.033 167.389 295.033 167.389Z" fill="#DB8B8B"/>
<path id="Vector_33" opacity="0.1" d="M289.117 157.064C288.13 158.879 286.603 160.32 284.761 161.176C282.92 162.031 280.86 162.256 278.885 161.817C278.884 160.419 278.701 159.027 278.342 157.679L288.741 152.696C288.561 154.163 288.689 155.652 289.117 157.064Z" fill="black"/>
<path id="Vector_34" d="M280.885 161.537C286.094 161.537 290.317 157.19 290.317 151.827C290.317 146.464 286.094 142.117 280.885 142.117C275.676 142.117 271.453 146.464 271.453 151.827C271.453 157.19 275.676 161.537 280.885 161.537Z" fill="#DB8B8B"/>
<path id="Vector_35" opacity="0.1" d="M274.855 146.662C275.767 146.854 276.571 147.4 277.102 148.187C277.724 149.204 277.709 150.597 278.583 151.39C279.243 151.892 280.068 152.107 280.88 151.99C281.682 151.87 282.496 151.841 283.304 151.903C284.613 152.122 285.685 153.118 286.411 154.257C287.071 155.438 287.658 156.661 288.169 157.918C288.377 158.416 288.676 158.87 289.048 159.255C289.235 159.446 289.464 159.588 289.716 159.671C289.967 159.754 290.234 159.775 290.494 159.733C291.171 158.207 290.588 156.357 291.235 154.837C291.585 154.193 291.973 153.571 292.396 152.976C293.383 151.253 293.25 149.097 292.959 147.119C292.648 144.989 292.173 142.818 290.983 141.049C289.793 139.28 287.744 137.999 285.67 138.258C284.02 138.482 282.574 139.646 280.914 139.748C279.744 139.819 278.613 139.346 277.497 138.975C276.298 138.577 275.067 138.288 273.818 138.111C272.989 137.994 272.016 137.973 271.458 138.619C271.236 138.899 271.068 139.22 270.964 139.565L269.892 142.615C269.837 142.719 269.808 142.835 269.808 142.953C269.808 143.071 269.837 143.188 269.892 143.291C269.991 143.413 270.159 143.449 270.287 143.54C271.137 144.105 269.996 145.498 270.697 146.184C271.398 146.87 273.872 146.423 274.855 146.662Z" fill="black"/>
<path id="Vector_36" d="M275.097 146.413C276.009 146.605 276.813 147.151 277.344 147.938C277.966 148.955 277.951 150.348 278.825 151.141C279.485 151.643 280.31 151.858 281.122 151.741C281.924 151.62 282.738 151.591 283.546 151.654C284.855 151.873 285.927 152.869 286.653 154.008C287.313 155.189 287.9 156.412 288.411 157.668C288.619 158.167 288.918 158.621 289.289 159.006C289.477 159.196 289.706 159.339 289.958 159.422C290.209 159.505 290.476 159.526 290.736 159.483C291.413 157.958 290.83 156.108 291.477 154.588C291.827 153.944 292.214 153.322 292.638 152.727C293.625 151.003 293.492 148.848 293.201 146.87C292.889 144.74 292.415 142.569 291.225 140.8C290.035 139.031 287.986 137.75 285.912 138.009C284.262 138.233 282.816 139.397 281.156 139.498C279.986 139.57 278.855 139.097 277.739 138.726C276.54 138.328 275.309 138.038 274.06 137.861C273.23 137.744 272.258 137.724 271.7 138.37C271.478 138.65 271.31 138.971 271.206 139.315L270.134 142.366C270.079 142.469 270.05 142.586 270.05 142.704C270.05 142.822 270.079 142.938 270.134 143.042C270.233 143.164 270.401 143.2 270.529 143.291C271.379 143.855 270.238 145.248 270.939 145.935C271.64 146.621 274.114 146.174 275.097 146.413Z" fill="#472727"/>
<g id="hand">
<path id="Vector_37" d="M329.664 166C329.664 166 322.167 173.22 311.768 174.714C311.768 174.714 308.676 175.436 306.454 179.641C305.644 181.221 305.07 182.918 304.75 184.674L293.59 165.207L292.899 164.002H311.521C312.95 162.235 314.72 160.792 316.718 159.764C318.716 158.736 320.899 158.145 323.13 158.029L326.034 156.036C326.034 156.036 323.13 132.878 318.78 131.633C318.78 131.633 316.656 129.447 314.242 127.322C312.759 126.041 311.795 124.235 311.538 122.26C311.282 120.285 311.751 118.283 312.854 116.645C312.913 116.559 312.972 116.473 313.037 116.391C315.506 113.071 320.666 114.225 321.703 118.282C322.423 121.038 322.982 123.836 323.377 126.661L324.587 130.896L328.943 140.108L335.955 157.536C335.955 157.536 337.402 161.521 329.664 166Z" fill="#DB8B8B"/>
</g>
<path id="Vector_38" d="M271.334 166.372L269.882 179.59L266.618 179.778L265.526 179.839C265.526 179.839 261.171 184.323 256.82 185.813C252.47 187.302 246.663 191.293 246.663 191.293L229.009 199.244L223.206 201.985C223.206 201.985 208.693 212.463 205.789 207.709C202.885 202.956 218.382 198.228 218.382 198.228L228.539 192.747C242.569 180.297 247.403 181.563 247.403 181.563L258.267 175.091C260.922 171.09 264.85 168.168 269.373 166.829C270.015 166.627 270.67 166.474 271.334 166.372Z" fill="#DB8B8B"/>
<path id="Vector_39" opacity="0.1" d="M303.749 180.282C302.939 181.862 302.365 183.559 302.045 185.315L290.885 165.849C291.151 165.469 291.384 165.066 291.581 164.644C291.866 164.047 292.092 163.422 292.252 162.778L293.867 163.154L298.238 164.171L299.754 164.522C299.754 164.562 299.724 164.603 299.714 164.644C297.68 170.795 301.516 177.237 303.749 180.282Z" fill="black"/>
<path id="Vector_40" opacity="0.1" d="M271.329 167.638L269.877 180.856L266.613 181.044C268.001 178.503 268.944 171.771 269.374 168.116C270.013 167.908 270.667 167.748 271.329 167.638Z" fill="black"/>
<path id="Vector_41" d="M302.87 189.921C299.241 196.803 297.372 204.521 297.438 212.351V213.328V213.455C297.438 213.455 300.099 220.923 297.438 220.923C294.776 220.923 295.018 224.66 291.635 225.407C288.252 226.154 276.396 231.381 272.771 229.144C269.147 226.907 266.727 222.174 266.727 222.174V181.583C266.776 181.522 266.826 181.456 266.87 181.385C268.959 178.335 270.114 165.625 270.114 165.625C270.805 165.734 271.501 165.804 272.198 165.833C274.277 165.935 276.643 165.833 277.838 165.772L278.579 165.727C280.667 167.409 283.517 167.653 284.929 167.653C285.425 167.655 285.92 167.693 286.411 167.765C290.494 168.355 291.739 162.768 291.739 162.768L293.354 163.144L297.724 164.161L299.24 164.511C296.519 172.448 303.684 180.933 304.588 181.96L304.682 182.066C304.759 184.803 304.134 187.512 302.87 189.921Z" fill="#6C63FF"/>
<path id="Vector_42" opacity="0.3" d="M272.203 165.854C272.203 169.153 271.438 180.089 266.737 181.67V181.583C266.786 181.522 266.835 181.456 266.88 181.385C268.969 178.335 270.124 165.625 270.124 165.625C270.813 165.741 271.507 165.817 272.203 165.854Z" fill="white"/>
<path id="Vector_43" opacity="0.3" d="M304.613 181.975C295.763 181.507 296.81 169.59 297.749 164.181L299.265 164.532C296.544 172.463 303.704 180.948 304.613 181.975Z" fill="white"/>
<g id="Group_5" opacity="0.1">
<path id="Vector_44" opacity="0.1" d="M304.707 182.331C304.704 182.305 304.693 182.281 304.677 182.262C304.66 182.242 304.637 182.229 304.613 182.224C302.637 181.716 304.83 182.453 302.637 181.716C302.554 181.685 302.756 181.344 302.756 181.344C302.823 184.078 302.189 186.782 300.919 189.184C297.291 196.066 295.421 203.784 295.487 211.614V212.59V212.712C295.487 212.712 298.149 220.181 295.487 220.181C292.825 220.181 293.067 223.917 289.685 224.665C286.583 225.351 276.386 229.789 271.907 228.808C272.184 229.017 272.465 229.215 272.756 229.393C276.386 231.635 288.238 226.404 291.62 225.656C295.003 224.909 294.766 221.172 297.423 221.172C300.079 221.172 297.423 213.704 297.423 213.704V213.577V212.601C297.357 204.771 299.226 197.052 302.855 190.17C304.13 187.77 304.769 185.066 304.707 182.331Z" fill="#1D438A"/>
<path id="Vector_45" opacity="0.1" d="M279.166 166.255C279.053 166.174 278.934 166.088 278.825 166.001H278.569C278.766 166.103 278.969 166.179 279.166 166.255Z" fill="#1D438A"/>
</g>
<path id="Vector_46" d="M355.496 290.893L352.597 297.614C351.77 296.213 350.863 294.864 349.881 293.573C348.473 291.636 346.811 289.91 344.943 288.443C342.921 286.929 341.013 285.26 339.234 283.451C337.871 282.093 336.38 280.746 335.323 280.182C334.709 279.864 334.123 279.493 333.57 279.073C331.644 277.548 327.862 274.421 326.968 272.22C326.968 272.22 319.23 264.752 315.842 263.257L312.464 259.19L308.583 254.528L318.499 244.319L321.417 248.524L325.758 254.777C327.722 257.289 329.968 259.552 332.449 261.518C334.922 263.364 337.205 265.465 339.264 267.787C342.511 271.421 345.359 275.413 347.758 279.688L353.995 288.712L354.039 288.784L355.027 290.202L355.496 290.893Z" fill="#DB8B8B"/>
<path id="Vector_47" d="M294.065 291.641L290.193 301.102L287.053 297.614L285.759 294.818L284.633 292.383L279.067 288.895L273.635 285.245C272.697 284.616 271.674 284.133 270.598 283.811C265.902 282.398 266.712 279.683 266.712 279.683L267.142 272.637L267.438 267.731L280.277 266.236L279.635 269.973L278.825 274.701C283.665 275.448 286.806 283.664 286.806 283.664C288.717 286.618 290.529 287.843 291.541 288.331C291.805 288.468 292.083 288.572 292.371 288.641L294.065 291.641Z" fill="#DB8B8B"/>
<path id="Vector_48" opacity="0.1" d="M354.039 288.788L353.926 288.723H353.995L354.039 288.788Z" fill="black"/>
<path id="Vector_49" opacity="0.1" d="M355.496 290.893L352.597 297.614C351.77 296.213 350.863 294.864 349.881 293.573C350.326 294.01 352.81 296.338 353.605 294.213C353.909 293.347 354.26 292.498 354.656 291.671C354.902 291.231 355.027 290.73 355.017 290.222L355.496 290.893Z" fill="black"/>
<path id="Vector_50" opacity="0.1" d="M355.259 290.451L354.271 289.033L354.227 288.961L347.99 279.937C345.586 275.665 342.732 271.677 339.481 268.046C337.422 265.724 335.139 263.624 332.667 261.778C330.185 259.811 327.939 257.548 325.975 255.036L321.65 248.808L318.731 244.604L318.306 245.041L320.919 248.808L325.259 255.062C327.225 257.567 329.473 259.823 331.956 261.783C334.428 263.629 336.711 265.729 338.77 268.051C342.016 271.681 344.864 275.667 347.264 279.937L353.511 288.972L353.555 289.043L354.543 290.461L355.037 291.153L352.439 297.172C352.711 297.614 352.864 297.874 352.864 297.874L355.767 291.153L355.259 290.451Z" fill="black"/>
<path id="Vector_51" opacity="0.1" d="M294.065 291.641L290.193 301.102L287.053 297.614L285.759 294.818L289.472 297.36C293.122 295.011 291.714 289.007 291.546 288.336C291.81 288.473 292.088 288.577 292.376 288.646L294.065 291.641Z" fill="black"/>
<path id="Vector_52" d="M291.768 288.529C291.768 288.529 293.581 295.139 289.714 297.619L284.633 294.132C284.633 294.132 283.645 296.623 286.811 299.861C287.988 300.948 288.906 302.299 289.494 303.811C290.081 305.322 290.322 306.953 290.198 308.575C290.198 308.575 290.692 314.549 293.586 313.059C293.586 313.059 298.183 312.043 297.941 303.847C297.941 303.847 296.109 297.009 298.242 294.117C298.302 294.039 298.363 293.962 298.425 293.888C300.845 291.148 297.699 286.918 297.699 286.918C297.699 286.918 292.01 284.549 291.768 288.529Z" fill="#535461"/>
<path id="Vector_53" opacity="0.1" d="M297.452 220.928C294.791 220.928 295.033 224.665 291.65 225.412C288.267 226.159 276.411 231.386 272.786 229.149C269.161 226.912 266.742 222.179 266.742 222.179V221.67C272.786 224.909 280.287 221.67 280.287 221.67C285.63 222.728 294.82 215.514 297.457 213.322V213.45C297.457 213.45 300.109 220.928 297.452 220.928Z" fill="black"/>
<path id="Vector_54" opacity="0.1" d="M267.458 267.736L280.297 266.241L279.655 269.978C275.68 271.879 269.956 272.464 267.181 272.642L267.458 267.736Z" fill="black"/>
<path id="Vector_55" opacity="0.1" d="M321.408 248.534C320.8 253.109 315.832 257.039 312.455 259.21L308.573 254.548L318.489 244.34L321.408 248.534Z" fill="black"/>
<path id="Vector_56" d="M280.277 222.169C280.277 222.169 272.781 225.407 266.732 222.169L265.522 239.103C265.522 239.103 265.764 246.572 264.796 250.796C263.828 255.021 265.522 272.21 265.522 272.21C265.522 272.21 280.519 271.961 283.418 266.236C283.418 266.236 289.704 253.287 288.499 248.808L301.561 251.798L309.304 260.502C309.304 260.502 322.607 254.03 321.398 246.058L303.497 224.406L298.178 213.221C298.178 213.221 286.569 223.414 280.277 222.169Z" fill="#6C63FF"/>
<path id="Vector_57" opacity="0.1" d="M309.304 260.502L301.566 251.788L288.499 248.808C288.529 248.92 288.554 249.037 288.578 249.159C288.619 249.398 288.642 249.639 288.648 249.881C288.85 255.062 283.423 266.241 283.423 266.241C280.519 271.971 265.527 272.215 265.527 272.215C265.527 272.215 263.808 255.041 264.796 250.806C265.784 246.572 265.522 239.113 265.522 239.113L266.687 222.809L266.732 222.184C268.42 223.059 270.274 223.545 272.164 223.607C274.84 223.687 277.507 223.24 280.021 222.291L280.277 222.184C280.419 222.211 280.564 222.233 280.712 222.25C285.907 222.84 294.238 216.464 297.136 214.09C297.793 213.551 298.173 213.221 298.173 213.221L303.497 224.406L321.393 246.068C321.431 246.317 321.454 246.569 321.462 246.821C321.773 254.447 309.304 260.502 309.304 260.502Z" fill="#1D438A"/>
<path id="Vector_58" opacity="0.3" d="M293.378 163.159C287.991 173.18 280.045 167.633 277.843 165.793L278.583 165.747C280.672 167.43 283.522 167.674 284.934 167.674C285.43 167.676 285.925 167.713 286.415 167.786C290.499 168.375 291.744 162.788 291.744 162.788L293.378 163.159Z" fill="white"/>
<path id="Vector_59" d="M354.177 288.972C355.006 288.924 355.832 289.099 356.574 289.481C357.316 289.862 357.949 290.437 358.409 291.148C358.409 291.148 364.691 296.598 368.074 297.106C368.074 297.106 378.231 301.59 375.328 307.813C372.424 314.036 365.412 308.321 365.412 308.321C365.412 308.321 357.916 301.351 355.496 301.849C355.496 301.849 348.844 297.741 350.064 293.756C350.064 293.756 352.977 296.806 353.856 294.462C354.159 293.596 354.509 292.747 354.903 291.92C355.372 290.965 355.614 289.719 354.177 288.972Z" fill="#535461"/>
<path id="Vector_60" opacity="0.1" d="M278.687 222.23C276.159 222.987 271.072 223.999 266.737 221.675L266.658 222.789C271.917 224.756 277.734 222.611 278.687 222.23Z" fill="black"/>
<path id="Vector_61" opacity="0.1" d="M284.183 221.355C282.924 221.775 281.587 221.892 280.277 221.696C280.277 221.696 279.744 221.925 278.855 222.204C280.401 222.474 282.258 222.082 284.183 221.355Z" fill="black"/>
<path id="Vector_62" opacity="0.1" d="M321.467 246.826C321.235 254.213 309.304 260.018 309.304 260.018L309.136 259.83C312.44 257.965 320.924 252.51 319.946 246.073L302.045 224.405L297.136 214.07C297.793 213.531 298.173 213.2 298.173 213.2L303.497 224.385L321.393 246.048C321.434 246.305 321.459 246.565 321.467 246.826Z" fill="black"/>
<path id="Vector_63" opacity="0.1" d="M287.052 248.808C288.262 253.292 281.971 266.236 281.971 266.236C281.112 267.929 279.201 269.144 276.929 270.014C279.813 269.129 282.386 267.782 283.423 265.738C283.423 265.738 289.003 254.248 288.638 249.169L287.052 248.808Z" fill="black"/>
<path id="Vector_64" opacity="0.3" d="M282.939 184.197C279.532 184.197 276.771 188.264 276.771 193.287C276.771 198.31 279.532 202.377 282.939 202.377C286.346 202.377 289.107 198.31 289.107 193.287C289.107 188.264 286.346 184.197 282.939 184.197ZM282.939 198.64C280.934 198.64 279.304 196.246 279.304 193.287C279.304 190.328 280.929 187.933 282.939 187.933C284.949 187.933 286.573 190.328 286.573 193.287C286.573 196.246 284.944 198.64 282.939 198.64V198.64Z" fill="white"/>
</g>
<g id="basketball">
<path id="Vector_65" d="M326.178 109.795C326.178 110.09 326.178 110.382 326.178 110.67C326.178 110.827 326.178 110.985 326.143 111.138C325.936 113.749 325.086 116.263 323.674 118.443C323.58 118.591 323.482 118.733 323.383 118.875C322.036 120.819 320.258 122.405 318.197 123.499C316.136 124.594 313.851 125.167 311.531 125.169C311.2 125.169 310.87 125.169 310.544 125.134C310.218 125.098 309.936 125.083 309.635 125.042C307.542 124.75 305.534 123.995 303.751 122.828C301.968 121.662 300.451 120.112 299.304 118.286C299.225 118.169 299.151 118.042 299.082 117.925V117.899C297.634 115.459 296.87 112.655 296.875 109.795C296.874 109.033 296.927 108.272 297.033 107.518L297.112 107.009C297.512 104.683 298.428 102.484 299.788 100.581C301.148 98.6782 302.916 97.1238 304.954 96.0383L305.487 95.7688C307.22 94.9453 309.094 94.4823 311.002 94.4064C312.91 94.3305 314.813 94.6432 316.603 95.3265C317.069 95.5049 317.525 95.7085 317.971 95.9366C321.251 97.6187 323.813 100.488 325.166 103.995C325.215 104.112 325.254 104.223 325.294 104.34C325.903 106.09 326.202 107.937 326.178 109.795Z" fill="#F88787"/>
<path id="Vector_66" opacity="0.5" d="M325.235 104.34C324.295 104.627 323.321 104.773 322.341 104.772H322.173H321.788C321.551 104.772 321.319 104.742 321.097 104.711C319.176 104.475 317.336 103.779 315.724 102.678C311.413 98.1532 307.191 96.6077 304.909 96.0688L305.442 95.7993C307.684 96.384 311.324 97.8329 315.111 101.493C316.088 102.445 317.24 103.184 318.499 103.669C319.364 103.999 320.264 104.222 321.18 104.335C321.378 104.335 321.571 104.376 321.763 104.391H322.153C323.154 104.419 324.154 104.289 325.116 104.005C325.151 104.132 325.195 104.244 325.235 104.34Z" fill="white"/>
<path id="Vector_67" opacity="0.5" d="M326.153 110.67C326.153 110.827 326.153 110.985 326.119 111.138C324.856 110.306 323.506 109.624 322.094 109.104L321.724 108.967C318.358 107.803 314.882 107.012 311.353 106.608C303.057 105.52 298.919 106.537 296.949 107.503L297.028 106.994C299.161 106.028 303.363 105.149 311.403 106.201C314.929 106.606 318.404 107.388 321.773 108.535L322.143 108.672C323.546 109.186 324.891 109.856 326.153 110.67Z" fill="white"/>
<path id="Vector_68" opacity="0.5" d="M322.143 108.707C322.143 108.845 322.114 108.982 322.099 109.124C322.013 109.819 321.892 110.546 321.734 111.305C321.612 111.878 321.477 112.429 321.329 112.958C321.289 113.095 321.25 113.232 321.21 113.364C319.334 119.552 315.516 122.688 312.499 124.254C311.859 124.59 311.199 124.885 310.524 125.139L309.615 125.047C310.563 124.744 311.485 124.359 312.371 123.898C315.334 122.373 319.082 119.257 320.909 113.13C320.948 113.008 320.983 112.881 321.018 112.754C321.156 112.263 321.281 111.754 321.393 111.229C321.554 110.466 321.678 109.721 321.763 108.992C321.763 108.855 321.793 108.713 321.808 108.575C321.934 107.314 321.934 106.044 321.808 104.783C321.808 104.65 321.783 104.518 321.763 104.391C321.462 101.653 320.308 99.088 318.474 97.0805C317.875 96.4344 317.213 95.8535 316.499 95.3468C316.965 95.5252 317.422 95.7289 317.867 95.9569C318.157 96.2179 318.443 96.5026 318.726 96.811C320.614 98.901 321.793 101.564 322.089 104.401C322.089 104.528 322.119 104.661 322.134 104.788C322.269 106.09 322.272 107.404 322.143 108.707Z" fill="white"/>
<path id="Vector_69" opacity="0.5" d="M323.635 118.448C323.541 118.596 323.442 118.738 323.343 118.88C322.929 117.03 322.264 115.248 321.368 113.588C321.321 113.505 321.263 113.43 321.195 113.364C321.097 113.272 320.985 113.195 320.865 113.136C318.963 112.165 313.284 113.791 309.062 116.14C305.813 117.95 301.561 118.27 299.235 118.291L299.013 117.93V117.904C301.235 117.904 305.601 117.63 308.889 115.8C312.84 113.613 318.716 111.732 320.978 112.749C321.098 112.803 321.212 112.87 321.319 112.947C321.474 113.061 321.605 113.207 321.704 113.374C322.559 114.972 323.209 116.678 323.635 118.448Z" fill="white"/>
</g>
<path id="Vector_70" opacity="0.1" d="M149.736 378.52H128.008V381.062H149.736V378.52Z" fill="black"/>
<path id="Vector_71" opacity="0.3" d="M89.8159 48.5873L39.1204 101.191V113.647L96.6504 46.3148L89.8159 48.5873Z" fill="white"/>
<path id="Vector_72" opacity="0.3" d="M107.312 43.5288L39.1204 132.457V145.64L124.324 40.9156L107.312 43.5288Z" fill="white"/>
</g>
<defs>
<linearGradient id="paint0_linear" x1="139.144" y1="389.644" x2="139.144" y2="181.385" gradientUnits="userSpaceOnUse">
<stop stop-color="#808080" stop-opacity="0.25"/>
<stop offset="0.54" stop-color="#808080" stop-opacity="0.12"/>
<stop offset="1" stop-color="#808080" stop-opacity="0.1"/>
</linearGradient>
<linearGradient id="paint1_linear" x1="19743.5" y1="12986.3" x2="19743.5" y2="12479" gradientUnits="userSpaceOnUse">
<stop stop-color="#808080" stop-opacity="0.25"/>
<stop offset="0.54" stop-color="#808080" stop-opacity="0.12"/>
<stop offset="1" stop-color="#808080" stop-opacity="0.1"/>
</linearGradient>
<linearGradient id="paint2_linear" x1="80821.9" y1="63004.3" x2="80821.9" y2="18169.7" gradientUnits="userSpaceOnUse">
<stop stop-color="#808080" stop-opacity="0.25"/>
<stop offset="0.54" stop-color="#808080" stop-opacity="0.12"/>
<stop offset="1" stop-color="#808080" stop-opacity="0.1"/>
</linearGradient>
<linearGradient id="paint3_linear" x1="75718.9" y1="57705.9" x2="75718.9" y2="18357.6" gradientUnits="userSpaceOnUse">
<stop stop-color="#808080" stop-opacity="0.25"/>
<stop offset="0.54" stop-color="#808080" stop-opacity="0.12"/>
<stop offset="1" stop-color="#808080" stop-opacity="0.1"/>
</linearGradient>
<linearGradient id="paint4_linear" x1="14976.6" y1="15617.2" x2="14976.6" y2="11341.2" gradientUnits="userSpaceOnUse">
<stop stop-color="#808080" stop-opacity="0.25"/>
<stop offset="0.54" stop-color="#808080" stop-opacity="0.12"/>
<stop offset="1" stop-color="#808080" stop-opacity="0.1"/>
</linearGradient>
<linearGradient id="paint5_linear" x1="12457" y1="12689" x2="12457" y2="9741.65" gradientUnits="userSpaceOnUse">
<stop stop-color="#808080" stop-opacity="0.25"/>
<stop offset="0.54" stop-color="#808080" stop-opacity="0.12"/>
<stop offset="1" stop-color="#808080" stop-opacity="0.1"/>
</linearGradient>
<linearGradient id="paint6_linear" x1="32072.1" y1="34810.6" x2="32072.1" y2="26369.4" gradientUnits="userSpaceOnUse">
<stop stop-color="#808080" stop-opacity="0.25"/>
<stop offset="0.54" stop-color="#808080" stop-opacity="0.12"/>
<stop offset="1" stop-color="#808080" stop-opacity="0.1"/>
</linearGradient>
<linearGradient id="paint7_linear" x1="27259.9" y1="33013.2" x2="27259.9" y2="25428.2" gradientUnits="userSpaceOnUse">
<stop stop-color="#808080" stop-opacity="0.25"/>
<stop offset="0.54" stop-color="#808080" stop-opacity="0.12"/>
<stop offset="1" stop-color="#808080" stop-opacity="0.1"/>
</linearGradient>
<linearGradient id="paint8_linear" x1="13268.8" y1="28233.8" x2="13268.8" y2="21198" gradientUnits="userSpaceOnUse">
<stop stop-color="#808080" stop-opacity="0.25"/>
<stop offset="0.54" stop-color="#808080" stop-opacity="0.12"/>
<stop offset="1" stop-color="#808080" stop-opacity="0.1"/>
</linearGradient>
<linearGradient id="paint9_linear" x1="32389.6" y1="6210.82" x2="32389.6" y2="5796.86" gradientUnits="userSpaceOnUse">
<stop stop-color="#808080" stop-opacity="0.25"/>
<stop offset="0.54" stop-color="#808080" stop-opacity="0.12"/>
<stop offset="1" stop-color="#808080" stop-opacity="0.1"/>
</linearGradient>
<linearGradient id="paint10_linear" x1="32389.6" y1="6210.82" x2="32389.6" y2="5796.86" gradientUnits="userSpaceOnUse">
<stop stop-color="#808080" stop-opacity="0.25"/>
<stop offset="0.54" stop-color="#808080" stop-opacity="0.12"/>
<stop offset="1" stop-color="#808080" stop-opacity="0.1"/>
</linearGradient>
<linearGradient id="paint11_linear" x1="32389.6" y1="6165.01" x2="32389.6" y2="5751.06" gradientUnits="userSpaceOnUse">
<stop stop-color="#808080" stop-opacity="0.25"/>
<stop offset="0.54" stop-color="#808080" stop-opacity="0.12"/>
<stop offset="1" stop-color="#808080" stop-opacity="0.1"/>
</linearGradient>
<clipPath id="clip0">
<rect width="497" height="400" fill="white"/>
</clipPath>
</defs>
</svg>
