<svg width="365" height="345" viewBox="0 0 365 345" fill="none" xmlns="http://www.w3.org/2000/svg">
<g id="undraw_greek_freak_j2qb 1">
<path id="Vector" d="M347.104 320.341V320.72C347.104 320.819 347.104 320.923 347.097 321.022C347.006 326.184 345.291 331.168 342.221 335.198C342.066 335.409 341.903 335.612 341.736 335.815C341.486 336.125 341.229 336.424 340.963 336.719C340.941 336.742 340.918 336.77 340.891 336.794L340.88 336.806C340.85 336.838 340.819 336.874 340.789 336.906C340.323 337.411 339.834 337.896 339.323 338.359C339.221 338.451 339.115 338.546 339.005 338.638C335.05 342.09 330.08 343.998 324.939 344.037C324.901 344.041 324.859 344.041 324.822 344.041H324.689C324.651 344.041 324.613 344.041 324.575 344.037C324.443 344.037 324.314 344.033 324.181 344.029C319.039 343.901 314.098 341.905 310.199 338.379C310.093 338.287 309.987 338.192 309.884 338.092C309.479 337.718 309.089 337.324 308.714 336.918C308.684 336.886 308.653 336.85 308.623 336.818L308.612 336.806C308.585 336.782 308.562 336.754 308.54 336.731C308.221 336.38 307.915 336.018 307.619 335.647C307.456 335.444 307.297 335.237 307.142 335.026C304.15 331.027 302.483 326.109 302.395 321.022C302.387 320.927 302.387 320.827 302.387 320.728V320.357C302.387 320.313 302.387 320.27 302.391 320.226C302.445 315.129 304.083 310.19 307.055 306.162C307.21 305.951 307.369 305.744 307.532 305.541C307.831 305.159 308.146 304.788 308.468 304.426C308.49 304.398 308.513 304.374 308.54 304.346C308.54 304.342 308.543 304.338 308.547 304.334C308.577 304.303 308.608 304.267 308.642 304.235C309.062 303.777 309.501 303.336 309.956 302.913C310.059 302.813 310.165 302.718 310.271 302.626C314.258 299.056 319.315 297.078 324.553 297.04C324.591 297.036 324.632 297.036 324.67 297.036H324.916C330.033 297.069 334.982 298.954 338.933 302.371C339.039 302.467 339.145 302.558 339.251 302.654C339.804 303.148 340.335 303.673 340.838 304.223C340.869 304.255 340.899 304.291 340.929 304.322L340.937 304.33C340.963 304.354 340.99 304.386 341.013 304.41C341.293 304.721 341.562 305.043 341.823 305.37C341.99 305.573 342.149 305.776 342.308 305.987C345.361 310.045 347.047 315.053 347.1 320.226C347.104 320.264 347.105 320.303 347.104 320.341V320.341Z" fill="#6C63FF"/>
<path id="Vector_2" d="M324.939 297.131H324.181V344.117H324.939V297.131Z" fill="white"/>
<path id="Vector_3" d="M347.104 320.226H302.209V321.022H347.104V320.226Z" fill="white"/>
<path id="Vector_4" d="M315.082 320.226C315.022 317.324 314.307 314.479 312.994 311.925C311.681 309.372 309.809 307.183 307.532 305.541C307.369 305.744 307.21 305.951 307.055 306.162C309.244 307.729 311.045 309.823 312.31 312.269C313.575 314.715 314.267 317.443 314.328 320.226C314.332 320.357 314.332 320.489 314.332 320.624C314.332 320.759 314.332 320.891 314.328 321.022C314.267 323.787 313.583 326.497 312.334 328.931C311.085 331.365 309.306 333.454 307.142 335.026C307.297 335.237 307.456 335.444 307.619 335.647C309.871 334 311.722 331.817 313.018 329.275C314.315 326.734 315.022 323.906 315.082 321.022C315.09 320.891 315.09 320.755 315.09 320.624C315.09 320.493 315.09 320.357 315.082 320.226Z" fill="white"/>
<path id="Vector_5" d="M334.792 321.022C334.789 320.891 334.789 320.759 334.789 320.624C334.789 320.489 334.789 320.357 334.792 320.226C334.855 317.39 335.572 314.613 336.881 312.133C338.19 309.653 340.052 307.543 342.308 305.987C342.149 305.776 341.99 305.573 341.823 305.37C339.482 307.002 337.551 309.206 336.195 311.793C334.839 314.38 334.099 317.273 334.038 320.226C334.031 320.357 334.031 320.493 334.031 320.624C334.031 320.755 334.031 320.891 334.038 321.022C334.099 323.956 334.83 326.832 336.17 329.406C337.509 331.981 339.419 334.179 341.736 335.815C341.903 335.612 342.066 335.409 342.221 335.198C339.989 333.637 338.149 331.534 336.855 329.066C335.562 326.598 334.854 323.839 334.792 321.022V321.022Z" fill="white"/>
<path id="Vector_6" d="M365 343.894H0V344.786H365V343.894Z" fill="#2F2E41"/>
<path id="Vector_7" d="M344.066 165.581C344.138 208.05 328.634 248.915 300.777 279.678C300.588 279.889 300.394 280.1 300.201 280.311C285.5 296.42 267.853 309.239 248.32 317.999C228.787 326.76 207.771 331.28 186.534 331.288C165.297 331.297 144.278 326.794 124.738 318.049C105.199 309.305 87.5422 296.5 72.8293 280.403C72.6361 280.192 72.4428 279.981 72.2533 279.77C44.4963 249.078 28.9762 208.379 28.8818 166.034C28.7875 123.688 44.126 82.9126 71.7459 52.085C71.9314 51.8699 72.1246 51.6588 72.3177 51.4476C87.0305 35.199 104.73 22.2605 124.342 13.4169C143.955 4.57333 165.072 0.00883002 186.413 0.00022581C207.754 -0.0083784 228.875 4.53909 248.493 13.3669C268.112 22.1947 285.821 35.1188 300.546 51.3556C300.739 51.5666 300.932 51.7775 301.118 51.9925C328.736 82.683 344.107 123.336 344.066 165.581V165.581Z" fill="#6C63FF"/>
<path id="Vector_8" d="M344.066 165.246H28.8814V166.042H344.066V165.246Z" fill="white"/>
<path id="Vector_9" d="M186.852 0.000213623H186.095V331.288H186.852V0.000213623Z" fill="white"/>
<path id="Vector_10" d="M117.545 111.049C110.789 94.2555 100.995 79.0001 88.7073 66.13C83.6249 60.7848 78.1442 55.8751 72.3177 51.4476C72.1246 51.6587 71.9314 51.8698 71.7459 52.0849C105.406 77.6188 127.359 119.196 127.377 166.066C127.394 212.737 105.657 254.181 72.2533 279.77C72.4428 279.981 72.6361 280.192 72.8293 280.403C78.493 276.055 83.8261 271.251 88.7803 266.034C107.686 246.13 120.52 220.756 125.644 193.151C130.767 165.546 127.947 136.962 117.545 111.049V111.049Z" fill="white"/>
<path id="Vector_11" d="M245.571 166.019C245.554 119.148 267.476 77.5534 301.118 51.9924C300.932 51.7775 300.739 51.5665 300.546 51.3556C283.334 64.4495 269.317 81.6401 259.639 101.521C249.961 121.402 244.898 143.409 244.865 165.741C244.831 188.073 249.827 210.097 259.445 230.01C269.063 249.923 283.029 267.16 300.201 280.311C300.395 280.1 300.588 279.889 300.777 279.678C267.359 254.116 245.588 212.69 245.571 166.019Z" fill="white"/>
<path id="Vector_12" d="M148.104 280.489L147.055 302.556L158.077 304.763L161.226 283.799L148.104 280.489Z" fill="#9D616A"/>
<path id="Vector_13" d="M202.69 287.661L205.314 305.866H215.287L213.187 286.558L202.69 287.661Z" fill="#9D616A"/>
<path id="Vector_14" d="M150.204 238.009L148.104 263.387L146.005 284.902C146.005 284.902 153.878 281.592 161.226 286.557C161.226 286.557 165.95 285.454 164.9 263.938L169.624 241.32L150.204 238.009Z" fill="#EFEFEF"/>
<path id="Vector_15" d="M192.718 246.285C192.718 246.285 195.867 266.145 197.442 267.8C197.442 267.8 200.041 285.561 201.304 290.05C201.379 290.37 201.493 290.68 201.64 290.971C202.69 292.626 214.237 296.488 214.762 289.867C215.287 283.247 216.861 272.214 211.613 263.938L208.464 242.975L192.718 246.285Z" fill="#EFEFEF"/>
<path id="Vector_16" d="M224.472 243.802C223.947 249.871 195.08 248.767 189.831 248.767C188.172 248.767 186.042 248.497 184.981 245.485C183.165 240.338 182.168 232.818 181.832 229.878C181.696 232.603 180.499 239.201 177.507 243.427C175.686 246.009 172.673 245.496 169.361 244.905C163.861 243.923 152.928 240.349 149.941 241.044C145.218 242.147 139.533 242.257 139.444 241.044C139.403 240.38 139.407 239.715 139.455 239.052C140.147 227.643 150.204 196.716 150.204 194.427C150.204 191.668 154.928 180.083 154.928 180.083L203.215 174.014C203.215 174.014 222.341 228.245 224.971 241.595C225.196 242.748 224.514 243.322 224.472 243.802Z" fill="#EFEFEF"/>
<path id="Vector_17" d="M159.651 302.004L146.005 299.246L147.317 322.141L158.077 330.14C158.077 330.14 157.027 308.073 159.651 302.004Z" fill="#EFEFEF"/>
<path id="Vector_18" d="M215.287 300.349C215.287 300.349 208.464 304.763 202.69 300.349L207.414 320.762L215.287 319.658C215.287 319.658 218.961 307.521 215.287 300.349Z" fill="#EFEFEF"/>
<path id="Vector_19" d="M216.861 317.451C216.861 317.451 205.839 318.003 205.839 319.106V337.312C205.839 338.967 207.939 341.174 207.414 342.277C206.889 343.381 210.563 346.139 218.961 344.484C227.359 342.829 224.21 337.312 224.21 337.312C224.21 337.312 215.812 321.865 216.861 317.451Z" fill="#2F2E41"/>
<path id="Vector_20" d="M145.742 317.727C145.742 317.727 158.339 318.003 158.339 319.107V337.312C158.339 338.967 156.24 341.174 156.765 342.277C157.289 343.381 153.615 346.139 145.218 344.484C136.82 342.829 139.969 337.312 139.969 337.312C139.969 337.312 146.792 322.141 145.742 317.727Z" fill="#2F2E41"/>
<path id="Vector_21" d="M225.259 244.078C224.734 250.146 194.292 250.698 189.044 250.698C187.385 250.698 186.042 248.497 184.981 245.485C190.613 244.31 214.836 239.516 224.971 241.595C225.164 242.407 225.261 243.241 225.259 244.078V244.078Z" fill="#6C63FF"/>
<path id="Vector_22" d="M177.507 243.427C175.686 246.009 173.198 247.702 169.886 247.112C164.386 246.13 152.928 243.659 149.941 244.354C145.218 245.457 139.533 242.257 139.444 241.044C139.403 240.38 139.407 239.715 139.455 239.052C150.503 238.738 170.07 238.876 177.507 243.427Z" fill="#6C63FF"/>
<g id="hand">
<path id="Vector_23" d="M157.027 107.261C157.027 107.261 147.579 103.951 139.182 113.881L137.607 117.191C137.607 117.191 125.535 121.053 121.861 123.812C121.861 123.812 110.839 121.053 97.1926 123.812L83.5461 120.501C83.5461 120.501 57.3029 101.193 54.6786 113.33C52.0543 125.467 79.3472 129.88 79.3472 129.88L101.916 136.5C101.916 136.5 119.237 140.914 126.06 137.604C126.06 137.604 145.48 136.5 149.154 128.777L157.027 132.638V107.261Z" fill="#9D616A"/>
</g>
<path id="Vector_24" d="M189.569 104.503C189.569 104.503 208.989 102.296 216.337 112.778L231.558 117.191C231.558 117.191 248.353 113.881 254.652 115.536L268.298 111.675C268.298 111.675 281.42 89.6073 288.768 95.6758C296.116 101.744 271.447 121.053 271.447 121.053L238.381 132.638C238.381 132.638 212.663 134.845 207.414 124.915L201.64 138.707L179.596 133.19L189.569 104.503Z" fill="#9D616A"/>
<path id="Vector_25" d="M171.198 101.744C179.025 101.744 185.37 95.0753 185.37 86.8488C185.37 78.6224 179.025 71.9535 171.198 71.9535C163.372 71.9535 157.027 78.6224 157.027 86.8488C157.027 95.0753 163.372 101.744 171.198 101.744Z" fill="#9D616A"/>
<path id="Vector_26" d="M163.85 95.6758V107.813L169.099 127.122L184.845 107.813C184.845 107.813 180.646 94.5724 180.646 92.3657C180.646 90.1589 163.85 95.6758 163.85 95.6758Z" fill="#9D616A"/>
<path id="Vector_27" d="M205.577 175.394C205.577 175.394 205.32 177.385 202.932 177.567C198.15 177.937 190.099 178.792 184.845 180.635C176.972 183.393 153.353 183.393 153.353 183.393L151.82 133.422L152.566 129.604C152.041 125.191 156.24 107.537 156.24 107.537L159.305 105.159L162.176 104.508L163.063 105.33C163.063 112.679 169.886 119.674 169.886 119.674C179.859 114.709 184.058 103.675 184.058 103.675L187.012 103.217L190.104 103.581L192.902 103.912L191.93 104.778L191.406 105.882C191.374 105.948 191.432 105.816 191.406 105.882C183.764 122.923 192.991 130.63 198.754 134.018C201.142 135.43 201.378 136.776 201.378 136.776C201.378 136.776 203.535 136.097 203.477 138.431C203.304 145.984 201.997 163.036 204.002 167.67C206.627 173.739 205.577 175.394 205.577 175.394Z" fill="#EFEFEF"/>
<path id="Vector_28" d="M156.24 76.7789C156.579 75.5549 156.979 74.3501 157.436 73.1692C158.035 71.7253 157.436 67.3936 158.035 67.3936H160.428L163.42 64.5058L165.215 65.9497L167.608 64.5058L170.6 65.9497L173.592 64.5058L178.378 68.1156L179.575 67.3936L180.772 69.5594H181.37L183.764 73.1692H184.96V76.7789H186.157V86.1643L184.582 92.6415L184.057 89.4633C184.058 89.4199 184.044 89.3777 184.019 89.343C183.995 89.3083 183.96 89.2829 183.92 89.2707C183.881 89.2585 183.838 89.2601 183.8 89.2753C183.761 89.2904 183.728 89.3183 183.706 89.3548L182.567 91.2179L181.836 88.2787C180.784 83.8766 178.315 79.9931 174.847 77.2881C170.419 73.911 164.018 72.3029 157.436 81.8326L156.24 76.7789Z" fill="#2F2E41"/>
<path id="Vector_29" d="M159.305 105.159C158.308 111.531 155.295 129.152 151.82 133.422L151.778 132.087C151.254 127.673 154.928 106.158 154.928 106.158L159.305 105.159Z" fill="#6C63FF"/>
<path id="Vector_30" d="M187.012 103.217C184.378 108.447 176.83 121.947 169.624 121.053C162.669 120.192 162.092 109.28 162.176 104.508L163.85 104.128C163.85 111.476 170.149 117.743 170.149 117.743C180.121 112.778 183.296 102.781 183.296 102.781L187.012 103.217Z" fill="#6C63FF"/>
<path id="Vector_31" d="M204.265 134.845C204.265 134.845 204.207 136.324 204.149 138.657C202.689 138.575 201.24 138.338 199.824 137.951C183.611 133.455 188.351 110.312 190.104 103.581L192.901 103.912H192.907C192.985 103.99 193.069 104.072 193.153 104.155C185.511 121.197 194.229 129.483 199.992 132.87C201.346 133.686 202.778 134.348 204.265 134.845V134.845Z" fill="#6C63FF"/>
<path id="Vector_32" d="M206.889 177.325C206.889 177.325 205.32 177.385 202.932 177.567C201.734 172.947 200.777 168.262 200.066 163.533C199.373 158.435 199.594 145.895 199.824 137.951C199.887 135.871 199.945 134.1 199.992 132.87C201.346 133.686 202.778 134.348 204.265 134.845C204.265 134.845 204.207 136.324 204.149 138.657C203.976 146.21 203.834 162.76 205.839 167.394C208.464 173.463 206.889 177.325 206.889 177.325Z" fill="#6C63FF"/>
<path id="Vector_33" d="M157.814 139.492C157.814 139.492 174.61 131.045 190.881 139.492Z" fill="#6C63FF"/>
<path id="Vector_34" d="M154.273 183.562C154.273 183.562 159.198 183.164 171.32 184.359C183.443 185.553 203.521 177.59 203.521 177.59" fill="#CACACA"/>
<g id="bball">
<path id="Vector_35" d="M86.5658 138.381V138.759C86.5658 138.858 86.5658 138.962 86.5582 139.061C86.4672 144.223 84.7529 149.207 81.6827 153.237C81.5274 153.448 81.3645 153.651 81.1978 153.854C80.9478 154.164 80.6902 154.463 80.425 154.758C80.4023 154.782 80.3795 154.81 80.353 154.833L80.3417 154.845C80.3114 154.877 80.281 154.913 80.2508 154.945C79.7848 155.451 79.2961 155.935 78.7847 156.398C78.6824 156.49 78.5763 156.585 78.4665 156.677C74.5113 160.129 69.5416 162.037 64.4006 162.076C64.3627 162.08 64.3211 162.08 64.2832 162.08H64.1506C64.1127 162.08 64.0748 162.08 64.037 162.076C63.9044 162.076 63.7756 162.072 63.643 162.068C58.5009 161.941 53.5598 159.944 49.6605 156.418C49.5544 156.327 49.4484 156.231 49.3461 156.132C48.9407 155.757 48.5505 155.363 48.1755 154.957C48.1452 154.925 48.1149 154.889 48.0845 154.857L48.0732 154.845C48.0467 154.821 48.024 154.794 48.0012 154.77C47.683 154.419 47.3762 154.057 47.0807 153.687C46.9178 153.484 46.7587 153.277 46.6034 153.066C43.6112 149.066 41.9443 144.148 41.8566 139.061C41.849 138.966 41.849 138.866 41.849 138.767V138.396C41.849 138.353 41.849 138.309 41.8528 138.265C41.9065 133.168 43.5441 128.229 46.5162 124.201C46.6715 123.99 46.8306 123.783 46.9935 123.58C47.2928 123.198 47.6072 122.827 47.9292 122.465C47.952 122.437 47.9747 122.413 48.0012 122.386C48.0012 122.382 48.005 122.378 48.0087 122.374C48.0391 122.342 48.0694 122.306 48.1034 122.274C48.524 121.816 48.9622 121.375 49.418 120.952C49.5203 120.852 49.6263 120.757 49.7324 120.665C53.7198 117.096 58.7767 115.118 64.0142 115.079C64.0521 115.075 64.0938 115.075 64.1317 115.075H64.3779C69.4944 115.109 74.4439 116.993 78.3945 120.411C78.5006 120.506 78.6066 120.598 78.7127 120.693C79.2658 121.187 79.7962 121.713 80.3 122.262C80.3303 122.294 80.3606 122.33 80.3909 122.362L80.3985 122.37C80.425 122.393 80.4515 122.425 80.4743 122.449C80.7546 122.76 81.0236 123.082 81.285 123.409C81.4517 123.612 81.6107 123.815 81.7699 124.026C84.8227 128.084 86.5081 133.092 86.562 138.265C86.5652 138.303 86.5664 138.342 86.5658 138.381V138.381Z" fill="#1D438A"/>
<path id="Vector_36" d="M64.4006 115.17H63.643V162.156H64.4006V115.17Z" fill="white"/>
<path id="Vector_37" d="M86.5658 138.265H41.671V139.061H86.5658V138.265Z" fill="white"/>
<path id="Vector_38" d="M54.5435 138.265C54.4841 135.363 53.7683 132.518 52.4555 129.964C51.1426 127.411 49.2704 125.222 46.9935 123.58C46.8306 123.783 46.6715 123.99 46.5162 124.201C48.7052 125.769 50.507 127.862 51.772 130.308C53.037 132.754 53.7287 135.482 53.7897 138.265C53.7935 138.396 53.7935 138.528 53.7935 138.663C53.7935 138.799 53.7935 138.93 53.7897 139.061C53.7282 141.826 53.0451 144.536 51.7961 146.97C50.547 149.404 48.7676 151.493 46.6033 153.065C46.7586 153.277 46.9177 153.484 47.0806 153.687C49.333 152.039 51.1831 149.856 52.4801 147.314C53.777 144.773 54.4841 141.945 54.5435 139.061C54.5511 138.93 54.5511 138.795 54.5511 138.663C54.5511 138.532 54.5511 138.396 54.5435 138.265Z" fill="white"/>
<path id="Vector_39" d="M74.2539 139.061C74.2501 138.93 74.2501 138.799 74.2501 138.663C74.2501 138.528 74.2501 138.396 74.2539 138.265C74.3165 135.429 75.0331 132.652 76.3423 130.172C77.6515 127.692 79.514 125.583 81.7699 124.026C81.6107 123.815 81.4516 123.612 81.285 123.409C78.9433 125.041 77.0121 127.245 75.6565 129.832C74.3008 132.419 73.561 135.312 73.5 138.265C73.4925 138.396 73.4925 138.532 73.4925 138.663C73.4925 138.795 73.4925 138.93 73.5 139.061C73.5605 141.995 74.2915 144.871 75.6312 147.445C76.971 150.02 78.8802 152.218 81.1978 153.854C81.3645 153.651 81.5274 153.448 81.6827 153.237C79.451 151.676 77.6103 149.573 76.317 147.105C75.0238 144.637 74.316 141.878 74.2539 139.061V139.061Z" fill="white"/>
</g>
</g>
</svg>
