<svg width="371" height="321" viewBox="0 0 371 321" fill="none" xmlns="http://www.w3.org/2000/svg">
<g clip-path="url(#clip0)">
<path d="M361.526 310.062L357.862 312.085L350.095 294.733L355.503 291.747L361.526 310.062Z" fill="#FFB6B6"/>
<path d="M331.248 314.555L327.266 314.555L325.371 294.646H331.249L331.248 314.555Z" fill="#FFB6B6"/>
<path d="M331.389 319.94L319.141 319.939V319.739C319.141 318.1 319.644 316.529 320.538 315.37C321.432 314.212 322.644 313.561 323.908 313.561H323.909L326.146 311.361L330.32 313.561L331.389 313.561L331.389 319.94Z" fill="#2F2E41"/>
<path d="M363.754 313.509L352.487 319.731L352.426 319.547C351.93 318.039 351.917 316.339 352.389 314.819C352.861 313.299 353.779 312.084 354.942 311.441L354.943 311.441L356.335 308.281L360.84 308.184L361.824 307.641L363.754 313.509Z" fill="#2F2E41"/>
<path d="M327.342 196.727L321.289 244.493L322.936 251.611L320.774 256.652L323.949 300.924L322.66 304.601L326.26 307.478H333.586L333.975 267.398L335.784 261.514V258.27L339.468 233.831L340.146 261.787L341.218 267.681L340.318 271.877L341.494 274.817L351.573 302.865H359.787L359.152 296.522C360.624 295.556 356.942 292.734 356.589 290.646L357.798 287.119L356.589 280.457L355.48 267.438L356.649 239.959L356.099 202.956C353.341 198.163 350.281 194.467 346.489 193.432L327.342 196.727Z" fill="#2F2E41"/>
<path d="M342.082 133.823C346.667 133.823 350.383 129.006 350.383 123.065C350.383 117.123 346.667 112.306 342.082 112.306C337.497 112.306 333.781 117.123 333.781 123.065C333.781 129.006 337.497 133.823 342.082 133.823Z" fill="#FFB6B6"/>
<path d="M307.856 208.013C307.752 207.409 307.752 206.783 307.856 206.178C307.959 205.574 308.164 205.007 308.455 204.516C308.746 204.025 309.116 203.623 309.54 203.338C309.964 203.053 310.431 202.892 310.908 202.866L314.252 188.459L318.118 194.46L314.35 207.222C314.33 208.263 314.017 209.26 313.468 210.022C312.92 210.783 312.175 211.258 311.374 211.356C310.574 211.453 309.773 211.167 309.125 210.551C308.476 209.935 308.025 209.032 307.856 208.013Z" fill="#FFB6B6"/>
<path d="M329.548 148.794L328.05 145.246L326.118 146.081C326.118 146.081 323.986 147.864 321.001 154.595C319.621 157.708 316.636 177.669 316.636 177.669L309.66 201.609L316.772 203.168L322.706 183.439L329.586 164.558L329.548 148.794Z" fill="#6C63FF"/>
<path d="M341.774 196.577C347.619 196.577 353.516 198.068 355.931 203.4C355.868 202.241 355.71 200.23 355.546 198.386L354.942 193.43L355.554 188.887L356.363 187.838L354.914 185.959L355.902 176.475L359.166 154.131C359.422 152.374 359.222 150.555 358.598 148.96C357.975 147.364 356.961 146.081 355.716 145.308L352.581 143.354L347.497 137.244L338.302 137.155L335.303 142.209L327.406 145.685L328.731 181.223L327.863 183.851C328.057 184.082 328.468 184.578 328.691 184.897C329.006 185.348 328.605 187.671 328.338 189.016L327.971 192.598L329.126 193.668L327.624 195.968L327.324 198.886C328.815 198.429 335.262 196.577 341.774 196.577Z" fill="#6C63FF"/>
<path d="M344.206 133.295C344.24 133.195 344.275 133.093 344.31 132.992C344.297 132.992 344.283 132.995 344.27 132.995L344.206 133.295Z" fill="#2F2E41"/>
<path d="M350.614 112.795C350.22 112.314 349.708 112.026 349.167 111.984C348.63 112.007 348.086 112.635 348.197 113.316C347.211 111.054 345.641 109.313 343.764 108.401C341.887 107.489 339.821 107.463 337.931 108.327C336.596 108.937 335.288 110.158 334.982 111.948C334.952 112.418 334.844 112.874 334.665 113.284C334.51 113.504 334.308 113.659 334.086 113.733C333.863 113.806 333.629 113.793 333.412 113.695L333.399 113.69C333.324 113.658 333.244 113.654 333.168 113.681C333.093 113.708 333.025 113.764 332.974 113.841C332.923 113.918 332.891 114.014 332.882 114.115C332.873 114.216 332.888 114.318 332.925 114.408L333.302 115.32C332.826 115.458 332.332 115.444 331.861 115.281C331.783 115.254 331.7 115.26 331.624 115.296C331.549 115.333 331.483 115.399 331.438 115.486C331.392 115.572 331.368 115.675 331.37 115.78C331.371 115.885 331.397 115.986 331.445 116.071C332.072 117.183 332.891 118.091 333.837 118.721C334.782 119.35 335.828 119.686 336.891 119.699C338.4 119.687 339.923 119.014 341.391 119.463C341.959 119.637 342.49 119.974 342.944 120.448C343.399 120.922 343.766 121.523 344.018 122.205C344.27 122.887 344.401 123.633 344.401 124.389C344.402 125.146 344.272 125.892 344.021 126.575C344.472 125.936 345.343 126.087 345.805 126.714C346.017 127.049 346.174 127.438 346.266 127.855C346.358 128.272 346.383 128.71 346.339 129.14C346.216 130.458 345.914 131.737 345.447 132.919C347.231 132.848 348.954 132.069 350.386 130.687C351.817 129.306 352.886 127.389 353.45 125.194C354.013 123 354.043 120.634 353.536 118.417C353.029 116.2 352.009 114.237 350.614 112.795H350.614Z" fill="#2F2E41"/>
<path d="M82.3267 72.6281C93.7251 72.6281 102.965 60.6528 102.965 45.8805C102.965 31.1083 93.7251 19.133 82.3267 19.133C70.9283 19.133 61.688 31.1083 61.688 45.8805C61.688 60.6528 70.9283 72.6281 82.3267 72.6281Z" fill="#6C63FF"/>
<path d="M24.3197 125.447C13.9639 95.7602 14.3458 58.1313 30.4175 33.0806C35.7945 67.8175 50.4788 98.9698 71.8724 121.026C80.1468 129.493 90.0302 137.795 92.2906 151.14C93.6972 159.445 91.7035 168.228 88.2569 175.462C84.81 182.695 80.0055 188.646 75.2556 194.51L74.7227 196.517C54.0546 177.972 34.6755 155.133 24.3197 125.447Z" fill="#6C63FF"/>
<path d="M30.8649 33.4429C27.1662 59.6913 29.9139 87.6412 38.9041 111.69C40.8478 116.889 43.1686 121.944 46.2759 126.126C49.3845 130.309 53.1014 132.943 57.3771 134.56C61.286 136.04 65.4166 136.966 68.98 139.651C72.736 142.481 75.0669 147.229 75.975 152.674C77.086 159.337 76.2836 166.119 75.321 172.717C74.2523 180.042 73.0526 187.628 74.6013 194.992C74.789 195.884 73.7098 196.209 73.5224 195.319C70.828 182.507 76.0667 169.871 75.3344 156.991C74.9927 150.98 73.2514 145.067 69.2749 141.585C65.7977 138.54 61.5389 137.58 57.571 136.126C53.4047 134.6 49.6631 132.269 46.4793 128.403C43.2224 124.448 40.7442 119.5 38.7065 114.388C34.111 102.859 31.0816 90.1567 29.4788 77.3679C27.6358 62.6689 27.7465 47.6697 29.8061 33.0191C29.9339 32.1124 30.9918 32.5421 30.8649 33.4429H30.8649Z" fill="white"/>
<path d="M35.6637 104.073C32.3087 105.466 28.6808 105.269 25.4278 103.516C22.1748 101.762 19.5086 98.5678 17.9053 94.5022C17.583 93.6781 18.556 92.9904 18.8786 93.8156C20.3663 97.6051 22.8501 100.581 25.8819 102.205C28.9136 103.83 32.2936 103.996 35.4118 102.674C36.0896 102.388 36.3377 103.788 35.6637 104.073H35.6637Z" fill="white"/>
<path d="M55.3189 134.149C58.6714 125.888 59.4982 116.293 57.6346 107.278C57.4494 106.385 58.5286 106.059 58.7135 106.951C60.6393 116.338 59.7632 126.32 56.26 134.907C55.9256 135.725 54.9864 134.962 55.3189 134.149H55.3189Z" fill="white"/>
<path d="M29.0601 63.1354C30.4449 62.9468 31.7718 62.3153 32.9218 61.2978C34.0718 60.2803 35.0087 58.9086 35.6486 57.3058C35.9747 56.4826 36.9137 57.2458 36.5896 58.0636C35.8764 59.8302 34.8402 61.3435 33.5715 62.4714C32.3029 63.5992 30.8405 64.3072 29.312 64.5336C29.1693 64.5706 29.0211 64.5358 28.8975 64.4363C28.7739 64.3367 28.6842 64.18 28.6466 63.9978C28.6139 63.8124 28.6391 63.6179 28.7165 63.4564C28.7939 63.2949 28.9174 63.1795 29.0601 63.1354V63.1354Z" fill="white"/>
<path d="M115.531 33.3714C115.338 33.8929 115.146 34.4145 114.958 34.9466C112.399 41.9754 110.286 49.262 108.638 56.7344C108.503 57.3095 108.374 57.8949 108.252 58.4739C104.43 76.5314 103.228 95.3518 104.707 113.978C105.3 121.389 106.328 128.731 107.781 135.94C109.789 145.896 112.577 156.484 111.948 166.425C111.891 167.463 111.785 168.496 111.63 169.517L76.6532 197.204C76.5493 197.215 76.4499 197.237 76.3457 197.248L74.9882 198.436C74.8932 198.071 74.8007 197.69 74.7057 197.325C74.6499 197.114 74.602 196.896 74.5462 196.685C74.5115 196.542 74.4771 196.399 74.4395 196.272C74.4278 196.225 74.4165 196.177 74.4096 196.14C74.372 196.013 74.3474 195.891 74.3146 195.775C73.7932 193.645 73.2825 191.508 72.7824 189.362C72.7775 189.352 72.7775 189.352 72.7804 189.335C69.0021 172.971 66.2446 156.054 65.5561 139.133C65.5355 138.624 65.5096 138.104 65.505 137.583C65.2273 129.953 65.4312 122.307 66.1147 114.72C66.4993 110.568 67.0458 106.443 67.7522 102.362C69.593 91.822 72.7016 81.7228 76.9641 72.4347C85.4633 53.9206 98.4367 39.1353 114.314 33.7662C114.721 33.6292 115.12 33.4981 115.531 33.3714Z" fill="#6C63FF"/>
<path d="M115.723 34.009C100.576 52.0809 89.7855 76.5413 85.7916 102.758C84.9282 108.425 84.4329 114.272 84.9712 120.036C85.5098 125.802 87.2541 130.805 89.9164 135.433C92.3503 139.664 95.218 143.626 96.8159 148.55C98.5002 153.741 98.1555 159.351 96.3508 164.407C94.1428 170.594 90.3512 175.383 86.5177 179.899C82.2614 184.914 77.7792 190.036 75.5948 197.124C75.3302 197.982 74.3174 197.4 74.5817 196.542C78.3821 184.211 88.4349 178.21 93.8341 167.354C96.3535 162.288 97.7102 156.208 96.153 150.325C94.7913 145.18 91.8368 141.091 89.3438 136.834C86.7262 132.365 84.8216 127.584 84.0757 122.013C83.3127 116.314 83.6326 110.429 84.3805 104.758C86.0671 91.9666 89.5492 79.4609 94.2106 67.9992C99.5676 54.8248 106.624 42.9351 115.075 32.8445C115.598 32.2202 116.243 33.3888 115.723 34.009L115.723 34.009Z" fill="white"/>
<path d="M86.7429 94.1473C83.4168 92.6421 80.6119 89.6537 78.829 85.7157C77.0461 81.7776 76.4013 77.1465 77.0099 72.6493C77.1355 71.7399 78.2318 71.95 78.1061 72.8606C77.5334 77.0471 78.1343 81.3609 79.8003 85.0236C81.4664 88.6863 84.0877 91.4565 87.1914 92.8343C87.8656 93.1347 87.4133 94.446 86.743 94.1473H86.7429Z" fill="white"/>
<path d="M88.4643 133.498C94.9786 129.518 100.096 122.503 102.796 113.85C103.063 112.992 104.076 113.575 103.81 114.431C100.987 123.428 95.6496 130.715 88.8636 134.837C88.2166 135.23 87.8208 133.888 88.4643 133.498L88.4643 133.498Z" fill="white"/>
<path d="M100.488 56.3085C101.681 57.2385 103.034 57.7697 104.425 57.8546C105.816 57.9395 107.201 57.5753 108.457 56.7948C109.1 56.392 109.495 57.734 108.856 58.1342C107.466 58.9881 105.936 59.3879 104.399 59.2986C102.862 59.2092 101.365 58.6334 100.04 57.6216C99.9086 57.5397 99.8065 57.3963 99.754 57.2204C99.7016 57.0445 99.7028 56.8493 99.7574 56.6745C99.8174 56.501 99.9279 56.3653 100.065 56.2967C100.202 56.2282 100.354 56.2325 100.488 56.3085V56.3085Z" fill="white"/>
<path d="M198.332 92.9299C187.976 63.2435 188.358 25.6146 204.43 0.563965C209.807 35.3008 224.491 66.4531 245.885 88.5093C254.159 96.9767 264.042 105.278 266.303 118.624C267.709 126.928 265.716 135.711 262.269 142.945C258.822 150.179 254.018 156.129 249.268 161.993L248.735 164C228.067 145.455 208.688 122.616 198.332 92.9299Z" fill="#6C63FF"/>
<path d="M204.877 0.926168C201.178 27.1746 203.926 55.1245 212.916 79.173C214.86 84.3723 217.181 89.4273 220.288 93.6089C223.397 97.7924 227.114 100.426 231.389 102.044C235.298 103.523 239.429 104.449 242.992 107.134C246.748 109.964 249.079 114.712 249.987 120.158C251.098 126.82 250.296 133.603 249.333 140.2C248.264 147.525 247.065 155.112 248.613 162.475C248.801 163.368 247.722 163.693 247.535 162.802C244.84 149.99 250.079 137.355 249.347 124.474C249.005 118.464 247.264 112.55 243.287 109.068C239.81 106.023 235.551 105.063 231.583 103.61C227.417 102.084 223.675 99.7527 220.491 95.8862C217.235 91.931 214.756 86.983 212.719 81.8709C208.123 70.3421 205.094 57.64 203.491 44.8512C201.648 30.1523 201.759 15.153 203.818 0.502403C203.946 -0.404309 205.004 0.0254038 204.877 0.926168H204.877Z" fill="white"/>
<path d="M209.676 71.556C206.321 72.9494 202.693 72.752 199.44 70.9989C196.187 69.2457 193.521 66.0511 191.917 61.9855C191.595 61.1614 192.568 60.4737 192.891 61.2989C194.378 65.0884 196.862 68.0639 199.894 69.6884C202.926 71.3129 206.306 71.4793 209.424 70.1577C210.102 69.8715 210.35 71.2714 209.676 71.556V71.556Z" fill="white"/>
<path d="M229.331 101.632C232.684 93.3715 233.51 83.7768 231.647 74.7612C231.462 73.8681 232.541 73.5427 232.726 74.4346C234.652 83.8212 233.775 93.8037 230.272 102.39C229.938 103.208 228.999 102.446 229.331 101.632H229.331Z" fill="white"/>
<path d="M203.072 30.6187C204.457 30.4301 205.784 29.7987 206.934 28.7811C208.084 27.7636 209.021 26.3919 209.661 24.7891C209.987 23.9659 210.926 24.7291 210.602 25.547C209.889 27.3135 208.852 28.8268 207.584 29.9547C206.315 31.0825 204.853 31.7906 203.324 32.017C203.181 32.0539 203.033 32.0191 202.91 31.9196C202.786 31.8201 202.696 31.6633 202.659 31.4811C202.626 31.2957 202.651 31.1012 202.729 30.9397C202.806 30.7782 202.93 30.6629 203.072 30.6187V30.6187Z" fill="white"/>
<path d="M289.543 0.85474C289.351 1.37626 289.158 1.89778 288.97 2.42995C286.412 9.45874 284.298 16.7453 282.65 24.2177C282.516 24.7928 282.386 25.3783 282.264 25.9572C278.442 44.0148 277.24 62.8351 278.719 81.4615C279.312 88.8727 280.34 96.2146 281.794 103.424C283.801 113.379 286.589 123.967 285.96 133.908C285.903 134.946 285.797 135.979 285.642 137L250.665 164.687C250.561 164.698 250.462 164.72 250.358 164.732L249 165.92C248.905 165.555 248.813 165.174 248.718 164.809C248.662 164.597 248.614 164.38 248.558 164.168C248.524 164.025 248.489 163.882 248.452 163.755C248.44 163.708 248.429 163.66 248.422 163.623C248.384 163.497 248.36 163.374 248.327 163.258C247.805 161.129 247.295 158.991 246.795 156.845C246.79 156.835 246.79 156.835 246.793 156.818C243.014 140.454 240.257 123.537 239.568 106.616C239.548 106.107 239.522 105.588 239.517 105.066C239.239 97.4364 239.443 89.7902 240.127 82.2037C240.511 78.0511 241.058 73.9264 241.764 69.8454C243.605 59.3053 246.714 49.2061 250.976 39.918C259.475 21.4039 272.449 6.6186 288.327 1.24951C288.733 1.11254 289.132 0.981361 289.543 0.85474Z" fill="#6C63FF"/>
<path d="M289.735 1.49197C274.588 19.5639 263.798 44.0243 259.804 70.2405C258.94 75.9084 258.445 81.7555 258.983 87.5188C259.522 93.2847 261.266 98.2876 263.929 102.916C266.362 107.147 269.23 111.109 270.828 116.033C272.512 121.224 272.168 126.834 270.363 131.89C268.155 138.077 264.363 142.866 260.53 147.382C256.274 152.397 251.791 157.519 249.607 164.607C249.342 165.465 248.33 164.883 248.594 164.025C252.394 151.694 262.447 145.692 267.846 134.837C270.366 129.771 271.722 123.691 270.165 117.808C268.803 112.663 265.849 108.574 263.356 104.317C260.738 99.8479 258.834 95.0673 258.088 89.4958C257.325 83.7966 257.645 77.9121 258.393 72.2405C260.079 59.4496 263.561 46.9439 268.223 35.4821C273.58 22.3077 280.636 10.4181 289.087 0.32748C289.61 -0.296783 290.255 0.871805 289.735 1.49199L289.735 1.49197Z" fill="white"/>
<path d="M260.755 61.6306C257.429 60.1254 254.624 57.137 252.841 53.199C251.058 49.2609 250.414 44.6298 251.022 40.1326C251.148 39.2232 252.244 39.4333 252.118 40.3439C251.546 44.5304 252.146 48.8442 253.812 52.5069C255.479 56.1696 258.1 58.9398 261.204 60.3176C261.878 60.618 261.425 61.9293 260.755 61.6306H260.755Z" fill="white"/>
<path d="M262.476 100.981C268.991 97.0016 274.108 89.9859 276.809 81.3333C277.076 80.4757 278.088 81.0579 277.822 81.9144C274.999 90.9117 269.662 98.1986 262.876 102.321C262.229 102.713 261.833 101.372 262.476 100.981L262.476 100.981Z" fill="white"/>
<path d="M274.5 23.7918C275.694 24.7218 277.046 25.253 278.437 25.3379C279.828 25.4228 281.214 25.0586 282.469 24.2781C283.112 23.8754 283.507 25.2174 282.868 25.6175C281.478 26.4715 279.948 26.8712 278.411 26.7819C276.874 26.6925 275.378 26.1167 274.052 25.1049C273.921 25.0231 273.819 24.8796 273.766 24.7037C273.714 24.5278 273.715 24.3326 273.77 24.1578C273.83 23.9843 273.94 23.8486 274.077 23.7801C274.214 23.7115 274.366 23.7158 274.5 23.7918Z" fill="white"/>
<path d="M66.3418 313.094L70.1647 316.931L85.0282 320.274L101.549 267.051C101.549 267.051 111.666 226.033 139.993 234.425L231.046 232.327C231.046 232.327 259.003 228.614 263.623 245.701C264.498 248.937 288.106 320.437 288.106 320.437L304.658 317.409L302.675 256.452L263.362 138.186L195.03 132.656L124.616 138.973L66.3418 313.094Z" fill="#3F3D56"/>
<path d="M142.017 238.096C156.544 238.096 168.321 222.833 168.321 204.006C168.321 185.179 156.544 169.916 142.017 169.916C127.489 169.916 115.713 185.179 115.713 204.006C115.713 222.833 127.489 238.096 142.017 238.096Z" fill="#2F2E41"/>
<path d="M230.237 238.096C244.764 238.096 256.541 222.833 256.541 204.006C256.541 185.179 244.764 169.916 230.237 169.916C215.71 169.916 203.933 185.179 203.933 204.006C203.933 222.833 215.71 238.096 230.237 238.096Z" fill="#2F2E41"/>
<path d="M111.261 92.2955L122.092 89.5431C122.092 89.5431 203.636 74.4637 255.179 92.2955L251.28 106.456L114.903 105.407L111.261 92.2955Z" fill="#E6E6E6"/>
<path d="M221.208 165.458H152.004C143.602 165.458 136.34 157.918 134.737 147.528L127.163 98.4367C126.996 97.3654 127.002 96.2605 127.183 95.1928C127.363 94.125 127.714 93.1177 128.212 92.2353C128.732 91.3095 129.394 90.5323 130.156 89.952C130.919 89.3717 131.765 89.0007 132.642 88.8619C169.141 82.9904 205.283 82.9804 240.064 88.8314C240.93 88.9688 241.764 89.3354 242.515 89.9084C243.266 90.4815 243.918 91.2488 244.431 92.1626C244.926 93.0323 245.277 94.0246 245.463 95.0777C245.649 96.1309 245.666 97.2224 245.512 98.2843L238.521 147.226C237.012 157.79 229.731 165.458 221.208 165.458Z" fill="#6C63FF"/>
<path d="M80.4771 100.288L80.7785 93.2627C80.8255 92.1683 81.0764 91.1049 81.5097 90.1635C81.9431 89.2222 82.546 88.4309 83.2668 87.8575C87.6363 84.3835 99.423 76.7347 114.464 80.7443C115.521 81.0276 116.484 81.7256 117.223 82.7433C117.963 83.7611 118.443 85.0492 118.597 86.4327L119 90.0881L80.4771 100.288Z" fill="#3F3D56"/>
<path d="M292.586 100.288L254.063 90.088L254.71 84.2155C254.785 83.522 255.018 82.8733 255.379 82.3528C255.741 81.8323 256.214 81.4638 256.738 81.2946C274.085 75.6528 287.363 85.6719 291.019 88.877C291.366 89.1824 291.654 89.587 291.861 90.0596C292.068 90.5322 292.189 91.0602 292.214 91.6028L292.586 100.288Z" fill="#3F3D56"/>
<path d="M68.2457 317.676C67.3173 317.689 66.4056 317.356 65.6186 316.718C55.3038 308.912 48.8732 294.607 46.52 274.212C44.5763 257.366 45.388 236.221 48.9325 211.364C55.2167 167.295 68.3877 123.246 73.7588 106.353C74.4704 104.124 75.5761 102.142 76.9869 100.567C78.3977 98.9926 80.0741 97.8695 81.8811 97.2884C92.9538 93.7587 112.283 87.8376 117.331 87.8376C124.249 87.8376 127.992 96.2774 128.03 96.3626L128.05 96.4323L134.126 130.575V131.068C137.477 145.765 134.987 156.381 132.306 162.7C129.396 169.558 125.63 172.982 125.593 173.016C119.68 178.85 110.047 197.643 100.46 222.055C90.4973 247.424 83.1119 272.457 80.7044 289.018C77.7576 309.288 73.4379 315.493 70.3331 317.129C69.6713 317.486 68.9623 317.671 68.2457 317.676V317.676Z" fill="#E6E6E6"/>
<path d="M218.927 161.262H153.539C149.68 161.255 145.942 159.512 142.964 156.331C139.986 153.149 137.953 148.726 137.212 143.818L130.056 96.0725C129.897 95.0156 129.907 93.9278 130.085 92.8761C130.264 91.8244 130.606 90.8313 131.092 89.9579C131.578 89.0846 132.197 88.3497 132.911 87.7986C133.625 87.2474 134.418 86.8918 135.242 86.7535C169.73 81.0431 203.881 81.0334 236.746 86.7238C237.558 86.8672 238.34 87.2222 239.043 87.7676C239.747 88.3129 240.358 89.0373 240.84 89.8971C241.322 90.7568 241.664 91.7341 241.847 92.77C242.029 93.8059 242.048 94.8789 241.902 95.9245L235.296 143.523C234.608 148.5 232.591 153.004 229.599 156.247C226.606 159.49 222.828 161.266 218.927 161.262V161.262Z" fill="#E6E6E6"/>
<path d="M304.819 317.676C304.102 317.672 303.392 317.486 302.73 317.129C299.625 315.493 295.306 309.288 292.359 289.018C289.951 272.457 282.566 247.424 272.603 222.055C263.016 197.643 253.383 178.85 247.463 173.009C247.433 172.982 243.667 169.558 240.757 162.7C238.076 156.381 235.586 145.765 238.938 131.068L238.943 130.516L245.019 96.3954L245.034 96.3627C245.071 96.2774 248.814 87.8376 255.732 87.8376C260.78 87.8376 280.109 93.7588 291.182 97.2884C292.989 97.8697 294.665 98.9928 296.076 100.567C297.487 102.142 298.593 104.124 299.304 106.353V106.353C304.676 123.246 317.847 167.295 324.131 211.364C327.675 236.221 328.487 257.366 326.543 274.212C324.19 294.607 317.759 308.912 307.43 316.73C306.647 317.362 305.741 317.69 304.819 317.676V317.676Z" fill="#E6E6E6"/>
<path d="M142.017 218.691C150.733 218.691 157.799 209.533 157.799 198.237C157.799 186.94 150.733 177.783 142.017 177.783C133.3 177.783 126.234 186.94 126.234 198.237C126.234 209.533 133.3 218.691 142.017 218.691Z" fill="#3F3D56"/>
<path d="M142.017 211.873C147.828 211.873 152.539 205.768 152.539 198.237C152.539 190.706 147.828 184.601 142.017 184.601C136.206 184.601 131.495 190.706 131.495 198.237C131.495 205.768 136.206 211.873 142.017 211.873Z" fill="#2F2E41"/>
<path d="M230.237 218.691C238.953 218.691 246.02 209.533 246.02 198.237C246.02 186.94 238.953 177.783 230.237 177.783C221.521 177.783 214.454 186.94 214.454 198.237C214.454 209.533 221.521 218.691 230.237 218.691Z" fill="#3F3D56"/>
<path d="M230.237 211.873C236.048 211.873 240.759 205.768 240.759 198.237C240.759 190.706 236.048 184.601 230.237 184.601C224.426 184.601 219.715 190.706 219.715 198.237C219.715 205.768 224.426 211.873 230.237 211.873Z" fill="#2F2E41"/>
<path d="M176.415 173.587C177.085 173.587 177.629 172.883 177.629 172.014C177.629 171.145 177.085 170.44 176.415 170.44C175.744 170.44 175.201 171.145 175.201 172.014C175.201 172.883 175.744 173.587 176.415 173.587Z" fill="#2F2E41"/>
<path d="M181.675 173.587C182.346 173.587 182.89 172.883 182.89 172.014C182.89 171.145 182.346 170.44 181.675 170.44C181.005 170.44 180.461 171.145 180.461 172.014C180.461 172.883 181.005 173.587 181.675 173.587Z" fill="#2F2E41"/>
<path d="M179.247 179.356C179.918 179.356 180.461 178.652 180.461 177.783C180.461 176.914 179.918 176.21 179.247 176.21C178.577 176.21 178.033 176.914 178.033 177.783C178.033 178.652 178.577 179.356 179.247 179.356Z" fill="#2F2E41"/>
<path d="M184.104 179.356C184.774 179.356 185.318 178.652 185.318 177.783C185.318 176.914 184.774 176.21 184.104 176.21C183.433 176.21 182.89 176.914 182.89 177.783C182.89 178.652 183.433 179.356 184.104 179.356Z" fill="#2F2E41"/>
<path d="M188.96 179.356C189.63 179.356 190.174 178.652 190.174 177.783C190.174 176.914 189.63 176.21 188.96 176.21C188.289 176.21 187.746 176.914 187.746 177.783C187.746 178.652 188.289 179.356 188.96 179.356Z" fill="#2F2E41"/>
<path d="M193.816 179.356C194.486 179.356 195.03 178.652 195.03 177.783C195.03 176.914 194.486 176.21 193.816 176.21C193.145 176.21 192.602 176.914 192.602 177.783C192.602 178.652 193.145 179.356 193.816 179.356Z" fill="#2F2E41"/>
<path d="M186.936 173.587C187.607 173.587 188.15 172.883 188.15 172.014C188.15 171.145 187.607 170.44 186.936 170.44C186.266 170.44 185.722 171.145 185.722 172.014C185.722 172.883 186.266 173.587 186.936 173.587Z" fill="#2F2E41"/>
<path d="M192.197 173.587C192.868 173.587 193.411 172.883 193.411 172.014C193.411 171.145 192.868 170.44 192.197 170.44C191.527 170.44 190.983 171.145 190.983 172.014C190.983 172.883 191.527 173.587 192.197 173.587Z" fill="#2F2E41"/>
<path d="M197.458 173.587C198.128 173.587 198.672 172.883 198.672 172.014C198.672 171.145 198.128 170.44 197.458 170.44C196.787 170.44 196.244 171.145 196.244 172.014C196.244 172.883 196.787 173.587 197.458 173.587Z" fill="#2F2E41"/>
<path d="M191.792 220.527H181.271C180.788 220.527 180.325 220.278 179.983 219.835C179.642 219.393 179.45 218.792 179.45 218.167C179.45 217.541 179.642 216.94 179.983 216.498C180.325 216.055 180.788 215.806 181.271 215.806H191.792C192.275 215.806 192.739 216.055 193.08 216.498C193.422 216.94 193.614 217.541 193.614 218.167C193.614 218.792 193.422 219.393 193.08 219.835C192.739 220.278 192.275 220.527 191.792 220.527Z" fill="#2F2E41"/>
<path d="M122.124 117.934C121.445 117.932 120.787 117.633 120.255 117.086C119.723 116.539 119.349 115.776 119.193 114.919L117.579 106.041C117.397 105.032 117.531 103.97 117.952 103.089C118.373 102.208 119.047 101.579 119.825 101.341C120.604 101.104 121.423 101.276 122.104 101.821C122.784 102.366 123.27 103.239 123.454 104.248L125.067 113.126C125.171 113.7 125.173 114.298 125.074 114.874C124.974 115.45 124.776 115.989 124.493 116.452C124.21 116.914 123.85 117.288 123.44 117.545C123.029 117.801 122.58 117.935 122.124 117.934V117.934Z" fill="#3F3D56"/>
<path d="M251.344 117.41C250.888 117.41 250.439 117.277 250.028 117.02C249.618 116.763 249.258 116.39 248.975 115.927C248.692 115.465 248.494 114.926 248.394 114.35C248.295 113.774 248.297 113.176 248.401 112.601L250.014 103.723C250.198 102.714 250.684 101.842 251.364 101.297C252.045 100.752 252.864 100.579 253.643 100.817C254.421 101.055 255.095 101.683 255.516 102.564C255.937 103.445 256.071 104.507 255.889 105.516L254.275 114.395C254.119 115.251 253.745 116.015 253.213 116.562C252.681 117.109 252.023 117.408 251.344 117.41V117.41Z" fill="#3F3D56"/>
<path d="M99.8609 144.14C98.8678 144.141 97.8988 143.745 97.0856 143.006L93.6986 139.933C93.0613 139.354 92.541 138.585 92.1817 137.691C91.8224 136.796 91.6346 135.803 91.6343 134.795V125.384C91.636 123.494 92.2159 121.683 93.2469 120.346C94.278 119.01 95.6759 118.259 97.134 118.256H102.322C103.78 118.259 105.178 119.01 106.209 120.346C107.24 121.683 107.82 123.494 107.821 125.384V134.887C107.82 135.869 107.641 136.838 107.299 137.714C106.957 138.591 106.462 139.352 105.853 139.936L102.732 142.917C101.9 143.712 100.894 144.141 99.8609 144.14V144.14Z" fill="#3F3D56"/>
<path d="M102.322 178.57H97.134C95.6759 178.567 94.278 177.816 93.247 176.48C92.2159 175.143 91.636 173.332 91.6343 171.442V162.031C91.6346 161.023 91.8224 160.029 92.1817 159.135C92.541 158.241 93.0613 157.472 93.6986 156.893L97.0856 153.82C97.9153 153.067 98.9066 152.67 99.9197 152.686C100.933 152.702 101.916 153.13 102.732 153.909L105.853 156.89C106.462 157.474 106.957 158.235 107.299 159.112C107.641 159.988 107.82 160.957 107.821 161.939V171.442C107.82 173.332 107.24 175.143 106.209 176.48C105.178 177.816 103.78 178.567 102.322 178.57V178.57Z" fill="#3F3D56"/>
<path d="M118.509 158.902H111.248C110.47 158.902 109.703 158.658 109.013 158.193C108.323 157.727 107.729 157.053 107.283 156.227L104.912 151.837C104.33 150.762 104.024 149.477 104.037 148.164C104.049 146.852 104.379 145.577 104.981 144.52L107.28 140.475C107.731 139.686 108.318 139.043 108.995 138.6C109.671 138.157 110.418 137.926 111.176 137.924H118.509C119.967 137.926 121.365 138.678 122.396 140.014C123.427 141.35 124.007 143.162 124.009 145.051V151.775C124.007 153.664 123.427 155.476 122.396 156.812C121.365 158.148 119.967 158.9 118.509 158.902V158.902Z" fill="#3F3D56"/>
<path d="M87.8035 158.902H80.5421C79.084 158.9 77.6861 158.148 76.6551 156.812C75.6241 155.476 75.0441 153.664 75.0424 151.775V145.051C75.0441 143.162 75.624 141.35 76.6551 140.014C77.6861 138.678 79.084 137.926 80.5421 137.924H87.8748C88.6328 137.926 89.3799 138.157 90.0564 138.6C90.7329 139.043 91.3199 139.686 91.7707 140.475L94.0705 144.52C94.672 145.577 95.0022 146.852 95.0145 148.164C95.0268 149.477 94.7207 150.762 94.1393 151.837L91.7683 156.227C91.3218 157.053 90.7284 157.727 90.0383 158.193C89.3481 158.658 88.5815 158.902 87.8035 158.902V158.902Z" fill="#3F3D56"/>
<path d="M273.538 133.728C278.678 133.728 282.845 128.327 282.845 121.665C282.845 115.003 278.678 109.603 273.538 109.603C268.397 109.603 264.23 115.003 264.23 121.665C264.23 128.327 268.397 133.728 273.538 133.728Z" fill="#3F3D56"/>
<path d="M294.176 161.525C299.317 161.525 303.484 156.124 303.484 149.462C303.484 142.8 299.317 137.399 294.176 137.399C289.036 137.399 284.869 142.8 284.869 149.462C284.869 156.124 289.036 161.525 294.176 161.525Z" fill="#3F3D56"/>
<path d="M273.538 187.748C278.678 187.748 282.845 182.347 282.845 175.685C282.845 169.023 278.678 163.622 273.538 163.622C268.397 163.622 264.23 169.023 264.23 175.685C264.23 182.347 268.397 187.748 273.538 187.748Z" fill="#3F3D56"/>
<path d="M252.899 161C258.039 161 262.207 155.599 262.207 148.937C262.207 142.275 258.039 136.875 252.899 136.875C247.759 136.875 243.591 142.275 243.591 148.937C243.591 155.599 247.759 161 252.899 161Z" fill="#3F3D56"/>
<path d="M294.176 157.329C292.976 157.329 291.802 156.867 290.804 156.003C289.806 155.139 289.028 153.91 288.568 152.472C288.109 151.035 287.989 149.453 288.223 147.927C288.457 146.401 289.035 144.999 289.884 143.899C290.733 142.799 291.815 142.05 292.992 141.746C294.17 141.443 295.39 141.598 296.499 142.194C297.609 142.789 298.557 143.798 299.224 145.091C299.891 146.385 300.247 147.906 300.247 149.462C300.245 151.548 299.605 153.547 298.467 155.022C297.329 156.497 295.786 157.326 294.176 157.329V157.329ZM294.176 142.644C293.136 142.644 292.119 143.044 291.254 143.793C290.388 144.542 289.714 145.607 289.316 146.853C288.918 148.099 288.814 149.469 289.017 150.792C289.22 152.115 289.721 153.329 290.456 154.283C291.192 155.236 292.13 155.886 293.15 156.149C294.171 156.412 295.228 156.277 296.19 155.761C297.151 155.245 297.973 154.371 298.551 153.25C299.129 152.129 299.437 150.81 299.437 149.462C299.436 147.654 298.881 145.921 297.895 144.643C296.908 143.365 295.571 142.646 294.176 142.644V142.644Z" fill="#E6E6E6"/>
<path d="M280.042 127.518L267.843 127.295L274.092 113.715L280.042 127.518ZM269.256 126.271L278.652 126.444L274.069 115.813L269.256 126.271Z" fill="#E6E6E6"/>
<path d="M257.755 155.231H248.043V142.644H257.755V155.231ZM248.852 154.182H256.946V143.693H248.852V154.182Z" fill="#E6E6E6"/>
<path d="M278.56 181.101L274.111 175.345L278.035 170.269L277.462 169.527L273.538 174.604L269.613 169.527L269.041 170.269L272.965 175.345L268.515 181.101L269.087 181.843L273.538 176.086L277.988 181.843L278.56 181.101Z" fill="#E6E6E6"/>
<path d="M99.8474 38.7261C98.6468 38.7261 97.4732 38.2648 96.4749 37.4003C95.4767 36.5359 94.6987 35.3072 94.2392 33.8697C93.7798 32.4323 93.6596 30.8505 93.8938 29.3244C94.128 27.7984 94.7062 26.3967 95.5551 25.2964C96.404 24.1962 97.4856 23.447 98.6631 23.1434C99.8406 22.8399 101.061 22.9957 102.17 23.5911C103.28 24.1865 104.228 25.1949 104.895 26.4886C105.562 27.7823 105.918 29.3033 105.918 30.8592C105.916 32.9449 105.276 34.9445 104.138 36.4194C103 37.8942 101.457 38.7238 99.8474 38.7261V38.7261ZM99.8474 24.0412C98.8069 24.0412 97.7897 24.4411 96.9246 25.1902C96.0595 25.9394 95.3852 27.0042 94.987 28.2501C94.5888 29.4959 94.4846 30.8668 94.6876 32.1893C94.8906 33.5119 95.3917 34.7267 96.1274 35.6803C96.8631 36.6338 97.8005 37.2831 98.821 37.5462C99.8415 37.8093 100.899 37.6743 101.861 37.1582C102.822 36.6422 103.644 35.7683 104.222 34.6471C104.8 33.5259 105.108 32.2077 105.108 30.8592C105.107 29.0516 104.552 27.3185 103.566 26.0404C102.579 24.7622 101.242 24.0432 99.8474 24.0412V24.0412Z" fill="#E6E6E6"/>
<path d="M86.1175 25.6983L73.9186 25.4748L80.1677 11.8948L86.1175 25.6983ZM75.3319 24.4514L84.7272 24.6238L80.1447 13.9927L75.3319 24.4514Z" fill="#E6E6E6"/>
<path d="M68.1629 44.8316H58.4506V32.2445H68.1629V44.8316ZM59.2599 43.7827H67.3535V33.2935H59.2599V43.7827Z" fill="#E6E6E6"/>
<path d="M76.947 68.2667L72.4975 62.5112L76.4213 57.436L75.8495 56.6934L71.9245 61.7702L67.9995 56.6934L67.4277 57.436L71.3515 62.5112L66.902 68.2667L67.4738 69.0093L71.9245 63.2523L76.3752 69.0093L76.947 68.2667Z" fill="#E6E6E6"/>
<path opacity="0.2" d="M351.034 180.667L335.326 195.989L353.057 185.912L351.034 180.667Z" fill="black"/>
<path d="M60.4741 199.548L40.6448 200.597L38.2167 183.29L55.2132 176.472L60.4741 199.548Z" fill="#A0616A"/>
<path d="M53.1837 157.132L48.7609 151.295L54.1838 140.549L63.4655 120.526C63.1623 119.663 63.0682 118.701 63.1958 117.768C63.3234 116.835 63.6666 115.974 64.1801 115.298C64.6936 114.623 65.3531 114.166 66.0714 113.987C66.7897 113.809 67.533 113.917 68.2028 114.297C68.8727 114.678 69.4377 115.313 69.8229 116.119C70.2082 116.925 70.3956 117.863 70.3604 118.81C70.3252 119.757 70.069 120.667 69.6258 121.422C69.1826 122.176 68.5731 122.737 67.8781 123.033L60.2169 144.41L53.1837 157.132Z" fill="#A0616A"/>
<path d="M48.2843 170.456C47.765 171.498 47.0251 172.324 46.153 172.836C45.2809 173.348 44.3136 173.523 43.3666 173.341C42.4653 173.203 41.6146 172.728 40.9191 171.972C40.2235 171.216 39.7134 170.214 39.4513 169.088C39.2582 168.288 39.202 167.444 39.2865 166.614C39.3711 165.784 39.5944 164.987 39.9408 164.28C42.8995 157.816 48.3564 149.279 48.4111 149.194L48.498 149.058L57.7018 151.643L48.2843 170.456Z" fill="#6C63FF"/>
<path d="M55.7478 313.509L61.247 313.509L63.8629 286.019L55.7466 286.019L55.7478 313.509Z" fill="#A0616A"/>
<path d="M54.3449 311.182L65.1749 311.182H65.1753C67.0057 311.182 68.7611 312.124 70.0554 313.802C71.3497 315.479 72.0769 317.754 72.077 320.126V320.417L54.3452 320.418L54.3449 311.182Z" fill="#2F2E41"/>
<path d="M12.9287 310.424L18.366 311.489L24.1237 284.815L16.9957 283.243L12.9287 310.424Z" fill="#A0616A"/>
<path d="M11.8101 307.851L22.5184 309.949L22.5189 309.949C24.3287 310.304 25.9557 311.576 27.0419 313.485C28.1282 315.394 28.5848 317.785 28.3113 320.13L28.2778 320.418L10.7451 316.983L11.8101 307.851Z" fill="#2F2E41"/>
<path d="M39.8353 195.352L58.8552 191.157L64.7403 206.878L64.9646 309.482L54.5258 309.398L50.1622 226.353L22.3516 303.088L11.1377 301.344L35.5841 219.086C35.5841 219.086 34.2384 204.553 38.4997 197.286L39.8353 195.352Z" fill="#2F2E41"/>
<path d="M32.7743 164.378C32.4836 163.247 32.4528 162.03 32.6855 160.876C32.9181 159.722 33.4044 158.68 34.0851 157.877L36.7881 154.693L44.4087 153.029L49.1735 151.907L56.8319 180.667L38.2315 191.743C36.5992 191.286 35.9471 190.129 36.8969 187.828L32.7743 164.378Z" fill="#6C63FF"/>
<path d="M49.8448 174.083L55.1657 169.682L62.1565 178.781L75.3526 194.692C76.0665 194.486 76.8119 194.565 77.4901 194.92C78.1683 195.275 78.7475 195.888 79.1509 196.679C79.5543 197.47 79.763 198.401 79.7494 199.348C79.7357 200.296 79.5004 201.216 79.0745 201.987C78.6486 202.758 78.0522 203.342 77.3642 203.664C76.6762 203.986 75.929 204.03 75.2215 203.789C74.514 203.549 73.8796 203.036 73.402 202.318C72.9244 201.6 72.6263 200.711 72.5471 199.768L57.9942 185.632L49.8448 174.083Z" fill="#A0616A"/>
<path d="M40.7997 165.114C40.1204 164.24 39.6496 163.131 39.4437 161.919C39.2378 160.708 39.3055 159.445 39.6386 158.282C39.9294 157.168 40.4647 156.188 41.179 155.462C41.8933 154.737 42.7554 154.297 43.6596 154.197C44.3029 154.118 44.9518 154.221 45.5611 154.5C46.1705 154.779 46.7255 155.227 47.1875 155.813C51.4553 160.901 56.7711 169.586 56.8242 169.673L56.9086 169.812L53.0539 180.947L40.7997 165.114Z" fill="#6C63FF"/>
<path d="M41.0643 149.53C45.6842 149.53 49.4294 144.676 49.4294 138.689C49.4294 132.702 45.6842 127.848 41.0643 127.848C36.4444 127.848 32.6992 132.702 32.6992 138.689C32.6992 144.676 36.4444 149.53 41.0643 149.53Z" fill="#A0616A"/>
<path d="M34.2918 154.134C32.9946 154.133 31.6986 154.031 30.411 153.827L30.2344 153.799L28.887 144.319C28.3155 140.3 28.9527 136.15 30.6677 132.721C32.3827 129.292 35.0455 126.843 38.1094 125.878C38.3139 125.811 38.5287 125.818 38.7302 125.899C38.9316 125.98 39.112 126.131 39.2514 126.336L39.5728 126.191C40.8031 125.635 42.1059 125.399 43.4068 125.495C44.7077 125.592 45.9812 126.019 47.1545 126.754C48.3279 127.488 49.3782 128.515 50.2453 129.775C51.1125 131.035 51.7797 132.505 52.2087 134.099L52.2883 134.396L50.1438 135.365C49.4756 135.667 48.8678 136.158 48.3645 136.803C47.8612 137.447 47.4751 138.229 47.2343 139.092C46.9935 139.954 46.9041 140.875 46.9726 141.788C47.041 142.701 47.2656 143.582 47.6299 144.369L49.8226 149.099L49.5891 149.251C44.8567 152.413 39.616 154.086 34.2918 154.134V154.134Z" fill="#2F2E41"/>
<path d="M321.678 199.5C321.775 198.894 321.973 198.323 322.259 197.827C322.545 197.331 322.911 196.922 323.331 196.629C323.752 196.336 324.217 196.166 324.694 196.131C325.171 196.097 325.648 196.198 326.091 196.428L333.699 185.064L335.326 192.592L327.852 202.229C327.505 203.169 326.903 203.911 326.162 204.314C325.421 204.718 324.591 204.755 323.83 204.419C323.069 204.082 322.43 203.396 322.033 202.489C321.637 201.583 321.51 200.519 321.678 199.5H321.678Z" fill="#FFB6B6"/>
<path d="M355.627 149.54L358.744 149.322L359.214 151.889C359.214 151.889 359.167 155.177 356.326 162.011C353.484 168.845 331.465 199.271 331.465 199.271L326.696 192.258L338.483 176.523L345.62 160.033L355.627 149.54Z" fill="#6C63FF"/>
<path d="M0.504639 321H370.495C370.629 321 370.758 320.931 370.852 320.808C370.947 320.686 371 320.519 371 320.346C371 320.173 370.947 320.006 370.852 319.884C370.758 319.761 370.629 319.692 370.495 319.692H0.504639C0.370801 319.692 0.242447 319.761 0.147809 319.884C0.0531716 320.006 0 320.173 0 320.346C0 320.519 0.0531716 320.686 0.147809 320.808C0.242447 320.931 0.370801 321 0.504639 321Z" fill="#CCCCCC"/>
</g>
<defs>
<clipPath id="clip0">
<rect width="371" height="321" fill="white"/>
</clipPath>
</defs>
</svg>
