<svg width="932" height="623" viewBox="0 0 932 623" fill="none" xmlns="http://www.w3.org/2000/svg">
<g id="undraw_goal_0v5v 1" clip-path="url(#clip0)">
<path id="Vector" d="M0.321712 52.9595C3.35128 77.6097 24.599 97.1286 29.6401 121.475C30.272 124.667 30.6585 127.898 30.7966 131.144C31.5214 145.127 28.6303 159.397 30.1206 173.403C32.8977 199.667 49.5685 220.192 70.7348 237.98C86.7459 251.401 105.331 263.207 122.425 274.632C165.946 303.743 206.764 340.496 224.64 388.361C236.555 420.279 237.467 454.966 246.214 487.812C254.96 520.658 274.881 554.268 308.548 564.741C344.683 575.986 384.499 557.239 421.684 564.648C461.59 572.602 489.89 608.715 529.267 618.915C579.295 631.876 629.153 600.028 680.509 593.392C705.169 590.202 730.269 592.908 755.059 590.865C782.656 588.567 809.377 580.439 833.299 567.065C841.443 562.488 849.676 556.865 853.463 548.552C856.721 541.37 856.224 533.182 855.222 525.407C851.476 496.554 841.997 465.189 856.908 439.829C870.663 416.435 903.997 399.7 899.053 373.287C896.081 357.387 879.76 347.459 864.629 340.34C833.421 325.656 800.177 314.161 772.284 294.33C752.331 280.122 735.147 260.299 727.818 238.003C724.812 229.09 723.575 219.716 724.169 210.367C725.195 195.628 730.521 179.08 721.237 167.281C717.214 162.166 711.049 159.023 704.852 156.621C681.478 147.575 655.515 147.053 631.213 140.627C622.882 138.449 614.874 135.262 607.384 131.144C592.562 122.925 580.631 110.814 577.748 95.0075C576.062 85.7432 577.561 75.6289 572.731 67.4408C564.587 53.5599 548.487 47.7581 530.505 45.8709C508.247 43.5314 483.041 47.1888 466.167 48.9902L464.481 49.1617C442.81 51.3219 421.318 46.7287 400.201 39.8039C377.397 32.3878 355.107 22.2969 333.42 15.1225C331.384 14.4467 329.353 13.7994 327.328 13.1807C311.496 8.35004 295.287 4.73837 278.855 2.38021C255.681 -0.959929 232.191 -1.82824 208.816 -0.208799C196.962 0.609078 185.166 2.07756 173.488 4.1894C170.056 4.81326 166.63 5.4813 163.21 6.19354C143.322 10.272 123.541 15.2551 103.254 15.5514C101.796 15.5514 100.33 15.5514 98.8723 15.5514C74.6765 15.1537 49.935 9.26604 26.977 16.378C16.5364 19.6299 6.52744 26.0244 2.32514 35.7254C-0.0121932 41.1296 -0.386817 47.1576 0.321712 52.9595Z" fill="#6C63FF"/>
<path id="Vector_2" d="M809.433 60.0229V362.586L793.145 352.448V60.0229H783.372L779.3 342.311L763.826 331.393L774.414 56.1238" stroke="#E0E0E0" stroke-miterlimit="10"/>
<path id="Vector_3" d="M829.801 81.8579L763.834 85.3671" stroke="#E0E0E0" stroke-miterlimit="10"/>
<path id="Vector_4" d="M825.729 97.4544L763.834 99.7938" stroke="#E0E0E0" stroke-miterlimit="10"/>
<path id="Vector_5" d="M825.729 116.17L763.834 117.73" stroke="#E0E0E0" stroke-miterlimit="10"/>
<path id="Vector_6" d="M825.729 133.326L763.834 135.666" stroke="#E0E0E0" stroke-miterlimit="10"/>
<path id="Vector_7" d="M825.729 152.822H761.391" stroke="#E0E0E0" stroke-miterlimit="10"/>
<path id="Vector_8" d="M825.729 172.317L759.762 169.978" stroke="#E0E0E0" stroke-miterlimit="10"/>
<path id="Vector_9" d="M825.729 190.253L759.762 187.134" stroke="#E0E0E0" stroke-miterlimit="10"/>
<path id="Vector_10" d="M825.729 209.749L759.762 205.07" stroke="#E0E0E0" stroke-miterlimit="10"/>
<path id="Vector_11" d="M827.358 226.905L757.319 220.666" stroke="#E0E0E0" stroke-miterlimit="10"/>
<path id="Vector_12" d="M827.358 246.4L757.319 236.263" stroke="#E0E0E0" stroke-miterlimit="10"/>
<path id="Vector_13" d="M827.358 269.015L754.876 256.538" stroke="#E0E0E0" stroke-miterlimit="10"/>
<path id="Vector_14" d="M827.358 294.749L754.876 274.474" stroke="#E0E0E0" stroke-miterlimit="10"/>
<path id="Vector_15" d="M828.986 321.263L752.433 292.41" stroke="#E0E0E0" stroke-miterlimit="10"/>
<path id="Vector_16" d="M828.986 345.438L752.433 309.566" stroke="#E0E0E0" stroke-miterlimit="10"/>
<path id="Vector_17" d="M745.909 59.2431L732.879 325.155H715.777L726.364 59.2431H707.633L695.417 325.155H676.685L687.273 59.2431H664.469L656.325 325.155H635.965L644.924 61.5826H623.749L618.863 325.155H600.132L605.833 59.2431H587.101L583.029 325.155H565.113L569.185 59.2431H548.01V325.155H526.836V59.2431H507.29L510.548 325.155H493.445L488.559 59.2431H469.013L475.529 325.155H458.426L450.282 59.2431H433.18L439.695 325.155H424.221L412.005 59.2431H395.717L408.748 325.155H392.46L374.543 59.2431H354.997L377.8 325.155H362.327L340.338 59.2431H324.864L347.668 325.155H330.565L308.576 56.1238H293.103L318.349 325.155H302.061L276 56.1238" stroke="#E0E0E0" stroke-miterlimit="10"/>
<path id="Vector_18" d="M239.352 60.0229L263.784 329.834L251.568 339.191L232.837 60.0229H219.807L232.837 349.329L214.106 361.026L206.784 56.1238" stroke="#E0E0E0" stroke-miterlimit="10"/>
<path id="Vector_19" d="M188.868 90.436H263.793" stroke="#E0E0E0" stroke-miterlimit="10"/>
<path id="Vector_20" d="M188.868 109.932H263.793" stroke="#E0E0E0" stroke-miterlimit="10"/>
<path id="Vector_21" d="M188.868 131.767L263.793 129.427" stroke="#E0E0E0" stroke-miterlimit="10"/>
<path id="Vector_22" d="M188.868 150.482L267.05 146.583" stroke="#E0E0E0" stroke-miterlimit="10"/>
<path id="Vector_23" d="M188.868 171.538L267.05 168.418" stroke="#E0E0E0" stroke-miterlimit="10"/>
<path id="Vector_24" d="M188.868 194.152L270.308 190.253" stroke="#E0E0E0" stroke-miterlimit="10"/>
<path id="Vector_25" d="M188.868 215.987L270.308 208.189" stroke="#E0E0E0" stroke-miterlimit="10"/>
<path id="Vector_26" d="M188.868 240.942L270.308 222.226" stroke="#E0E0E0" stroke-miterlimit="10"/>
<path id="Vector_27" d="M188.868 262.777L273.565 235.483" stroke="#E0E0E0" stroke-miterlimit="10"/>
<path id="Vector_28" d="M188.868 285.392L273.565 254.199" stroke="#E0E0E0" stroke-miterlimit="10"/>
<path id="Vector_29" d="M186.424 307.227L270.739 273.343" stroke="#E0E0E0" stroke-miterlimit="10"/>
<path id="Vector_30" d="M186.424 332.181L273.565 290.07" stroke="#E0E0E0" stroke-miterlimit="10"/>
<path id="Vector_31" d="M186.424 354.796L276.009 307.227" stroke="#E0E0E0" stroke-miterlimit="10"/>
<path id="Vector_32" d="M763.834 81.8579L263.792 85.7571" stroke="#E0E0E0" stroke-miterlimit="10"/>
<path id="Vector_33" d="M763.427 95.8947L263.385 99.7939" stroke="#E0E0E0" stroke-miterlimit="10"/>
<path id="Vector_34" d="M763.02 109.932L262.978 113.831" stroke="#E0E0E0" stroke-miterlimit="10"/>
<path id="Vector_35" d="M762.613 123.968L262.571 127.867" stroke="#E0E0E0" stroke-miterlimit="10"/>
<path id="Vector_36" d="M762.206 138.005L262.164 141.904" stroke="#E0E0E0" stroke-miterlimit="10"/>
<path id="Vector_37" d="M761.799 152.042L268.272 155.941" stroke="#E0E0E0" stroke-miterlimit="10"/>
<path id="Vector_38" d="M761.391 166.079L267.864 169.978" stroke="#E0E0E0" stroke-miterlimit="10"/>
<path id="Vector_39" d="M760.984 180.116L267.457 184.015" stroke="#E0E0E0" stroke-miterlimit="10"/>
<path id="Vector_40" d="M760.577 194.152L267.05 198.051" stroke="#E0E0E0" stroke-miterlimit="10"/>
<path id="Vector_41" d="M760.17 208.189L271.529 212.088" stroke="#E0E0E0" stroke-miterlimit="10"/>
<path id="Vector_42" d="M759.762 222.226L271.122 226.125" stroke="#E0E0E0" stroke-miterlimit="10"/>
<path id="Vector_43" d="M759.355 236.263L270.715 240.162" stroke="#E0E0E0" stroke-miterlimit="10"/>
<path id="Vector_44" d="M758.948 250.3L273.565 254.199" stroke="#E0E0E0" stroke-miterlimit="10"/>
<path id="Vector_45" d="M758.541 264.336L273.158 268.235" stroke="#E0E0E0" stroke-miterlimit="10"/>
<path id="Vector_46" d="M758.134 278.373L275.194 282.272" stroke="#E0E0E0" stroke-miterlimit="10"/>
<path id="Vector_47" d="M757.726 292.41L274.787 296.309" stroke="#E0E0E0" stroke-miterlimit="10"/>
<path id="Vector_48" d="M757.319 306.447L274.38 310.346" stroke="#E0E0E0" stroke-miterlimit="10"/>
<path id="Vector_49" d="M828.978 375.843L754.868 325.155H273.557L188.868 375.843" stroke="#E0E0E0" stroke-width="3" stroke-miterlimit="10"/>
<path id="Vector_50" d="M833.58 320.998C833.58 320.998 835.461 267.768 865.529 237.705C878.23 225.168 886.34 209.023 888.641 191.696C889.668 183.465 889.905 175.162 889.35 166.89" stroke="#535461" stroke-width="2" stroke-miterlimit="10"/>
<path id="Vector_51" d="M908.179 147.839C906.118 153.781 888.918 167.443 888.918 167.443C888.918 167.443 883.649 146.638 885.709 140.696C886.73 137.88 888.866 135.563 891.657 134.245C894.448 132.926 897.669 132.713 900.623 133.65C903.576 134.588 906.026 136.602 907.442 139.255C908.857 141.909 909.125 144.99 908.187 147.831L908.179 147.839Z" fill="#6C63FF"/>
<path id="Vector_52" d="M915.354 186.658C910.255 190.557 888.055 193.092 888.055 193.092C888.055 193.092 895.441 172.887 900.54 168.972C901.748 168.003 903.146 167.274 904.653 166.829C906.159 166.384 907.743 166.231 909.311 166.38C910.88 166.528 912.402 166.976 913.788 167.695C915.174 168.414 916.396 169.392 917.382 170.569C918.368 171.747 919.099 173.101 919.532 174.552C919.964 176.004 920.089 177.523 919.901 179.022C919.712 180.521 919.212 181.968 918.431 183.279C917.651 184.59 916.604 185.739 915.354 186.658V186.658Z" fill="#6C63FF"/>
<path id="Vector_53" d="M895.059 242.657C888.592 243.57 868.102 235.015 868.102 235.015C868.102 235.015 885.131 221.142 891.598 220.198C894.667 219.833 897.765 220.632 900.227 222.425C902.689 224.218 904.321 226.863 904.773 229.793C905.225 232.723 904.462 235.706 902.647 238.105C900.831 240.503 898.108 242.126 895.059 242.626V242.657Z" fill="#6C63FF"/>
<path id="Vector_54" d="M869.739 281.711C863.525 283.66 841.821 278.537 841.821 278.537C841.821 278.537 856.155 262.114 862.369 260.157C863.855 259.659 865.43 259.451 867.002 259.543C868.574 259.636 870.11 260.027 871.522 260.696C872.934 261.364 874.192 262.295 875.223 263.434C876.254 264.573 877.038 265.898 877.528 267.331C878.018 268.764 878.205 270.276 878.078 271.779C877.95 273.282 877.511 274.745 876.785 276.083C876.06 277.422 875.063 278.608 873.853 279.573C872.644 280.538 871.245 281.262 869.739 281.703V281.711Z" fill="#6C63FF"/>
<path id="Vector_55" d="M864.055 186.728C867.076 192.281 886.328 203.159 886.328 203.159C886.328 203.159 888.079 181.823 885.066 176.263C884.348 174.942 883.366 173.769 882.175 172.812C880.984 171.854 879.608 171.131 878.125 170.683C876.642 170.234 875.081 170.07 873.532 170.199C871.983 170.329 870.475 170.749 869.096 171.436C867.716 172.123 866.491 173.064 865.491 174.204C864.491 175.345 863.736 176.662 863.267 178.083C862.799 179.503 862.628 180.997 862.763 182.48C862.898 183.964 863.337 185.407 864.055 186.728V186.728Z" fill="#6C63FF"/>
<path id="Vector_56" d="M835.054 232.785C839.671 237.222 861.44 242.08 861.44 242.08C861.44 242.08 856.448 221.22 851.83 216.783C849.602 214.708 846.612 213.556 843.504 213.574C840.396 213.592 837.421 214.779 835.219 216.879C833.017 218.979 831.766 221.824 831.735 224.799C831.704 227.775 832.896 230.643 835.054 232.785V232.785Z" fill="#6C63FF"/>
<path id="Vector_57" d="M813.277 281.235C817.039 286.351 837.644 294.664 837.644 294.664C837.644 294.664 836.406 273.289 832.635 268.15C831.746 266.918 830.61 265.866 829.294 265.057C827.979 264.247 826.508 263.695 824.968 263.433C823.428 263.17 821.849 263.202 820.322 263.528C818.795 263.853 817.351 264.464 816.072 265.327C814.794 266.19 813.706 267.287 812.873 268.554C812.04 269.821 811.477 271.234 811.217 272.711C810.957 274.188 811.005 275.7 811.358 277.159C811.712 278.618 812.364 279.995 813.277 281.212V281.235Z" fill="#6C63FF"/>
<path id="Vector_58" d="M845.796 368.567C845.796 368.567 847.677 315.337 877.745 285.275C890.446 272.737 898.556 256.593 900.857 239.265C901.884 231.034 902.121 222.731 901.566 214.459" stroke="#535461" stroke-width="2" stroke-miterlimit="10"/>
<path id="Vector_59" d="M920.395 195.408C918.334 201.35 901.134 215.013 901.134 215.013C901.134 215.013 895.865 194.207 897.925 188.265C898.946 185.45 901.082 183.132 903.873 181.814C906.664 180.495 909.885 180.282 912.839 181.22C915.792 182.157 918.242 184.171 919.658 186.824C921.073 189.478 921.341 192.559 920.403 195.4L920.395 195.408Z" fill="#6C63FF"/>
<path id="Vector_60" d="M927.57 234.227C922.472 238.127 900.271 240.661 900.271 240.661C900.271 240.661 907.658 220.456 912.756 216.541C913.964 215.572 915.362 214.843 916.869 214.398C918.375 213.953 919.959 213.8 921.527 213.949C923.096 214.098 924.618 214.545 926.004 215.264C927.39 215.984 928.612 216.961 929.598 218.138C930.584 219.316 931.315 220.67 931.748 222.121C932.18 223.573 932.305 225.093 932.117 226.591C931.928 228.09 931.428 229.537 930.647 230.848C929.867 232.16 928.82 233.308 927.57 234.227V234.227Z" fill="#6C63FF"/>
<path id="Vector_61" d="M907.275 290.226C900.808 291.139 880.318 282.584 880.318 282.584C880.318 282.584 897.347 268.711 903.814 267.768C906.883 267.402 909.981 268.201 912.443 269.994C914.905 271.787 916.537 274.432 916.989 277.362C917.441 280.292 916.678 283.276 914.863 285.674C913.047 288.072 910.324 289.695 907.275 290.195V290.226Z" fill="#6C63FF"/>
<path id="Vector_62" d="M881.955 329.28C875.741 331.23 854.037 326.106 854.037 326.106C854.037 326.106 868.371 309.683 874.585 307.726C876.071 307.228 877.646 307.02 879.218 307.112C880.79 307.205 882.326 307.597 883.738 308.265C885.15 308.933 886.408 309.864 887.439 311.003C888.47 312.142 889.254 313.467 889.744 314.9C890.234 316.333 890.421 317.845 890.294 319.348C890.166 320.851 889.727 322.314 889.002 323.652C888.276 324.991 887.279 326.177 886.07 327.142C884.86 328.107 883.461 328.831 881.955 329.272V329.28Z" fill="#6C63FF"/>
<path id="Vector_63" d="M876.271 234.298C879.292 239.85 898.544 250.728 898.544 250.728C898.544 250.728 900.295 229.393 897.282 223.832C895.833 221.164 893.336 219.157 890.341 218.252C887.346 217.346 884.098 217.618 881.312 219.005C878.525 220.393 876.429 222.784 875.483 225.652C874.538 228.52 874.821 231.63 876.271 234.298V234.298Z" fill="#6C63FF"/>
<path id="Vector_64" d="M847.27 280.354C851.887 284.791 873.656 289.649 873.656 289.649C873.656 289.649 868.664 268.789 864.046 264.352C861.818 262.277 858.828 261.125 855.72 261.143C852.612 261.161 849.637 262.348 847.435 264.448C845.233 266.548 843.982 269.393 843.951 272.369C843.92 275.344 845.112 278.212 847.27 280.354V280.354Z" fill="#6C63FF"/>
<path id="Vector_65" d="M825.493 328.804C829.255 333.92 849.859 342.233 849.859 342.233C849.859 342.233 848.622 320.858 844.851 315.719C843.962 314.487 842.826 313.435 841.51 312.626C840.194 311.816 838.724 311.264 837.184 311.002C835.644 310.739 834.065 310.772 832.538 311.097C831.011 311.422 829.567 312.034 828.288 312.896C827.01 313.759 825.922 314.856 825.089 316.123C824.256 317.391 823.693 318.804 823.433 320.281C823.173 321.757 823.221 323.269 823.574 324.728C823.928 326.187 824.58 327.565 825.493 328.781V328.804Z" fill="#6C63FF"/>
<path id="Vector_66" d="M177.051 84.0648C177.45 68.9753 188.363 55.7183 203.763 52.482L204.203 52.3963C204.825 52.2775 205.458 52.22 206.092 52.2247H815.589C820.091 52.1896 824.525 53.2716 828.46 55.3653C832.395 57.459 835.696 60.4929 838.042 64.1716L838.197 64.4289C839.093 65.9342 839.575 67.6327 839.598 69.3652L845.258 375.835H825.712L819.197 76.3836C819.197 76.3836 819.197 67.8056 811.053 67.0257C809.807 66.9088 794.692 66.823 769.999 66.7684L755.682 325.934H747.538L763.46 66.7606C654.9 66.5578 389.186 66.8152 265.861 66.9555L281.677 324.375H273.533L259.33 66.9633L212.387 67.0179C208.945 67.02 205.564 67.885 202.579 69.5267C199.594 71.1684 197.111 73.5297 195.375 76.3758L188.859 375.827H169.314L177.051 84.0648Z" fill="#E0E0E0"/>
<path id="Vector_67" d="M169.208 382.152C169.208 382.152 166.569 340.93 187.475 315.602C196.315 305.032 201.336 292.002 201.784 278.467C201.942 272.035 201.484 265.603 200.416 259.252" stroke="#535461" stroke-width="2" stroke-miterlimit="10"/>
<path id="Vector_68" d="M213.495 243.234C212.363 247.968 200.131 259.728 200.131 259.728C200.131 259.728 194.43 244.038 195.595 239.312C195.862 238.185 196.358 237.12 197.056 236.178C197.753 235.235 198.637 234.433 199.658 233.817C200.679 233.202 201.817 232.785 203.006 232.59C204.195 232.396 205.413 232.427 206.589 232.683C207.765 232.939 208.878 233.415 209.862 234.082C210.847 234.75 211.684 235.597 212.327 236.574C212.97 237.552 213.405 238.641 213.609 239.78C213.812 240.919 213.779 242.084 213.511 243.211L213.495 243.234Z" fill="#6C63FF"/>
<path id="Vector_69" d="M222.014 272.696C218.373 276.08 201.434 279.59 201.434 279.59C201.434 279.59 205.579 263.471 209.22 260.094C210.084 259.29 211.106 258.656 212.226 258.23C213.347 257.804 214.544 257.593 215.749 257.609C216.955 257.626 218.145 257.87 219.252 258.327C220.359 258.784 221.361 259.446 222.201 260.273C223.041 261.101 223.703 262.08 224.148 263.153C224.593 264.225 224.813 265.372 224.796 266.526C224.779 267.68 224.524 268.82 224.047 269.88C223.569 270.94 222.878 271.899 222.014 272.704V272.696Z" fill="#6C63FF"/>
<path id="Vector_70" d="M210.653 317.349C205.766 318.511 189.259 313.348 189.259 313.348C189.259 313.348 201.32 301.44 206.255 300.278C208.619 299.72 211.118 300.084 213.202 301.289C215.286 302.495 216.784 304.444 217.368 306.708C217.951 308.972 217.571 311.364 216.312 313.36C215.052 315.355 213.017 316.79 210.653 317.349Z" fill="#6C63FF"/>
<path id="Vector_71" d="M194.104 349.282C189.454 351.224 172.311 348.799 172.311 348.799C172.311 348.799 182.084 335.105 186.758 333.202C187.868 332.713 189.068 332.441 190.288 332.402C191.509 332.363 192.725 332.557 193.866 332.974C195.007 333.39 196.05 334.021 196.934 334.828C197.817 335.636 198.523 336.604 199.011 337.676C199.499 338.748 199.758 339.902 199.774 341.072C199.79 342.241 199.562 343.401 199.103 344.485C198.645 345.569 197.965 346.554 197.104 347.384C196.243 348.213 195.217 348.869 194.088 349.314L194.104 349.282Z" fill="#6C63FF"/>
<path id="Vector_72" d="M182.426 276.408C185.178 280.487 200.88 287.521 200.88 287.521C200.88 287.521 200.595 270.926 197.834 266.847C196.51 264.891 194.429 263.518 192.048 263.031C189.666 262.544 187.181 262.983 185.138 264.251C183.094 265.518 181.661 267.512 181.152 269.791C180.644 272.071 181.102 274.452 182.426 276.408V276.408Z" fill="#6C63FF"/>
<path id="Vector_73" d="M163.572 313.956C167.473 317.076 184.657 319.275 184.657 319.275C184.657 319.275 179.201 303.522 175.292 300.419C174.363 299.682 173.292 299.127 172.14 298.787C170.988 298.446 169.777 298.326 168.577 298.434C167.376 298.541 166.21 298.874 165.143 299.414C164.077 299.953 163.132 300.688 162.363 301.577C161.593 302.466 161.014 303.491 160.659 304.594C160.303 305.697 160.178 306.857 160.29 308.006C160.402 309.156 160.75 310.273 161.313 311.294C161.876 312.315 162.644 313.22 163.572 313.956V313.956Z" fill="#6C63FF"/>
<path id="Vector_74" d="M150.485 352.893C153.783 356.582 170.324 361.549 170.324 361.549C170.324 361.549 167.726 345.173 164.419 341.453C162.834 339.683 160.579 338.588 158.151 338.409C155.722 338.231 153.319 338.983 151.47 340.502C149.621 342.02 148.478 344.179 148.292 346.504C148.105 348.829 148.891 351.13 150.477 352.901L150.485 352.893Z" fill="#6C63FF"/>
<path id="Vector_75" opacity="0.5" d="M213.495 243.234C212.363 247.968 200.131 259.728 200.131 259.728C200.131 259.728 194.43 244.038 195.595 239.312C195.862 238.185 196.358 237.12 197.056 236.178C197.753 235.235 198.637 234.433 199.658 233.817C200.679 233.202 201.817 232.785 203.006 232.59C204.195 232.396 205.413 232.427 206.589 232.683C207.765 232.939 208.878 233.415 209.862 234.082C210.847 234.75 211.684 235.597 212.327 236.574C212.97 237.552 213.405 238.641 213.609 239.78C213.812 240.919 213.779 242.084 213.511 243.211L213.495 243.234Z" fill="white"/>
<path id="Vector_76" opacity="0.5" d="M222.014 272.696C218.373 276.08 201.434 279.59 201.434 279.59C201.434 279.59 205.579 263.471 209.22 260.094C210.084 259.29 211.106 258.656 212.226 258.23C213.347 257.804 214.544 257.593 215.749 257.609C216.955 257.626 218.145 257.87 219.252 258.327C220.359 258.784 221.361 259.446 222.201 260.273C223.041 261.101 223.703 262.08 224.148 263.153C224.593 264.225 224.813 265.372 224.796 266.526C224.779 267.68 224.524 268.82 224.047 269.88C223.569 270.94 222.878 271.899 222.014 272.704V272.696Z" fill="white"/>
<path id="Vector_77" opacity="0.5" d="M210.653 317.349C205.766 318.511 189.259 313.348 189.259 313.348C189.259 313.348 201.32 301.44 206.255 300.278C208.619 299.72 211.118 300.084 213.202 301.289C215.286 302.495 216.784 304.444 217.368 306.708C217.951 308.972 217.571 311.364 216.312 313.36C215.052 315.355 213.017 316.79 210.653 317.349Z" fill="white"/>
<path id="Vector_78" opacity="0.5" d="M194.104 349.282C189.454 351.224 172.311 348.799 172.311 348.799C172.311 348.799 182.084 335.105 186.758 333.202C187.868 332.713 189.068 332.441 190.288 332.402C191.509 332.363 192.725 332.557 193.866 332.974C195.007 333.39 196.05 334.021 196.934 334.828C197.817 335.636 198.523 336.604 199.011 337.676C199.499 338.748 199.758 339.902 199.774 341.072C199.79 342.241 199.562 343.401 199.103 344.485C198.645 345.569 197.965 346.554 197.104 347.384C196.243 348.213 195.217 348.869 194.088 349.314L194.104 349.282Z" fill="white"/>
<path id="Vector_79" opacity="0.5" d="M182.426 276.408C185.178 280.487 200.88 287.521 200.88 287.521C200.88 287.521 200.595 270.926 197.834 266.847C196.51 264.891 194.429 263.518 192.048 263.031C189.666 262.544 187.181 262.983 185.138 264.251C183.094 265.518 181.661 267.512 181.152 269.791C180.644 272.071 181.102 274.452 182.426 276.408V276.408Z" fill="white"/>
<path id="Vector_80" opacity="0.5" d="M163.572 313.956C167.473 317.076 184.657 319.275 184.657 319.275C184.657 319.275 179.201 303.522 175.292 300.419C174.363 299.682 173.292 299.127 172.14 298.787C170.988 298.446 169.777 298.326 168.577 298.434C167.376 298.541 166.21 298.874 165.143 299.414C164.077 299.953 163.132 300.688 162.363 301.577C161.593 302.466 161.014 303.491 160.659 304.594C160.303 305.697 160.178 306.857 160.29 308.006C160.402 309.156 160.75 310.273 161.313 311.294C161.876 312.315 162.644 313.22 163.572 313.956V313.956Z" fill="white"/>
<path id="Vector_81" opacity="0.5" d="M150.485 352.893C153.783 356.582 170.324 361.549 170.324 361.549C170.324 361.549 167.726 345.173 164.419 341.453C162.834 339.683 160.579 338.588 158.151 338.409C155.722 338.231 153.319 338.983 151.47 340.502C149.621 342.02 148.478 344.179 148.292 346.504C148.105 348.829 148.891 351.13 150.477 352.901L150.485 352.893Z" fill="white"/>
<g id="Group" opacity="0.1">
<path id="Vector_82" opacity="0.1" d="M311.264 223.652C311.166 223.536 311.117 223.458 311.117 223.458L311.264 223.652Z" fill="url(#paint0_linear)"/>
</g>
<path id="Vector_83" d="M526.746 245.472L526.885 245.651L526.746 245.472Z" fill="#D39999"/>
<g id="keeper">
<path id="Vector_84" d="M564.722 378L575.105 397.885C575.105 397.885 577.874 405.177 575.105 409.817C572.336 414.457 573.029 424.072 573.029 424.072C573.029 424.072 567.491 439.668 562.987 446.944C558.483 454.22 561.252 464.88 561.252 464.88L543.254 466.868C543.254 466.868 550.177 453.939 548.141 444.324C546.105 434.709 554.029 417.155 554.029 411.174C554.029 409.848 555.763 406.861 552.294 402.557C548.825 398.252 535.68 387.311 536.006 381.01L564.722 378Z" fill="#F7BBC3"/>
<path id="Vector_85" d="M474.888 376C474.888 376 468.242 384.812 467.468 393.39C467.236 396.068 466.689 398.713 465.84 401.274C464.817 404.251 464.727 407.45 465.579 410.476C466.264 412.898 466.717 415.375 466.931 417.876C467.358 422.7 468.55 427.433 470.465 431.913C473.633 439.376 477.795 449.561 478.039 451.612C478.389 454.926 480.116 462.88 480.116 462.88L493.961 467.855C493.961 467.855 489.807 458.24 489.807 448.96C489.807 439.68 492.576 430.4 484.921 415.147C484.921 415.147 484.571 411.17 487.364 405.204C490.158 399.239 500.867 383.658 500.867 383.658L474.888 376Z" fill="#F7BBC3"/>
<path id="Vector_86" d="M495.199 385.204C496.339 386.39 490.468 393.938 490.468 393.938C490.468 393.938 499.467 393.275 500.159 387.31C500.224 386.814 500.342 386.325 500.509 385.851C502.594 379.855 512.66 371.347 517.123 370.739C522.009 370.076 531.66 381.344 535.471 389.298C535.691 389.758 535.911 390.18 536.139 390.577C539.861 397.065 544.47 395.599 544.47 395.599C542.027 392.714 541.522 390.429 542.288 388.581C545.317 381.43 568.007 381.64 568.007 381.64C568.007 381.64 557.623 358.768 553.47 356.117C549.316 353.465 542.736 333.572 542.736 333.572C542.736 333.572 493.228 328.269 492.886 330.585C492.544 332.902 482.845 351.142 479.384 354.121C475.922 357.099 469 379.317 469 379.317C480.768 376.002 493.75 384.12 495.134 385.118L495.199 385.204Z" fill="#565171"/>
<path id="Vector_87" d="M562.719 461L572.239 476.417C572.239 476.417 576.743 480.394 580.204 479.731C583.665 479.069 587.127 489.011 572.932 487.023C558.737 485.034 542.123 477.743 542.123 477.743C542.123 477.743 540.567 464.314 548.524 461.366L562.719 461Z" fill="#B77983"/>
<path id="Vector_88" d="M479.553 462.572L472.11 479.315C472.11 479.315 470.033 483.994 465.879 483.994C461.726 483.994 460.342 492.283 473.844 490.958C487.347 489.632 497.389 479.354 497.389 479.354C497.389 479.354 496.346 463.446 490.116 462.447C486.622 461.811 483.03 461.854 479.553 462.572V462.572Z" fill="#B77983"/>
<path id="Vector_89" d="M586.528 213.317C586.528 213.317 586.528 193.096 572.683 192.098C558.839 191.1 553.952 198.063 556.762 198.726C559.571 199.389 571.299 204.029 571.299 204.029L578.914 216.296L586.528 213.317Z" fill="#F7BBC3"/>
<path id="Vector_90" d="M463 215.317C463 215.317 463 195.096 476.845 194.098C490.69 193.1 495.576 200.063 492.766 200.726C489.957 201.389 478.229 206.029 478.229 206.029L470.615 218.296L463 215.317Z" fill="#F7BBC3"/>
<path id="Vector_91" d="M521.271 236C521.271 236 520.228 249.257 528.886 256.884C537.543 264.51 508.811 274.118 508.811 274.118L496 259.535C496 259.535 506.384 253.569 500.886 243.291L521.271 236Z" fill="#F7BBC3"/>
<path id="Vector_92" d="M451.926 248.097L480.658 273.293C491.734 277.27 493.118 298.153 493.118 298.153C497.622 306.108 491.042 338.267 491.042 338.267C507.33 365.452 547.471 342.245 547.471 342.245C547.471 342.245 547.553 341.293 547.683 339.617C547.797 338.151 547.952 336.123 548.123 333.713C548.351 330.594 548.612 326.828 548.856 322.741C549.402 313.812 549.898 303.409 549.898 295.175C549.898 276.942 562.359 269.651 562.359 269.651L583.916 256.971L591.099 252.744C598.714 249.758 599.756 242.139 599.756 242.139L585.911 207C583.647 213.192 576.244 210.704 575.283 210.353C579.355 212.116 580.715 240.15 580.715 240.15L562.717 248.104C562.717 248.104 544.719 248.104 537.096 252.417C530.581 256.082 527.396 253.275 526.582 252.347C537.528 266.383 516.671 267.327 516.671 267.327C505.595 268.653 503.168 255.396 503.168 255.396C503.168 255.396 497.28 253.056 492.092 253.407C486.905 253.758 476.513 248.728 476.513 248.728L465.437 238.786L470.975 216.241C466.088 220.218 460.241 212.264 460.241 212.264L450.55 235.136C446.388 244.782 451.926 248.097 451.926 248.097Z" fill="#B45181"/>
<path id="Vector_93" d="M514.964 249.487C524.333 249.487 531.928 242.215 531.928 233.244C531.928 224.273 524.333 217 514.964 217C505.595 217 498 224.273 498 233.244C498 242.215 505.595 249.487 514.964 249.487Z" fill="#F7BBC3"/>
<path id="Vector_94" d="M517.111 224.939C517.258 226.585 517.38 228.339 516.59 229.806C516.15 230.543 515.602 231.215 514.961 231.802L511.362 235.319C510.245 236.254 509.377 237.43 508.829 238.75C507.803 242.025 510.832 245.277 510.735 248.701C510.192 249.516 509.385 250.138 508.438 250.473C507.491 250.808 506.456 250.838 505.49 250.557C504.706 250.269 503.969 249.878 503.299 249.395L499.87 247.157C497.224 245.425 494.455 243.554 493.127 240.762C491.735 237.822 492.207 234.422 492.142 231.194C491.99 229.229 491.96 227.258 492.052 225.29C492.284 223.414 492.835 221.586 493.681 219.878C495.215 216.464 497.728 213.535 500.929 211.433C502.531 210.398 504.335 209.682 506.233 209.33C508.13 208.978 510.082 208.995 511.972 209.382C512.58 209.565 513.209 209.672 513.846 209.702C515.075 209.702 516.134 208.922 517.266 208.462C518.706 207.923 520.291 207.854 521.776 208.264C523.261 208.674 524.564 209.541 525.483 210.731C526.233 211.745 526.664 212.954 527.446 213.936C528.611 215.402 530.508 216.33 531.298 218.007C532.088 219.683 531.559 221.602 531.73 223.411C531.973 225.028 532.493 226.596 533.269 228.051C531.347 227.411 530.41 225.4 529.197 223.855C528.236 222.71 527.03 221.773 525.661 221.109C524.292 220.444 522.79 220.068 521.257 220.003C520.198 219.956 518.235 219.878 517.396 220.65C516.321 221.617 516.973 223.731 517.111 224.939Z" fill="#74585E"/>
</g>
<path id="Vector_95" d="M488.966 141.896C488.963 148.824 491.529 155.528 496.206 160.813C500.884 166.099 507.369 169.622 514.506 170.756C521.643 171.891 528.969 170.562 535.179 167.007C541.388 163.452 546.078 157.901 548.413 151.344C550.747 144.787 550.575 137.649 547.926 131.202C545.277 124.755 540.325 119.418 533.95 116.142C527.575 112.865 520.193 111.862 513.118 113.311C506.043 114.76 499.735 118.567 495.318 124.054C491.202 129.167 488.969 135.441 488.966 141.896V141.896Z" fill="url(#paint1_linear)"/>
<g id="football1">
<path id="Vector_96" d="M490.09 141.896C490.08 148.573 492.546 155.035 497.049 160.132C501.552 165.23 507.798 168.63 514.676 169.728C521.553 170.826 528.614 169.55 534.6 166.127C540.586 162.704 545.108 157.357 547.361 151.039C549.613 144.721 549.449 137.842 546.899 131.629C544.348 125.415 539.576 120.271 533.433 117.113C527.29 113.955 520.176 112.988 513.358 114.385C506.54 115.782 500.462 119.452 496.206 124.74C492.249 129.657 490.099 135.689 490.09 141.896V141.896Z" fill="#E0E0E0"/>
<path id="Vector_97" d="M503.023 128.055V138.988" stroke="#535461" stroke-miterlimit="10"/>
<path id="Vector_98" d="M524.832 138.013L512.918 145.546" stroke="#535461" stroke-miterlimit="10"/>
<path id="Vector_99" d="M512.918 121.262L526.868 126.846" stroke="#535461" stroke-miterlimit="10"/>
<path id="Vector_100" d="M536.25 139.955L535.485 156.955" stroke="#535461" stroke-miterlimit="10"/>
<path id="Vector_101" d="M526.868 162.055L511.142 154.53" stroke="#535461" stroke-miterlimit="10"/>
<path id="Vector_102" d="M503.023 155.746V165.237" stroke="#535461" stroke-miterlimit="10"/>
<path id="Vector_103" d="M497.192 148.455L490.334 145.546" stroke="#535461" stroke-miterlimit="10"/>
<path id="Vector_104" d="M535.485 125.871L534.963 117.925" stroke="#535461" stroke-miterlimit="10"/>
<path id="Vector_105" d="M540.053 135.104L548.556 137.428" stroke="#535461" stroke-miterlimit="10"/>
<path id="Vector_106" d="M542.334 135.104L535.745 124.171L524.84 125.871V138.013L536.503 143.846L542.334 135.104Z" fill="#6C63FF"/>
<path id="Vector_107" d="M496.206 124.709L503.031 128.055C505.311 125.138 514.693 121.738 514.693 121.738L513.716 114.275C506.754 115.613 500.534 119.32 496.206 124.709V124.709Z" fill="#6C63FF"/>
<path id="Vector_108" d="M514.693 144.33L502.77 138.988L496.174 147.971L503.023 158.413L514.693 156.713V144.33Z" fill="#6C63FF"/>
<path id="Vector_109" d="M524.832 160.597V169.572C528.652 168.899 532.294 167.509 535.55 165.481C538.805 163.454 541.609 160.829 543.8 157.758L535.485 154.491L524.832 160.597Z" fill="#6C63FF"/>
</g>
<path id="Vector_110" d="M88.3624 349.017C88.3626 354.829 90.5177 360.453 94.444 364.885C98.3702 369.318 103.812 372.272 109.801 373.221C115.789 374.17 121.935 373.052 127.143 370.066C132.351 367.081 136.283 362.422 138.239 356.92C140.194 351.417 140.046 345.429 137.82 340.022C135.595 334.614 131.437 330.139 126.087 327.393C120.737 324.648 114.542 323.81 108.608 325.03C102.673 326.249 97.3829 329.447 93.6805 334.052C90.2315 338.342 88.3617 343.604 88.3624 349.017Z" fill="url(#paint2_linear)"/>
<path id="Vector_111" d="M89.3072 349.017C89.3086 354.615 91.3853 360.03 95.1674 364.299C98.9495 368.567 104.191 371.411 109.959 372.324C115.726 373.237 121.645 372.159 126.661 369.284C131.676 366.408 135.462 361.921 137.345 356.621C139.228 351.322 139.085 345.555 136.941 340.347C134.797 335.139 130.792 330.829 125.64 328.185C120.487 325.541 114.522 324.734 108.806 325.909C103.09 327.083 97.9957 330.163 94.4298 334.598C91.107 338.731 89.3059 343.801 89.3072 349.017V349.017Z" fill="#E0E0E0"/>
<path id="Vector_112" d="M100.155 337.406V346.576" stroke="#535461" stroke-miterlimit="10"/>
<path id="Vector_113" d="M118.446 345.758L108.446 352.074" stroke="#535461" stroke-miterlimit="10"/>
<path id="Vector_114" d="M108.446 331.705L120.148 336.392" stroke="#535461" stroke-miterlimit="10"/>
<path id="Vector_115" d="M128.016 347.387L127.38 361.65" stroke="#535461" stroke-miterlimit="10"/>
<path id="Vector_116" d="M120.148 365.924L106.955 359.607" stroke="#535461" stroke-miterlimit="10"/>
<path id="Vector_117" d="M100.155 360.629V368.591" stroke="#535461" stroke-miterlimit="10"/>
<path id="Vector_118" d="M95.2604 354.515L89.5107 352.074" stroke="#535461" stroke-miterlimit="10"/>
<path id="Vector_119" d="M127.381 335.573L126.941 328.913" stroke="#535461" stroke-miterlimit="10"/>
<path id="Vector_120" d="M131.208 343.317L138.342 345.266" stroke="#535461" stroke-miterlimit="10"/>
<path id="Vector_121" d="M133.122 343.317L127.592 334.154L118.446 335.573V345.758L128.227 350.647L133.122 343.317Z" fill="#6C63FF"/>
<path id="Vector_122" d="M94.4297 334.598L100.131 337.406C102.044 334.965 109.903 332.111 109.903 332.111L109.089 325.872C103.264 326.994 98.0577 330.093 94.4297 334.598V334.598Z" fill="#6C63FF"/>
<path id="Vector_123" d="M109.936 351.053L99.9433 346.576L94.4053 354.109L100.155 362.867L109.936 361.44V351.053Z" fill="#6C63FF"/>
<path id="Vector_124" d="M118.446 364.699V372.256C121.65 371.691 124.704 370.524 127.434 368.823C130.164 367.122 132.515 364.92 134.352 362.344L127.38 359.607L118.446 364.699Z" fill="#6C63FF"/>
<path id="Vector_125" d="M69.5498 378.502C69.55 384.315 71.7051 389.938 75.6313 394.371C79.5575 398.803 84.9997 401.757 90.9882 402.706C96.9767 403.655 103.123 402.537 108.331 399.552C113.539 396.566 117.471 391.907 119.426 386.405C121.381 380.903 121.233 374.914 119.008 369.507C116.782 364.099 112.624 359.624 107.274 356.878C101.924 354.133 95.7297 353.295 89.7949 354.515C83.8601 355.734 78.5702 358.932 74.8678 363.538C71.4189 367.827 69.5491 373.089 69.5498 378.502V378.502Z" fill="url(#paint3_linear)"/>
<path id="Vector_126" d="M70.4945 378.502C70.4959 384.1 72.5727 389.515 76.3547 393.784C80.1368 398.052 85.3786 400.896 91.1461 401.809C96.9137 402.722 102.832 401.645 107.848 398.769C112.863 395.893 116.65 391.406 118.532 386.106C120.415 380.807 120.272 375.04 118.128 369.832C115.985 364.624 111.98 360.314 106.827 357.67C101.675 355.026 95.7091 354.219 89.9934 355.394C84.2776 356.568 79.183 359.648 75.6171 364.083C72.2943 368.217 70.4932 373.286 70.4945 378.502Z" fill="#E0E0E0"/>
<path id="Vector_127" d="M81.3423 366.891V376.054" stroke="#535461" stroke-miterlimit="10"/>
<path id="Vector_128" d="M99.6338 375.243L89.6411 381.559" stroke="#535461" stroke-miterlimit="10"/>
<path id="Vector_129" d="M89.6411 361.19L101.336 365.877" stroke="#535461" stroke-miterlimit="10"/>
<path id="Vector_130" d="M109.203 376.872L108.568 391.128" stroke="#535461" stroke-miterlimit="10"/>
<path id="Vector_131" d="M101.336 395.409L88.1507 389.092" stroke="#535461" stroke-miterlimit="10"/>
<path id="Vector_132" d="M81.3423 390.114V398.076" stroke="#535461" stroke-miterlimit="10"/>
<path id="Vector_133" d="M76.4478 384L70.6981 381.559" stroke="#535461" stroke-miterlimit="10"/>
<path id="Vector_134" d="M108.569 365.058L108.128 358.399" stroke="#535461" stroke-miterlimit="10"/>
<path id="Vector_135" d="M112.395 372.802L119.53 374.751" stroke="#535461" stroke-miterlimit="10"/>
<path id="Vector_136" d="M114.309 372.802L108.78 363.631L99.6338 365.058V375.243L109.423 380.132L114.309 372.802Z" fill="#6C63FF"/>
<path id="Vector_137" d="M75.6171 364.083L81.3179 366.891C83.2317 364.45 91.0907 361.596 91.0907 361.596L90.2763 355.357C84.451 356.479 79.2451 359.578 75.6171 364.083V364.083Z" fill="#6C63FF"/>
<path id="Vector_138" d="M91.1233 380.538L81.1306 376.054L75.6008 383.595L81.3423 392.352L91.1233 390.925V380.538Z" fill="#6C63FF"/>
<path id="Vector_139" d="M99.6338 394.161V401.718C102.836 401.155 105.89 399.99 108.619 398.292C111.349 396.594 113.701 394.395 115.539 391.822L108.568 389.085L99.6338 394.161Z" fill="#6C63FF"/>
</g>
<defs>
<linearGradient id="paint0_linear" x1="311.158" y1="223.652" x2="311.158" y2="223.458" gradientUnits="userSpaceOnUse">
<stop stop-color="#808080" stop-opacity="0.25"/>
<stop offset="0.54" stop-color="#808080" stop-opacity="0.12"/>
<stop offset="1" stop-color="#808080" stop-opacity="0.1"/>
</linearGradient>
<linearGradient id="paint1_linear" x1="32146.7" y1="15904.7" x2="32146.7" y2="11518.2" gradientUnits="userSpaceOnUse">
<stop stop-color="#808080" stop-opacity="0.25"/>
<stop offset="0.54" stop-color="#808080" stop-opacity="0.12"/>
<stop offset="1" stop-color="#808080" stop-opacity="0.1"/>
</linearGradient>
<linearGradient id="paint2_linear" x1="52163.1" y1="26308.2" x2="52163.1" y2="23221.9" gradientUnits="userSpaceOnUse">
<stop stop-color="#808080" stop-opacity="0.25"/>
<stop offset="0.54" stop-color="#808080" stop-opacity="0.12"/>
<stop offset="1" stop-color="#808080" stop-opacity="0.1"/>
</linearGradient>
<linearGradient id="paint3_linear" x1="53327.5" y1="28192.8" x2="53327.5" y2="25106.5" gradientUnits="userSpaceOnUse">
<stop stop-color="#808080" stop-opacity="0.25"/>
<stop offset="0.54" stop-color="#808080" stop-opacity="0.12"/>
<stop offset="1" stop-color="#808080" stop-opacity="0.1"/>
</linearGradient>
<clipPath id="clip0">
<rect width="932" height="623" fill="white"/>
</clipPath>
</defs>
</svg>
