<svg width="365" height="344" viewBox="0 0 365 344" fill="none" xmlns="http://www.w3.org/2000/svg">
<g id="undraw_junior_soccer_6sop 1">
<path id="Vector" d="M163.681 337.875C160.954 337.871 158.273 338.967 155.889 341.061H171.452C169.075 338.968 166.4 337.871 163.681 337.875Z" fill="#E6E6E6"/>
<path id="Vector_2" d="M193.88 334.689C189.327 334.681 184.883 336.907 181.162 341.06H206.581C202.865 336.911 198.428 334.686 193.88 334.689Z" fill="#E6E6E6"/>
<path id="Vector_3" d="M326.197 194.507C323.898 91.5167 290.406 7.54581 248.754 0.507419C229.553 -2.82591 210.477 10.3392 194.756 37.773C179.034 65.2068 167.634 105.223 162.485 151.044C161.475 150.954 160.465 150.854 159.445 150.854C141.418 150.862 123.876 165.29 109.445 191.981C95.0131 218.671 84.4673 256.189 79.385 298.92C67.4395 285.953 54.0906 283.139 41.4287 290.921C28.7669 298.702 17.507 316.638 9.41261 341.921H269.693C301.67 341.921 327.561 276.485 326.257 197.548C326.24 196.536 326.22 195.522 326.197 194.507Z" fill="#6C63FF"/>
<path id="Vector_4" d="M361.604 340.387H0V341.734H361.604V340.387Z" fill="#3F3D56"/>
<path id="Vector_5" d="M120.681 121.471C120.681 121.471 104.269 113.382 106.788 126.691C109.308 140.001 123.132 133.278 123.132 133.278L120.681 121.471Z" fill="#FFB8B8"/>
<path id="Vector_6" d="M183.42 71.5149C183.42 71.5149 175.009 53.3274 166.837 72.2084C158.649 91.1265 151.036 106.657 151.036 106.657L130.7 117.149L118.935 118.801L122.176 135.351L156.383 127.499C156.383 127.499 194.466 91.7032 183.42 71.5149Z" fill="#2F2E41"/>
<path id="Vector_7" d="M145.877 172.237C145.877 172.237 133.099 186.39 133.951 199.195C134.803 212 140.34 247.045 140.34 247.045L151.84 244.349C151.84 244.349 153.117 217.391 148.858 207.282L169.302 189.086L145.877 172.237Z" fill="#FFB8B8"/>
<path id="Vector_8" d="M174.2 205.597C174.2 205.597 173.348 230.533 175.478 240.643C177.608 250.752 179.737 288.493 179.737 288.493H191.663C191.663 288.493 197.2 255.469 190.385 240.643C190.385 240.643 188.255 221.098 194.218 211.663L174.2 205.597Z" fill="#FFB8B8"/>
<path id="Vector_9" d="M171.432 136.518C171.432 136.518 143.747 164.15 143.747 172.911L165.895 201.891L173.561 188.412L172.71 208.63L196.561 216.044C196.561 216.044 205.079 164.824 204.653 162.802C204.227 160.78 202.95 131.126 202.95 131.126L171.432 136.518Z" fill="#2F2E41"/>
<path id="Vector_10" d="M151.84 240.98L139.488 245.023L141.682 259.299C142.763 266.325 142.886 273.635 142.043 280.742C142.043 280.742 154.821 286.134 154.821 283.438C154.821 280.742 151.84 269.959 152.691 262.546C153.543 255.132 151.84 240.98 151.84 240.98Z" fill="#E5E5E5"/>
<g id="dribfeet">
<path id="Vector_11" d="M160.116 279.554C159.69 276.858 156.151 264.636 156.004 266.703C155.857 268.771 149.042 272.14 146.487 268.097C146.487 268.097 143.079 263.379 141.802 268.097C140.524 272.814 137.968 280.902 137.968 280.902C137.968 280.902 126.469 289.663 128.172 294.381C128.517 295.335 129.471 295.737 130.775 295.773C130.744 295.897 130.728 296.03 130.728 296.164V296.641C130.728 296.935 130.802 297.217 130.933 297.425C131.064 297.633 131.243 297.75 131.429 297.75H131.73C131.916 297.75 132.095 297.633 132.226 297.425C132.358 297.217 132.431 296.935 132.431 296.641V296.164C132.431 295.992 132.404 295.822 132.355 295.669C132.703 295.621 133.065 295.557 133.436 295.48C133.338 295.674 133.284 295.915 133.283 296.164V296.641C133.283 296.935 133.357 297.217 133.489 297.425C133.62 297.633 133.798 297.75 133.984 297.75H134.286C134.472 297.75 134.65 297.633 134.782 297.425C134.913 297.217 134.987 296.935 134.987 296.641V296.164C134.987 295.966 134.953 295.772 134.889 295.602C134.825 295.433 134.734 295.293 134.624 295.198C135.605 294.939 136.628 294.61 137.645 294.245C137.578 294.417 137.543 294.614 137.542 294.816V295.293C137.542 295.587 137.616 295.87 137.748 296.078C137.879 296.286 138.057 296.402 138.243 296.402H138.545C138.731 296.402 138.909 296.286 139.041 296.078C139.172 295.87 139.246 295.587 139.246 295.293V294.816C139.246 294.601 139.206 294.392 139.133 294.212C139.059 294.032 138.953 293.89 138.829 293.804C139.592 293.509 140.34 293.202 141.052 292.898C140.986 293.07 140.95 293.267 140.95 293.468V293.945C140.95 294.24 141.024 294.522 141.155 294.73C141.286 294.938 141.465 295.055 141.651 295.055H141.952C142.138 295.055 142.317 294.938 142.448 294.73C142.58 294.522 142.653 294.24 142.653 293.945V293.468C142.653 293.232 142.605 293.002 142.516 292.813C142.428 292.623 142.303 292.484 142.161 292.414C144.662 291.299 146.487 290.337 146.487 290.337C146.487 290.337 148.606 289.117 151.172 287.468V287.88C151.172 288.174 151.246 288.456 151.377 288.664C151.508 288.872 151.687 288.989 151.873 288.989H152.174C152.36 288.989 152.539 288.872 152.67 288.664C152.802 288.456 152.875 288.174 152.875 287.88V287.402C152.875 287.234 152.851 287.068 152.804 286.918C152.757 286.767 152.688 286.635 152.604 286.532C153.119 286.19 153.639 285.837 154.153 285.479V285.858C154.153 286.152 154.227 286.434 154.358 286.642C154.49 286.85 154.668 286.967 154.854 286.967H155.156C155.342 286.967 155.52 286.85 155.652 286.642C155.783 286.434 155.857 286.152 155.857 285.858V285.38C155.857 285.202 155.829 285.026 155.777 284.868C155.725 284.71 155.649 284.574 155.557 284.473C156.113 284.062 156.648 283.652 157.141 283.251C157.139 283.287 157.135 283.322 157.135 283.359V283.836C157.135 284.13 157.208 284.413 157.34 284.621C157.471 284.829 157.65 284.945 157.836 284.945H158.137C158.323 284.945 158.502 284.829 158.633 284.621C158.764 284.413 158.838 284.13 158.838 283.836V283.359C158.838 283.103 158.782 282.855 158.68 282.657C158.578 282.459 158.436 282.323 158.277 282.272C159.468 281.178 160.219 280.207 160.116 279.554Z" fill="#2F2E41"/>
</g>
<path id="Vector_12" d="M192.515 285.46L179.022 284.112C179.022 284.112 179.839 306.352 178.204 313.766C176.568 321.179 177.386 323.875 177.386 323.875L189.244 325.223L192.515 285.46Z" fill="#E5E5E5"/>
<path id="Vector_13" d="M192.681 334.614C192.619 331.837 190.769 318.715 190.353 320.689C189.936 322.663 182.827 323.71 180.861 318.912C180.861 318.912 178.15 313.174 176.278 317.366C174.407 321.559 170.842 328.625 170.842 328.625C170.842 328.625 158.441 333.4 159.485 338.576C159.696 339.623 160.577 340.331 161.847 340.796C161.801 340.908 161.768 341.032 161.75 341.163L161.687 341.63C161.648 341.917 161.683 342.218 161.784 342.465C161.885 342.711 162.044 342.884 162.226 342.946L162.521 343.045C162.703 343.107 162.893 343.051 163.049 342.891C163.205 342.731 163.314 342.48 163.353 342.192L163.416 341.725C163.438 341.556 163.434 341.382 163.406 341.216C163.753 341.284 164.115 341.341 164.489 341.388C164.367 341.545 164.282 341.763 164.249 342.006L164.186 342.473C164.147 342.761 164.182 343.061 164.283 343.308C164.385 343.554 164.544 343.728 164.725 343.789L165.021 343.888C165.202 343.95 165.392 343.894 165.548 343.734C165.704 343.574 165.813 343.323 165.852 343.035L165.915 342.568C165.941 342.375 165.933 342.174 165.893 341.987C165.853 341.8 165.782 341.633 165.688 341.504C166.681 341.574 167.725 341.59 168.768 341.568C168.68 341.714 168.619 341.896 168.592 342.093L168.529 342.56C168.49 342.848 168.525 343.148 168.627 343.395C168.728 343.641 168.887 343.815 169.069 343.876L169.364 343.975C169.545 344.037 169.735 343.981 169.891 343.821C170.047 343.661 170.157 343.41 170.195 343.122L170.258 342.655C170.286 342.445 170.275 342.227 170.227 342.027C170.178 341.827 170.094 341.653 169.984 341.527C170.769 341.491 171.541 341.438 172.277 341.375C172.19 341.521 172.129 341.702 172.102 341.899L172.039 342.366C172 342.653 172.035 342.954 172.137 343.201C172.238 343.447 172.397 343.62 172.579 343.682L172.874 343.781C173.056 343.843 173.245 343.787 173.401 343.627C173.557 343.467 173.667 343.216 173.705 342.928L173.768 342.461C173.799 342.23 173.782 341.99 173.721 341.775C173.659 341.56 173.555 341.383 173.425 341.268C176.018 341.002 177.93 340.663 177.93 340.663C177.93 340.663 180.163 340.169 182.89 339.404L182.836 339.806C182.797 340.094 182.832 340.394 182.933 340.641C183.034 340.888 183.193 341.061 183.375 341.122L183.67 341.222C183.852 341.283 184.042 341.228 184.198 341.067C184.354 340.907 184.463 340.656 184.502 340.368L184.565 339.901C184.587 339.737 184.585 339.566 184.559 339.403C184.532 339.24 184.483 339.089 184.414 338.961C184.963 338.796 185.518 338.622 186.068 338.442L186.018 338.812C185.979 339.1 186.014 339.4 186.116 339.647C186.217 339.894 186.376 340.067 186.557 340.128L186.853 340.228C187.034 340.289 187.224 340.234 187.38 340.074C187.536 339.914 187.646 339.662 187.684 339.374L187.747 338.907C187.771 338.733 187.767 338.552 187.737 338.38C187.707 338.208 187.651 338.051 187.573 337.92C188.171 337.703 188.749 337.478 189.284 337.248C189.277 337.283 189.268 337.315 189.263 337.351L189.2 337.819C189.162 338.106 189.197 338.407 189.298 338.653C189.399 338.9 189.558 339.073 189.74 339.135L190.035 339.234C190.217 339.295 190.407 339.24 190.562 339.08C190.718 338.92 190.828 338.668 190.867 338.381L190.93 337.914C190.963 337.663 190.941 337.403 190.867 337.175C190.793 336.948 190.672 336.768 190.524 336.666C191.833 335.988 192.696 335.287 192.681 334.614Z" fill="#2F2E41"/>
<path id="Vector_14" d="M171.432 48.905C178.253 48.905 183.783 40.1547 183.783 29.3606C183.783 18.5665 178.253 9.81619 171.432 9.81619C164.61 9.81619 159.08 18.5665 159.08 29.3606C159.08 40.1547 164.61 48.905 171.432 48.905Z" fill="#FFB8B8"/>
<path id="Vector_15" d="M182.506 27.3388C182.506 27.3388 189.32 40.8177 192.728 40.1437L177.82 58.3403C177.82 58.3403 176.117 46.8832 173.987 45.5353C171.858 44.1874 182.506 27.3388 182.506 27.3388Z" fill="#FFB8B8"/>
<path id="Vector_16" d="M209.125 127.42C209.125 127.42 209.124 53.0523 201.24 46.6461C193.361 40.2436 188.149 36.5894 188.149 36.5894C188.033 39.0296 187.594 41.4041 186.862 43.5595C186.13 45.7149 185.12 47.6033 183.898 49.1026C181.285 52.2942 178.682 54.9407 177.228 54.9492L177.182 54.6336L177.004 53.8324L172.709 64.4058C172.709 64.4058 168.876 65.7537 167.598 69.7974C166.907 71.985 170.167 94.0076 168.237 113.941C166.6 130.853 159.702 146.119 159.506 147.975C159.176 151.113 167.56 142.892 171.336 139.049C171.392 139.148 171.432 139.214 171.432 139.214C171.432 139.214 169.302 140.562 173.561 138.54C175.975 137.394 179.344 137.331 181.812 137.491C181.809 138.662 181.827 139.592 181.867 140.225C182.293 146.964 203.588 156.399 206.57 154.378C209.551 152.356 209.125 127.42 209.125 127.42Z" fill="#2F2E41"/>
<path id="Vector_17" d="M194.218 153.03C194.218 153.03 181.441 171.226 189.959 174.596C198.477 177.966 201.885 155.725 201.885 155.725L194.218 153.03Z" fill="#FFB8B8"/>
<path id="Vector_18" d="M179.311 200.206C179.311 200.206 185.274 191.445 188.681 196.162C192.089 200.88 194.218 204.25 194.218 204.25C194.218 204.25 184.422 194.814 179.311 200.206Z" fill="#6C63FF"/>
<path id="Vector_19" d="M180.86 305.037C180.86 305.037 184.221 300.099 186.141 302.758C188.062 305.417 189.262 307.316 189.262 307.316C189.262 307.316 183.741 301.998 180.86 305.037Z" fill="#2F2E41"/>
<path id="Vector_20" d="M143.208 259.105C143.208 259.105 145.515 252.832 147.841 254.492C150.167 256.151 151.665 257.416 151.665 257.416C151.665 257.416 145.405 254.871 143.208 259.105Z" fill="#2F2E41"/>
<path id="Vector_21" d="M205.907 55.8931C201.685 42.4641 188.839 49.7882 190.926 64.419C190.957 64.6371 190.99 64.8573 191.024 65.0797C193.224 78.9294 196.819 92.1279 201.672 104.169L196.987 137.192L191.876 154.041L202.524 158.084L215.727 107.538C215.727 107.538 212.085 75.544 205.907 55.8931Z" fill="#2F2E41"/>
<path id="Vector_22" opacity="0.2" d="M199.755 105.179L191.663 153.703L198.477 130.789L199.755 105.179Z" fill="black"/>
<path id="Vector_23" d="M179.189 6.57861C179.189 6.57861 172.361 -4.79523 165.489 2.36758C158.617 9.53039 155.357 16.4884 156.031 21.3331C156.704 26.1778 158.699 32.9166 158.699 32.9166C158.699 32.9166 157.459 22.8797 163.15 22.137C168.84 21.3942 176.702 15.4354 176.702 15.4354L182.02 33.4054C182.02 33.4054 182.772 29.2412 184.856 30.4356C186.94 31.63 185.325 7.91081 179.189 6.57861Z" fill="#2F2E41"/>
<g id="fball">
<path id="Vector_24" d="M135.442 263.557C135.441 265.264 135.352 266.968 135.173 268.652V268.658C134.684 273.188 133.551 277.482 131.86 281.217C130.169 284.952 127.964 288.03 125.411 290.22C122.858 292.409 120.024 293.652 117.123 293.855C114.222 294.058 111.329 293.215 108.664 291.391H108.66C107.871 290.852 107.107 290.229 106.373 289.524C104.097 287.349 102.131 284.45 100.6 281.01C99.0691 277.571 98.0066 273.665 97.4797 269.541C97.2327 267.57 97.1086 265.566 97.1092 263.557C97.1092 262.64 97.1347 261.73 97.1858 260.834V260.827C97.6278 253.088 99.9302 245.913 103.618 240.782C107.306 235.651 112.098 232.956 117.005 233.252C121.912 233.549 126.56 236.814 129.99 242.376C133.42 247.937 135.37 255.369 135.437 263.139V263.146C135.442 263.287 135.442 263.415 135.442 263.557Z" fill="#1D438A"/>
<path id="Vector_25" d="M120.993 253.427H112.409L108.117 241.667L111.028 233.682L111.199 233.61C114.884 232.051 118.777 232.223 122.401 234.105L122.556 234.186L125.286 241.667L120.993 253.427ZM112.901 252.079H120.502L124.302 241.667L121.981 235.306C118.613 233.616 115.013 233.455 111.589 234.84L109.101 241.667L112.901 252.079Z" fill="white"/>
<path id="Vector_26" d="M120.567 277.69H111.983L107.691 265.927L111.983 254.164H120.567L124.86 265.927L120.567 277.69ZM112.475 276.342H120.076L123.876 265.927L120.076 255.512H112.475L108.675 265.927L112.475 276.342Z" fill="white"/>
<path id="Vector_27" d="M116.275 294.558C113.598 294.566 110.949 293.698 108.495 292.009L108.057 291.708L112.409 279.772H120.993L125.162 291.198L124.748 291.513C122.106 293.528 119.209 294.569 116.275 294.558ZM109.275 291.065C111.616 292.556 114.124 293.283 116.648 293.205C119.172 293.126 121.66 292.242 123.963 290.605L120.502 281.119H112.901L109.275 291.065Z" fill="white"/>
<path id="Vector_28" d="M135.049 265.558H126.465L122.172 253.798L126.464 242.031H130.373L130.499 242.241C133.889 247.883 135.805 255.346 135.863 263.13V263.326L135.049 265.558ZM126.956 264.21H134.557L135.01 262.97C134.928 255.686 133.145 248.707 130.006 243.379H126.956L123.156 253.798L126.956 264.21Z" fill="white"/>
<path id="Vector_29" d="M126.346 290.165L122.172 278.734L126.464 266.967H135.048L135.599 268.47L135.593 268.771C135.128 273.063 134.098 277.152 132.569 280.773C131.041 284.394 129.048 287.467 126.721 289.791L126.346 290.165ZM123.156 278.734L126.638 288.269C128.747 286.051 130.551 283.182 131.942 279.832C133.332 276.483 134.28 272.723 134.728 268.779L134.557 268.315H126.956L123.156 278.734Z" fill="#E5E5E5"/>
<path id="Vector_30" d="M106.524 290.456L106.153 290.101C103.827 287.876 101.818 284.912 100.253 281.396C98.6884 277.88 97.6018 273.888 97.0622 269.674L97.0306 269.424L97.9281 266.967H106.512L110.804 278.734L106.524 290.456ZM97.9296 269.656C98.4469 273.526 99.447 277.193 100.871 280.443C102.295 283.694 104.115 286.461 106.224 288.585L109.821 278.734L106.02 268.315H98.4198L97.9296 269.656Z" fill="white"/>
<path id="Vector_31" d="M106.512 264.21H97.9283L96.76 261.015V260.834C97.1805 253.196 99.3799 246.079 102.931 240.863L103.054 240.683H106.512L110.804 252.45L106.512 264.21ZM98.4196 262.862H106.021L109.821 252.45L106.02 242.031H103.39C100.104 246.938 98.0546 253.565 97.6222 260.681L98.4196 262.862Z" fill="white"/>
</g>
</g>
</svg>
