<svg width="350" height="342" viewBox="0 0 350 342" fill="none" xmlns="http://www.w3.org/2000/svg">
<g clip-path="url(#clip0)">
<path d="M113.46 12.1621C123.694 1.50011 139.758 -0.685602 154.383 0.163257C200.312 2.83696 241.771 28.7866 277.635 58.144C290.62 68.7691 303.401 80.2225 311.827 94.8582C328.995 124.65 323.894 165.92 300.041 190.463C291.923 198.813 282.085 205.226 271.984 210.889C254.024 220.977 234.645 229.076 214.26 231.393C199.727 233.034 185.012 231.701 170.559 229.408C130.186 222.987 90.5631 208.814 57.3377 184.571C42.7694 173.937 29.0385 160.717 23.0332 143.522C17.0279 126.327 20.8714 104.511 35.7481 94.3128C41.9005 90.1013 49.2582 88.1985 56.4583 86.4106C67.0604 83.782 77.8307 81.1903 87.3958 75.847C97.2797 70.3274 108.978 59.6531 107.016 47.4328C104.928 34.3391 103.239 22.8241 113.46 12.1621Z" fill="#6C63FF"/>
<path d="M239.984 274.296C239.984 274.296 248.765 256.093 261.984 250.848C267.542 248.689 272.351 244.479 275.69 238.849C277.258 236.162 278.612 233.313 279.734 230.336" stroke="#535461" stroke-width="2" stroke-miterlimit="10"/>
<path d="M288.051 226.969C286.545 228.683 279.527 230.451 279.527 230.451C279.527 230.451 281.247 222.294 282.754 220.584C283.477 219.762 284.45 219.31 285.458 219.327C286.467 219.345 287.428 219.83 288.13 220.677C288.833 221.523 289.219 222.662 289.204 223.842C289.19 225.022 288.775 226.147 288.051 226.969V226.969Z" fill="#6C63FF"/>
<path d="M284.082 241.728C282.022 242.208 275.323 239.231 275.323 239.231C275.323 239.231 280.557 233.49 282.614 232.998C283.603 232.767 284.63 233.007 285.468 233.663C286.306 234.319 286.888 235.338 287.084 236.495C287.281 237.653 287.077 238.855 286.516 239.836C285.956 240.818 285.085 241.498 284.096 241.728H284.082Z" fill="#6C63FF"/>
<path d="M269.629 257.696C267.643 256.876 263.133 250.356 263.133 250.356C263.133 250.356 270.141 248.486 272.117 249.29C272.599 249.471 273.045 249.764 273.429 250.15C273.813 250.536 274.127 251.008 274.353 251.538C274.58 252.068 274.713 252.646 274.746 253.237C274.779 253.828 274.71 254.421 274.544 254.981C274.379 255.541 274.119 256.057 273.781 256.498C273.443 256.939 273.033 257.296 272.575 257.549C272.117 257.802 271.62 257.945 271.115 257.971C270.609 257.996 270.104 257.903 269.629 257.696V257.696Z" fill="#6C63FF"/>
<path d="M256.368 266.899C254.297 266.488 248.908 260.948 248.908 260.948C248.908 260.948 255.534 257.717 257.604 258.119C258.101 258.209 258.577 258.413 259.005 258.72C259.434 259.027 259.806 259.43 260.1 259.906C260.395 260.382 260.606 260.922 260.721 261.494C260.836 262.066 260.854 262.659 260.772 263.239C260.69 263.819 260.511 264.374 260.245 264.873C259.979 265.371 259.631 265.803 259.222 266.144C258.812 266.484 258.349 266.726 257.859 266.855C257.369 266.985 256.862 267 256.368 266.899V266.899Z" fill="#6C63FF"/>
<path d="M269.457 232.858C269.457 235.319 273.255 242.442 273.255 242.442C273.255 242.442 277.06 235.319 277.06 232.862C277.06 231.682 276.66 230.55 275.947 229.716C275.234 228.882 274.267 228.413 273.259 228.413C272.251 228.413 271.284 228.882 270.571 229.716C269.858 230.55 269.457 231.682 269.457 232.862V232.858Z" fill="#6C63FF"/>
<path d="M254.066 243.848C254.696 246.194 260.141 251.664 260.141 251.664C260.141 251.664 261.949 243.532 261.322 241.187C261.02 240.061 260.349 239.121 259.455 238.574C258.562 238.027 257.519 237.918 256.557 238.271C255.595 238.624 254.792 239.41 254.324 240.456C253.857 241.502 253.764 242.722 254.066 243.848V243.848Z" fill="#6C63FF"/>
<path d="M240.359 256.93C240.64 259.365 245.219 265.836 245.219 265.836C245.219 265.836 248.176 258.18 247.896 255.744C247.761 254.575 247.236 253.515 246.434 252.799C245.632 252.083 244.621 251.769 243.621 251.927C242.622 252.084 241.717 252.699 241.105 253.637C240.493 254.576 240.225 255.76 240.359 256.93Z" fill="#6C63FF"/>
<path opacity="0.25" d="M288.051 226.969C286.545 228.683 279.527 230.451 279.527 230.451C279.527 230.451 281.247 222.294 282.754 220.584C283.477 219.762 284.45 219.31 285.458 219.327C286.467 219.345 287.428 219.83 288.13 220.677C288.833 221.523 289.219 222.662 289.204 223.842C289.19 225.022 288.775 226.147 288.051 226.969V226.969Z" fill="black"/>
<path opacity="0.25" d="M284.082 241.728C282.022 242.208 275.323 239.231 275.323 239.231C275.323 239.231 280.557 233.49 282.614 232.998C283.603 232.767 284.63 233.007 285.468 233.663C286.306 234.319 286.888 235.338 287.084 236.495C287.281 237.653 287.077 238.855 286.516 239.836C285.956 240.818 285.085 241.498 284.096 241.728H284.082Z" fill="black"/>
<path opacity="0.25" d="M269.629 257.696C267.643 256.876 263.133 250.356 263.133 250.356C263.133 250.356 270.141 248.486 272.117 249.29C272.599 249.471 273.045 249.764 273.429 250.15C273.813 250.536 274.127 251.008 274.353 251.538C274.58 252.068 274.713 252.646 274.746 253.237C274.779 253.828 274.71 254.421 274.544 254.981C274.379 255.541 274.119 256.057 273.781 256.498C273.443 256.939 273.033 257.296 272.575 257.549C272.117 257.802 271.62 257.945 271.115 257.971C270.609 257.996 270.104 257.903 269.629 257.696V257.696Z" fill="black"/>
<path opacity="0.25" d="M256.368 266.899C254.297 266.488 248.908 260.948 248.908 260.948C248.908 260.948 255.534 257.717 257.604 258.119C258.101 258.209 258.577 258.413 259.005 258.72C259.434 259.027 259.806 259.43 260.1 259.906C260.395 260.382 260.606 260.922 260.721 261.494C260.836 262.066 260.854 262.659 260.772 263.239C260.69 263.819 260.511 264.374 260.245 264.873C259.979 265.371 259.631 265.803 259.222 266.144C258.812 266.484 258.349 266.726 257.859 266.855C257.369 266.985 256.862 267 256.368 266.899V266.899Z" fill="black"/>
<path opacity="0.25" d="M269.457 232.858C269.457 235.319 273.255 242.442 273.255 242.442C273.255 242.442 277.06 235.319 277.06 232.862C277.06 231.682 276.66 230.55 275.947 229.716C275.234 228.882 274.267 228.413 273.259 228.413C272.251 228.413 271.284 228.882 270.571 229.716C269.858 230.55 269.457 231.682 269.457 232.862V232.858Z" fill="black"/>
<path opacity="0.25" d="M254.066 243.848C254.696 246.194 260.141 251.664 260.141 251.664C260.141 251.664 261.949 243.532 261.322 241.187C261.02 240.061 260.349 239.121 259.455 238.574C258.562 238.027 257.519 237.918 256.557 238.271C255.595 238.624 254.792 239.41 254.324 240.456C253.857 241.502 253.764 242.722 254.066 243.848V243.848Z" fill="black"/>
<path opacity="0.25" d="M240.359 256.93C240.64 259.365 245.219 265.836 245.219 265.836C245.219 265.836 248.176 258.18 247.896 255.744C247.761 254.575 247.236 253.515 246.434 252.799C245.632 252.083 244.621 251.769 243.621 251.927C242.622 252.084 241.717 252.699 241.105 253.637C240.493 254.576 240.225 255.76 240.359 256.93Z" fill="black"/>
<path d="M240.489 273.927C240.489 273.927 242.213 253.12 252.486 242.056C256.819 237.445 259.757 231.314 260.859 224.583C261.364 221.381 261.615 218.132 261.609 214.876" stroke="#535461" stroke-width="2" stroke-miterlimit="10"/>
<path d="M268.045 207.872C267.261 210.152 261.459 215.098 261.459 215.098C261.459 215.098 260.211 206.822 260.996 204.546C261.174 203.99 261.445 203.481 261.793 203.049C262.141 202.618 262.56 202.272 263.024 202.033C263.489 201.793 263.989 201.665 264.496 201.656C265.004 201.646 265.507 201.756 265.978 201.978C266.449 202.2 266.876 202.53 267.236 202.948C267.596 203.367 267.881 203.865 268.074 204.415C268.266 204.964 268.363 205.553 268.358 206.147C268.353 206.74 268.247 207.327 268.045 207.872V207.872Z" fill="#6C63FF"/>
<path d="M269.527 223.246C267.811 224.661 260.642 225.12 260.642 225.12C260.642 225.12 263.445 217.382 265.151 215.967C265.56 215.631 266.021 215.392 266.508 215.264C266.995 215.136 267.499 215.122 267.991 215.222C268.483 215.322 268.953 215.535 269.375 215.848C269.797 216.161 270.162 216.568 270.449 217.045C270.736 217.523 270.94 218.063 271.05 218.633C271.159 219.203 271.171 219.793 271.085 220.369C271 220.945 270.818 221.495 270.551 221.989C270.284 222.482 269.936 222.91 269.527 223.246Z" fill="#6C63FF"/>
<path d="M261.844 244.701C259.742 244.906 253.365 241.068 253.365 241.068C253.365 241.068 259.115 236.04 261.192 235.831C262.197 235.732 263.195 236.104 263.965 236.866C264.735 237.628 265.216 238.717 265.3 239.893C265.385 241.069 265.067 242.236 264.416 243.138C263.765 244.04 262.835 244.602 261.83 244.701H261.844Z" fill="#6C63FF"/>
<path d="M252.906 259.402C250.874 260.017 244.028 257.5 244.028 257.5C244.028 257.5 248.964 251.402 250.997 250.787C251.483 250.627 251.992 250.582 252.494 250.655C252.996 250.728 253.48 250.917 253.919 251.212C254.357 251.507 254.741 251.901 255.047 252.372C255.354 252.842 255.577 253.38 255.704 253.952C255.831 254.525 255.859 255.122 255.787 255.708C255.715 256.293 255.543 256.856 255.282 257.363C255.022 257.87 254.677 258.312 254.269 258.661C253.861 259.01 253.398 259.261 252.906 259.398V259.402Z" fill="#6C63FF"/>
<path d="M253.088 222.069C253.936 224.316 259.878 229.04 259.878 229.04C259.878 229.04 260.891 220.724 260.04 218.477C259.619 217.42 258.862 216.599 257.93 216.19C256.998 215.781 255.966 215.815 255.055 216.287C254.145 216.758 253.429 217.629 253.061 218.712C252.693 219.794 252.703 221.003 253.088 222.077V222.069Z" fill="#6C63FF"/>
<path d="M242.822 239.419C244.206 241.265 251.081 243.684 251.081 243.684C251.081 243.684 249.921 235.392 248.533 233.547C248.207 233.097 247.807 232.727 247.357 232.459C246.907 232.192 246.416 232.032 245.913 231.989C245.409 231.945 244.904 232.02 244.425 232.208C243.947 232.396 243.505 232.694 243.126 233.083C242.747 233.473 242.438 233.948 242.217 234.479C241.996 235.01 241.868 235.587 241.84 236.177C241.811 236.767 241.884 237.357 242.052 237.914C242.221 238.47 242.483 238.982 242.822 239.419V239.419Z" fill="#6C63FF"/>
<path d="M234.82 257.881C235.92 259.976 242.346 263.716 242.346 263.716C242.346 263.716 242.399 255.318 241.295 253.222C241.034 252.725 240.691 252.292 240.287 251.949C239.882 251.606 239.425 251.36 238.939 251.224C238.453 251.088 237.95 251.066 237.457 251.158C236.964 251.25 236.491 251.455 236.066 251.761C235.64 252.066 235.27 252.467 234.978 252.94C234.685 253.414 234.474 253.95 234.358 254.518C234.242 255.086 234.223 255.676 234.302 256.253C234.38 256.83 234.555 257.383 234.817 257.881H234.82Z" fill="#6C63FF"/>
<path opacity="0.1" d="M131.097 341.996C154.101 341.996 172.749 338.337 172.749 333.823C172.749 329.309 154.101 325.65 131.097 325.65C108.094 325.65 89.4454 329.309 89.4454 333.823C89.4454 338.337 108.094 341.996 131.097 341.996Z" fill="#6C63FF"/>
<path opacity="0.1" d="M213.08 279.258C236.083 279.258 254.731 275.599 254.731 271.085C254.731 266.572 236.083 262.913 213.08 262.913C190.076 262.913 171.428 266.572 171.428 271.085C171.428 275.599 190.076 279.258 213.08 279.258Z" fill="#6C63FF"/>
<path d="M215.844 163.223L215.806 164.818L213.437 262.63H209.457L211.408 164.818L211.447 162.977L215.844 163.223Z" fill="#B77B7F"/>
<path d="M238.888 246.083L235.906 246.075L191.606 245.964L189.244 245.96L190.502 241.425H238.573L238.888 246.083Z" fill="#DDA2A6"/>
<path opacity="0.1" d="M215.844 163.223L215.806 164.818H211.408L211.447 162.977L215.844 163.223Z" fill="black"/>
<path d="M217.522 160.832H210.14V164.084H217.522V160.832Z" fill="#B77B7F"/>
<path opacity="0.1" d="M191.998 241.425L191.606 245.964L189.244 245.96L190.502 241.425H191.998Z" fill="black"/>
<path d="M198.357 160.771L198.235 162.181L188.407 275.625L183.905 275.375L194.261 162.181L194.377 160.894L198.357 160.771Z" fill="#DDA2A6"/>
<path opacity="0.1" d="M238.888 246.083L235.906 246.075L235.503 241.425H238.572L238.888 246.083Z" fill="black"/>
<path d="M243.6 275.375L239.095 275.625L229.27 162.181L229.148 160.771L233.124 160.894L233.24 162.181L243.6 275.375Z" fill="#DDA2A6"/>
<path d="M262.762 48.9222H163.482V160.34H262.762V48.9222Z" fill="white"/>
<path d="M215.059 11.6585V38.5637H211.188V11.6585C211.177 11.3529 211.218 11.0478 211.311 10.7615C211.403 10.4753 211.544 10.2139 211.725 9.99303C211.906 9.77216 212.123 9.59641 212.363 9.47634C212.603 9.35627 212.862 9.29437 213.124 9.29437C213.385 9.29437 213.644 9.35627 213.884 9.47634C214.124 9.59641 214.342 9.77216 214.522 9.99303C214.703 10.2139 214.844 10.4753 214.936 10.7615C215.029 11.0478 215.07 11.3529 215.059 11.6585V11.6585Z" fill="#DDA2A6"/>
<path opacity="0.1" d="M215.059 36.1155H211.184V38.5636H215.059V36.1155Z" fill="black"/>
<path d="M216.58 37.9526V46.8349H209.688V37.9526C209.688 37.8076 209.712 37.6639 209.759 37.5298C209.806 37.3957 209.876 37.2739 209.963 37.1714C210.051 37.0688 210.155 36.9876 210.269 36.9324C210.384 36.8771 210.507 36.849 210.631 36.8495H215.644C215.893 36.8517 216.131 36.9688 216.306 37.1755C216.482 37.3821 216.58 37.6615 216.58 37.9526Z" fill="#DDA2A6"/>
<path opacity="0.1" d="M213.122 44.2022C213.931 44.2022 214.586 43.4347 214.586 42.488C214.586 41.5414 213.931 40.7739 213.122 40.7739C212.313 40.7739 211.657 41.5414 211.657 42.488C211.657 43.4347 212.313 44.2022 213.122 44.2022Z" fill="black"/>
<path d="M213.122 43.8331C213.931 43.8331 214.586 43.0657 214.586 42.119C214.586 41.1723 213.931 40.4049 213.122 40.4049C212.313 40.4049 211.657 41.1723 211.657 42.119C211.657 43.0657 212.313 43.8331 213.122 43.8331Z" fill="#B77B7F"/>
<path opacity="0.1" d="M216.58 45.7358H209.667V46.8389H216.58V45.7358Z" fill="black"/>
<path opacity="0.1" d="M219.407 47.2081H206.84V49.6603H219.407V47.2081Z" fill="black"/>
<path d="M219.407 46.4699H206.84V48.9222H219.407V46.4699Z" fill="#DDA2A6"/>
<path opacity="0.1" d="M187.699 157.47H240.482C241.086 157.47 241.665 157.75 242.092 158.25C242.519 158.75 242.759 159.428 242.759 160.135V160.717H185.422V160.135C185.422 159.428 185.662 158.75 186.089 158.25C186.516 157.75 187.095 157.47 187.699 157.47V157.47Z" fill="black"/>
<path opacity="0.1" d="M194.377 160.894L198.357 160.771L198.235 162.181H194.261L194.377 160.894Z" fill="black"/>
<path opacity="0.1" d="M217.522 160.832H210.14V162.181H217.522V160.832Z" fill="black"/>
<path opacity="0.1" d="M233.24 162.181H229.27L229.148 160.771L233.124 160.894L233.24 162.181Z" fill="black"/>
<path d="M187.699 158.195H240.482C241.086 158.195 241.665 158.476 242.092 158.976C242.519 159.476 242.759 160.154 242.759 160.861V161.443H185.422V160.861C185.422 160.154 185.662 159.476 186.089 158.976C186.516 158.476 187.095 158.195 187.699 158.195V158.195Z" fill="#DDA2A6"/>
<path d="M176.126 106.468C175.331 105.976 166.667 98.3159 166.667 98.3159L152.683 87.9369C152.683 87.9369 152.61 87.6908 152.477 87.2684C156.313 82.1712 155.476 74.7734 151.573 69.5736C146.843 63.2666 125.47 49.689 119.03 61.3024C118.13 62.9427 118.099 64.8044 117.864 66.6088C117.314 70.8203 115.541 74.9005 112.759 78.337C110.615 80.9902 107.801 83.4342 106.568 86.436C106.568 86.3991 106.543 86.3622 106.533 86.3212C106.235 86.9645 106.019 87.6552 105.892 88.3715C105.279 92.0335 107.381 95.5438 108.498 99.1074C108.874 100.314 109.146 101.561 109.311 102.831C109.339 102.577 109.364 102.326 109.388 102.072C109.661 103.88 109.754 105.718 109.665 107.551C101.904 109.4 101.901 124.938 101.901 124.938C101.901 124.938 100.944 131.114 101.106 133.341C101.267 135.567 101.263 140.382 101.263 141.542C101.263 142.703 100.307 149.94 100.212 150.81C100.213 150.822 100.213 150.834 100.212 150.847C100.072 151.798 98.618 156.383 102.132 157.408C102.377 157.482 102.637 157.543 102.907 157.601C103.057 161.312 103.33 169.083 103.089 170.813C103.089 170.813 104.368 181.254 105.429 183.907C106.101 185.463 106.886 186.947 107.777 188.344C107.7 188.98 107.516 189.592 107.237 190.144C106.694 191.059 106.974 191.809 107.882 192.133C107.85 192.449 107.815 192.806 107.777 193.208C107.388 197.235 106.806 205.239 107.794 209.295C109.15 214.856 109.231 216.709 109.231 216.709C109.231 216.709 109.231 218.374 109.791 219.301C110.352 220.228 111.385 228.847 111.385 230.238C111.385 231.628 114.097 244.135 113.298 247.1C112.5 250.065 113.141 254.235 113.141 254.235C113.141 254.235 112.661 261.555 112.09 263.13C111.519 264.705 111.291 290.092 112.167 296.67C113.043 303.248 113.603 308.714 113.603 308.714C113.603 308.714 113.046 314.738 113.523 315.571C113.999 316.403 114.879 321.41 114.241 321.685C113.603 321.96 113.284 324.002 113.284 324.002C113.622 324.602 113.985 325.181 114.374 325.736C114.128 325.636 113.888 325.517 113.656 325.38C113.908 325.79 114.286 326.372 114.752 327.02L114.315 333.684C114.296 333.944 114.356 334.203 114.484 334.416C114.612 334.63 114.8 334.784 115.015 334.852C116.414 335.297 117.89 335.29 119.286 334.831C120.682 334.371 121.945 333.477 122.941 332.244C126.928 327.52 128.284 328.168 129.002 325.298C129.079 324.99 129.146 324.687 129.202 324.399C129.717 321.841 127.387 319.938 125.533 321.029C125.789 319.003 125.989 316.702 125.796 315.402C125.397 312.716 125.477 305.675 125.477 305.675L124.92 271.947C124.92 271.947 125.954 265.275 127.152 262.683C128.35 260.091 128.203 251.008 128.203 251.008L129.559 221.171L130.834 206.625C130.834 206.625 132.11 201.622 133.704 207.183C133.704 207.183 132.828 218.391 133.227 221.081C133.627 223.771 134.184 236.832 133.784 239.702C133.385 242.573 131.633 258.328 132.733 262.31C133.834 266.292 135.06 271.118 134.815 272.697C134.569 274.276 133.763 308.46 133.763 308.46C133.763 308.46 135.918 315.021 134.324 317.17C132.73 319.319 134.243 327.832 134.243 327.832C134.243 327.832 134.436 327.992 134.766 328.213L134.72 328.923L134.219 336.587C134.201 336.847 134.261 337.107 134.389 337.321C134.517 337.535 134.705 337.69 134.92 337.76C136.319 338.205 137.795 338.198 139.191 337.739C140.586 337.279 141.849 336.385 142.845 335.152C146.832 330.424 148.188 331.076 148.906 328.201C148.983 327.893 149.05 327.594 149.11 327.303C149.67 324.51 146.832 322.484 144.933 324.309L144.839 324.404C144.739 324.502 144.635 324.594 144.527 324.678C144.476 324.722 144.424 324.761 144.369 324.797C144.769 322.681 145.35 319.056 145.07 317.358C144.67 314.857 145.466 307.262 145.466 307.262C145.466 307.262 147.778 298.179 147.859 294.55L148.496 265.644C148.496 265.644 148.419 253.874 148.738 251.004C149.057 248.133 151.608 223.299 154.158 215.885C156.117 210.209 156.993 195.726 156.474 188.381C156.446 188.02 156.418 187.672 156.383 187.348C159.512 184.645 159.824 180.151 159.824 180.151C159.824 180.151 156.951 173.729 154.186 171.01C151.422 168.291 150.826 163.617 150.924 161.628C150.971 160.416 150.63 159.227 149.968 158.294C149.968 158.294 148.693 153.475 147.841 152.983C147.772 152.942 147.709 152.886 147.656 152.819C147.077 152.093 147.522 150.018 147.522 150.018V149.953C147.624 149.473 148.223 146.365 148.044 145.569C147.831 144.708 148.15 140.628 148.15 140.628C148.15 140.628 150.171 133.587 149.852 128.026C149.533 122.465 154.001 122.962 154.001 122.962L167.795 122.793H169.364C169.918 122.243 170.424 121.631 170.874 120.964C173.502 120.599 178.817 119.439 179.413 116.044C180.222 111.537 176.925 106.964 176.126 106.468ZM112.219 157.875L112.314 155.05C112.64 155.378 112.857 155.587 112.857 155.587C113.033 156.327 113.041 157.107 112.882 157.851C112.796 158.2 112.644 158.523 112.437 158.794C112.23 159.065 111.974 159.278 111.687 159.417C111.62 159.451 111.556 159.491 111.494 159.536L111.361 157.941L112.219 157.875ZM162.252 108.256C161.667 107.949 159.698 108.01 158.685 108.01C157.673 108.01 156.029 107.022 156.029 107.022C155.679 106.222 153.741 105.746 152.018 105.476C150.707 101.695 148.864 98.0083 148.616 94.0675C148.616 93.924 148.616 93.7805 148.598 93.6369L148.798 94.047C148.798 94.047 156.828 100.042 157.732 101.838C158.433 103.208 161.807 106.267 163.37 107.637C163.154 107.966 162.853 108.202 162.511 108.309C162.422 108.321 162.332 108.302 162.252 108.256V108.256Z" fill="url(#paint0_linear)"/>
<path d="M148.99 327.327C148.931 327.614 148.868 327.914 148.791 328.217C148.09 331.088 146.748 330.424 142.834 335.111C141.859 336.334 140.617 337.222 139.242 337.679C137.866 338.136 136.411 338.144 135.032 337.702C134.817 337.636 134.628 337.483 134.5 337.269C134.372 337.056 134.312 336.797 134.331 336.538L134.825 328.935L135.06 325.277C135.06 325.277 141.31 327.327 144.492 324.723C144.598 324.638 144.701 324.546 144.8 324.449C144.825 324.423 144.848 324.395 144.87 324.367C145.281 323.969 145.787 323.731 146.319 323.687C146.851 323.643 147.381 323.795 147.835 324.122C148.29 324.448 148.645 324.933 148.852 325.508C149.059 326.083 149.108 326.719 148.99 327.327V327.327Z" fill="#67647E"/>
<path d="M129.37 324.457C129.31 324.744 129.247 325.043 129.17 325.347C128.469 328.217 127.127 327.553 123.214 332.24C122.239 333.464 120.996 334.352 119.621 334.809C118.246 335.265 116.79 335.273 115.411 334.832C115.196 334.765 115.008 334.612 114.88 334.399C114.751 334.186 114.692 333.927 114.71 333.667L115.204 326.064L115.439 322.407C115.439 322.407 121.69 324.457 124.871 321.853C124.978 321.768 125.081 321.676 125.179 321.578C125.204 321.552 125.227 321.525 125.25 321.496C125.66 321.098 126.167 320.861 126.699 320.817C127.23 320.773 127.76 320.925 128.215 321.251C128.669 321.578 129.025 322.062 129.232 322.637C129.439 323.212 129.487 323.848 129.37 324.457V324.457Z" fill="#67647E"/>
<path opacity="0.1" d="M122.913 325.597L123.165 329.55C119.577 333.745 115.306 327.5 114.055 325.449C117.345 327.434 122.913 325.597 122.913 325.597Z" fill="black"/>
<path opacity="0.1" d="M144.001 327.204L144.471 326.839C141.195 332.671 136.328 329.981 134.811 328.935L135.046 325.277C135.046 325.277 141.296 327.327 144.478 324.723C144.229 326.151 144.001 327.204 144.001 327.204Z" fill="black"/>
<path d="M153.98 216.799C151.464 224.152 148.952 248.785 148.637 251.656C148.321 254.527 148.402 266.181 148.402 266.181L147.771 294.841C147.691 298.429 145.413 307.439 145.413 307.439C145.413 307.439 144.628 314.976 145.021 317.457C145.413 319.938 144.001 326.479 144.001 326.479L144.471 326.11C140.543 333.081 134.338 327.857 134.338 327.857C134.338 327.857 132.846 319.401 134.419 317.285C135.992 315.169 133.869 308.644 133.869 308.644C133.869 308.644 134.653 274.723 134.888 273.16C135.123 271.598 133.946 266.817 132.845 262.863C131.745 258.91 133.476 243.282 133.869 240.432C134.261 237.582 133.711 224.62 133.318 221.954C132.926 219.289 133.788 208.163 133.788 208.163C132.218 202.648 130.961 207.614 130.961 207.614L129.703 222.044L128.368 251.648C128.368 251.648 128.525 260.669 127.348 263.232C126.171 265.795 125.148 272.422 125.148 272.422L125.698 305.889C125.698 305.889 125.621 312.86 126.013 315.538C126.406 318.216 125.148 325.101 125.148 325.101C120.751 337.227 113.687 324.08 113.687 324.08C113.687 324.08 114.003 322.058 114.63 321.783C115.257 321.509 114.395 316.542 113.929 315.714C113.463 314.886 114.006 308.911 114.006 308.911C114.006 308.911 113.456 303.49 112.605 296.961C111.753 290.433 111.978 265.246 112.528 263.684C113.078 262.121 113.547 254.859 113.547 254.859C113.547 254.859 112.92 250.721 113.705 247.777C114.49 244.832 111.82 232.427 111.82 231.046C111.82 229.664 110.8 221.118 110.25 220.199C109.7 219.28 109.7 217.624 109.7 217.624C109.7 217.624 109.623 215.787 108.299 210.271C107.325 206.244 107.899 198.305 108.281 194.307C108.418 192.826 108.537 191.883 108.537 191.883C108.537 191.883 153.584 183.333 155.381 185.265C155.802 185.72 156.082 187.282 156.247 189.509C156.783 196.792 155.9 211.186 153.98 216.799Z" fill="#444053"/>
<path opacity="0.1" d="M136.931 258.135C137.141 258.135 142.116 258.627 143.938 258.197C145.76 257.766 136.931 258.135 136.931 258.135Z" fill="black"/>
<path opacity="0.1" d="M137.299 261.568C137.299 261.568 144.169 262.978 144.52 262.244C144.87 261.51 137.299 261.568 137.299 261.568Z" fill="black"/>
<path opacity="0.1" d="M116.301 260.095C116.301 260.095 119.861 260.28 121.798 261.326C123.736 262.371 116.301 260.095 116.301 260.095Z" fill="black"/>
<path d="M103.366 157.014C103.366 157.014 103.94 169.821 103.628 172.089C103.628 172.089 104.883 182.447 105.93 185.08C106.978 187.713 109.231 191.026 109.231 191.026L112.321 165.601L111.585 156.891L103.366 157.014Z" fill="#EFB7B9"/>
<path d="M135.831 98.6686C142.51 98.6686 147.925 92.3308 147.925 84.5127C147.925 76.6947 142.51 70.3569 135.831 70.3569C129.151 70.3569 123.736 76.6947 123.736 84.5127C123.736 92.3308 129.151 98.6686 135.831 98.6686Z" fill="#EFB7B9"/>
<path d="M129.549 91.1273C129.549 91.1273 125.779 99.7717 122.009 103.815C118.239 107.858 144.628 112.455 145.255 112.455C145.883 112.455 140.543 94.0717 141.486 91.8531C142.428 89.6346 129.549 91.1273 129.549 91.1273Z" fill="#EFB7B9"/>
<path opacity="0.1" d="M156.254 189.509C155.661 190.038 155.008 190.466 154.313 190.78C149.498 192.986 144.26 196.05 140.701 194.828C137.141 193.605 129.601 194.828 129.601 194.828C129.601 194.828 114.413 193.355 111.382 194.212C110.001 194.602 108.929 194.586 108.229 194.307C108.365 192.826 108.484 191.883 108.484 191.883C108.484 191.883 153.584 183.333 155.381 185.265C155.809 185.72 156.082 187.282 156.254 189.509Z" fill="black"/>
<path d="M159.551 181.34C159.551 181.34 159.134 187.471 154.313 189.677C149.491 191.883 144.26 194.946 140.701 193.724C137.141 192.502 129.601 193.724 129.601 193.724C129.601 193.724 114.413 192.252 111.382 193.109C108.351 193.966 106.771 192.867 107.714 191.272C108.656 189.677 108.554 184.407 108.554 182.201C108.554 179.995 107.503 171.047 108.446 169.452C109.388 167.857 110.226 161.73 112.111 160.746C112.394 160.607 112.646 160.394 112.85 160.125C113.054 159.857 113.204 159.537 113.288 159.192C113.444 158.454 113.435 157.682 113.263 156.949C113.263 156.949 112.945 156.641 112.507 156.186C111.396 155.025 109.518 152.873 110.121 152.167C110.958 151.183 110.121 144.81 110.121 144.81C110.121 144.81 108.131 139.91 108.866 138.073C109.602 136.236 102.476 126.55 102.476 126.55C102.476 126.55 102.476 109.884 111.063 109.146C111.063 109.146 117.138 109.392 117.871 106.206C118.603 103.02 123.421 101.178 123.421 101.178L134.419 104C134.419 104 144.155 106.46 145.939 104.98C147.722 103.499 149.092 106.94 149.092 106.94C149.092 106.94 155.164 107.309 155.791 108.781C156.418 110.253 153.804 124.59 153.804 124.59C153.804 124.59 149.404 124.102 149.719 129.617C150.035 135.133 148.023 142.12 148.023 142.12C148.023 142.12 147.708 146.164 147.918 147.021C148.115 147.812 147.505 150.896 147.407 151.372V151.433C147.407 151.433 146.969 153.484 147.536 154.214C147.589 154.28 147.651 154.335 147.719 154.378C148.559 154.866 149.821 159.647 149.821 159.647C150.475 160.575 150.811 161.755 150.763 162.956C150.662 164.921 151.289 169.575 154.011 172.273C156.734 174.972 159.551 181.34 159.551 181.34Z" fill="#A36468"/>
<path d="M112.843 152.955V153.475L112.654 159.216C112.654 159.216 106.211 159.827 102.703 158.806C99.1962 157.785 100.671 153.229 100.811 152.286C100.813 152.274 100.813 152.261 100.811 152.249C100.913 151.388 101.862 144.22 101.862 143.055C101.862 141.891 101.862 137.109 101.705 134.903C101.547 132.697 102.476 126.55 102.476 126.55L103.155 125.574L110.534 128.883L112.843 152.955Z" fill="#A36468"/>
<path opacity="0.1" d="M112.825 153.488L112.636 159.229C112.636 159.229 106.193 159.84 102.686 158.819C99.1786 157.798 100.654 153.242 100.794 152.298L112.825 153.488Z" fill="black"/>
<path opacity="0.1" d="M113.288 159.196C113.444 158.458 113.435 157.686 113.263 156.953C113.263 156.953 112.945 156.645 112.507 156.19C118.053 155.284 140.018 151.757 147.414 151.372V151.433C147.414 151.433 146.976 153.484 147.543 154.214L113.288 159.196Z" fill="black"/>
<path opacity="0.1" d="M148.241 163.617C148.241 163.617 149.604 172.638 144.523 175.812C144.52 175.829 147.403 171.355 148.241 163.617Z" fill="black"/>
<path opacity="0.1" d="M114.991 176.071C114.991 176.071 127.254 173.61 129.654 175.521C132.054 177.432 114.991 176.071 114.991 176.071Z" fill="black"/>
<path opacity="0.1" d="M144.001 120.239C144.001 120.239 142.116 129.31 143.528 131.393C144.94 133.476 144.001 120.239 144.001 120.239Z" fill="black"/>
<path opacity="0.1" d="M108.498 112.824C108.498 112.824 110.226 116.195 109.178 119.689C108.131 123.183 108.498 112.824 108.498 112.824Z" fill="black"/>
<path opacity="0.1" d="M104.928 142.366C104.928 142.366 107.128 143.896 106.396 146.287C105.664 148.677 104.928 142.366 104.928 142.366Z" fill="black"/>
<path opacity="0.1" d="M104.728 135.379C104.728 135.379 106.768 136.666 107.03 138.565C107.293 140.464 104.728 135.379 104.728 135.379Z" fill="black"/>
<path opacity="0.1" d="M134.993 208.676C134.993 208.676 147.824 210.209 150.388 206.654C150.388 206.675 138.816 209.352 134.993 208.676Z" fill="black"/>
<path opacity="0.1" d="M112.843 207.819C112.843 207.819 126.616 211.62 129.338 208.614C129.338 208.614 117.503 209.656 112.843 207.819Z" fill="black"/>
<path opacity="0.1" d="M135.988 213.646C135.988 213.646 141.748 213.646 144.418 213.83C147.088 214.015 135.988 213.646 135.988 213.646Z" fill="black"/>
<path opacity="0.1" d="M113.785 216.516C113.785 216.516 116.613 220.256 119.808 219.584C123.004 218.911 113.785 216.516 113.785 216.516Z" fill="black"/>
<path d="M119.339 63.4143C118.452 65.0259 118.421 66.8917 118.19 68.6797C117.65 72.8584 115.902 76.9058 113.165 80.3177C110.653 83.4424 107.209 86.2761 106.557 90.0939C105.941 93.719 108.032 97.2087 109.129 100.756C112.02 110.061 107.983 119.82 106.806 129.424C106.48 132.078 106.873 135.469 109.665 136.351C110.538 136.629 111.536 136.593 112.321 137.035C113.372 137.626 113.694 138.852 113.887 139.955C114.59 143.901 114.833 147.94 114.609 151.962C114.483 154.218 114.343 156.813 116.164 158.363C116.991 159.073 118.106 159.434 119.181 159.774C122.051 160.68 125.761 161.414 127.695 159.286C128.508 158.396 128.813 157.141 129.825 156.436C131.342 155.382 133.494 156.096 135.403 156.206C139.324 156.436 142.926 153.746 144.471 150.502C146.016 147.259 145.872 143.531 145.312 140.033C144.751 136.535 143.749 133.062 143.679 129.51C143.654 128.28 143.749 127.03 144.352 125.939C145.518 123.827 148.234 122.867 150.091 121.206C153.57 118.09 153.559 112.984 152.294 108.711C151.03 104.438 148.759 100.342 148.479 95.9252C148.354 94.8575 148.535 93.7715 148.994 92.8373C149.491 91.9392 150.36 91.2667 151.096 90.5245C156.173 85.5051 155.574 77.2626 151.376 71.6199C146.731 65.3663 125.68 51.8952 119.339 63.4143Z" fill="#E3787D"/>
<g opacity="0.1">
<path opacity="0.1" d="M109.774 104.619C110.17 100.891 110.096 97.1964 108.971 93.5672C108.418 91.7875 107.616 90.02 107.03 88.2362C106.738 88.8812 106.526 89.5716 106.4 90.2866C105.783 93.9117 107.875 97.4014 108.971 100.949C109.341 102.138 109.609 103.368 109.774 104.619Z" fill="black"/>
<path opacity="0.1" d="M114.451 144.773C114.674 140.752 114.433 136.713 113.733 132.766C113.537 131.663 113.214 130.441 112.163 129.851C111.378 129.408 110.38 129.441 109.507 129.166C108.971 129.016 108.472 128.724 108.047 128.313C107.622 127.902 107.283 127.383 107.055 126.796C106.894 127.731 106.754 128.662 106.638 129.597C106.312 132.25 106.705 135.641 109.497 136.523C110.369 136.797 111.368 136.761 112.153 137.203C113.204 137.794 113.526 139.02 113.722 140.123C114.044 141.953 114.268 143.805 114.395 145.667C114.42 145.364 114.434 145.069 114.451 144.773Z" fill="black"/>
<path opacity="0.1" d="M144.317 143.318C142.768 146.574 139.166 149.252 135.245 149.022C133.336 148.907 131.185 148.202 129.671 149.252C128.659 149.953 128.35 151.212 127.537 152.102C125.603 154.213 121.893 153.496 119.023 152.59C117.948 152.245 116.837 151.888 116.007 151.179C115.215 150.498 114.681 149.483 114.518 148.349C114.539 149.608 114.518 150.871 114.451 152.13C114.325 154.386 114.185 156.981 116.007 158.536C116.837 159.241 117.948 159.602 119.023 159.942C121.893 160.848 125.603 161.583 127.537 159.454C128.35 158.564 128.659 157.31 129.671 156.584C131.185 155.53 133.336 156.243 135.245 156.354C139.166 156.584 142.768 153.894 144.317 150.65C145.802 147.517 145.735 143.974 145.217 140.591C145.022 141.542 144.719 142.46 144.317 143.318Z" fill="black"/>
<path opacity="0.1" d="M150.952 83.3563C150.203 84.0944 149.334 84.7711 148.85 85.6691C148.391 86.6033 148.21 87.6894 148.335 88.757C148.437 90.0989 148.679 91.4211 149.057 92.6937C149.64 91.9654 150.28 91.3011 150.967 90.709C154.4 87.3176 155.234 82.45 154.12 77.9064C153.532 80.0406 152.433 81.9323 150.952 83.3563V83.3563Z" fill="black"/>
<path opacity="0.1" d="M149.933 114.018C148.079 115.679 145.361 116.642 144.197 118.754C143.591 119.845 143.497 121.104 143.521 122.322C143.564 123.756 143.714 125.183 143.97 126.587C144.036 126.421 144.112 126.26 144.197 126.107C145.361 123.995 148.079 123.035 149.933 121.375C153.111 118.529 153.377 114.026 152.438 110.011C151.962 111.608 151.09 113.003 149.933 114.018V114.018Z" fill="black"/>
</g>
<path d="M168.975 122.752C168.975 122.752 178.036 122.203 178.821 117.729C179.606 113.255 176.368 108.707 175.576 108.227C174.785 107.748 166.243 100.137 166.243 100.137L152.473 89.8437C152.473 89.8437 145.876 67.6996 144.415 76.1759C142.954 84.6521 148.658 95.9088 148.658 95.9088C148.658 95.9088 156.562 101.855 157.452 103.63C158.342 105.406 163.79 110.065 163.79 110.065L168.975 122.752Z" fill="#EFB7B9"/>
<path d="M173.846 115.519C171.701 121.895 168.923 124.409 168.923 124.409H167.378L153.794 124.573L152.228 119.566L154.428 108.715L155.788 108.781C155.788 108.781 157.413 109.761 158.405 109.761C159.396 109.761 161.341 109.7 161.909 110.003C161.988 110.048 162.077 110.064 162.164 110.048C162.679 109.987 163.215 109.085 163.215 109.085C163.215 109.085 175.993 109.146 173.846 115.519Z" fill="#A36468"/>
<path opacity="0.1" d="M173.846 115.519C171.701 121.895 168.923 124.409 168.923 124.409H167.378C168.184 121.883 169.883 116.7 170.531 115.502C171.165 114.37 165.475 111.553 162.147 110.032C162.662 109.97 163.198 109.068 163.198 109.068C163.198 109.068 175.993 109.146 173.846 115.519Z" fill="black"/>
<path opacity="0.1" d="M31.8204 316.489C40.3694 316.489 47.2997 314.903 47.2997 312.946C47.2997 310.989 40.3694 309.403 31.8204 309.403C23.2715 309.403 16.3412 310.989 16.3412 312.946C16.3412 314.903 23.2715 316.489 31.8204 316.489Z" fill="#6C63FF"/>
<path opacity="0.1" d="M289.852 292.155C296.079 292.155 301.127 291 301.127 289.576C301.127 288.151 296.079 286.996 289.852 286.996C283.625 286.996 278.577 288.151 278.577 289.576C278.577 291 283.625 292.155 289.852 292.155Z" fill="#6C63FF"/>
<path opacity="0.1" d="M338.725 302.608C344.952 302.608 350 301.453 350 300.029C350 298.604 344.952 297.449 338.725 297.449C332.498 297.449 327.45 298.604 327.45 300.029C327.45 301.453 332.498 302.608 338.725 302.608Z" fill="#6C63FF"/>
<path opacity="0.1" d="M263.049 324.137C269.276 324.137 274.324 322.982 274.324 321.558C274.324 320.133 269.276 318.978 263.049 318.978C256.822 318.978 251.774 320.133 251.774 321.558C251.774 322.982 256.822 324.137 263.049 324.137Z" fill="#6C63FF"/>
<path d="M46.4483 214.593C46.4483 214.593 48.9849 218.477 45.2781 224.333C41.5712 230.188 38.5195 235.134 39.7598 238.788C39.7598 238.788 45.3481 227.908 49.8994 227.757C54.4507 227.605 51.455 221.138 46.4483 214.593Z" fill="#6C63FF"/>
<path opacity="0.1" d="M46.4483 214.593C46.6702 214.972 46.8448 215.387 46.9668 215.823C51.406 221.929 53.771 227.625 49.5035 227.769C45.5303 227.9 40.7618 236.221 39.6196 238.32C39.6562 238.483 39.7018 238.644 39.7562 238.8C39.7562 238.8 45.3446 227.921 49.8959 227.769C54.4472 227.617 51.455 221.138 46.4483 214.593Z" fill="black"/>
<path d="M51.1607 219.539C51.1607 220.904 51.0311 221.999 50.8699 221.999C50.7087 221.999 50.5756 220.892 50.5756 219.539C50.5756 218.185 50.7403 218.817 50.9014 218.817C51.0626 218.817 51.1607 218.157 51.1607 219.539Z" fill="#FFD037"/>
<path d="M52.7794 221.171C51.7563 221.823 50.8629 222.221 50.7858 222.053C50.7087 221.884 51.4866 221.232 52.4991 220.568C53.5117 219.904 53.1193 220.392 53.1999 220.568C53.2804 220.744 53.8025 220.515 52.7794 221.171Z" fill="#FFD037"/>
<path d="M33.0607 214.593C33.0607 214.593 30.524 218.477 34.2309 224.333C37.9378 230.188 40.9895 235.134 39.7597 238.788C39.7597 238.788 34.1539 227.908 29.5991 227.757C25.0443 227.605 28.054 221.138 33.0607 214.593Z" fill="#6C63FF"/>
<path opacity="0.1" d="M33.0607 214.593C32.8388 214.972 32.6642 215.387 32.5422 215.823C28.103 221.929 25.738 227.625 30.0055 227.769C33.9787 227.9 38.7647 236.221 39.8894 238.32C39.8524 238.483 39.808 238.643 39.7563 238.8C39.7563 238.8 34.1504 227.921 29.5956 227.769C25.0408 227.617 28.054 221.138 33.0607 214.593Z" fill="black"/>
<path d="M28.3483 219.539C28.3483 220.904 28.4779 221.999 28.6391 221.999C28.8002 221.999 28.9334 220.892 28.9334 219.539C28.9334 218.185 28.7687 218.817 28.6075 218.817C28.4464 218.817 28.3483 218.157 28.3483 219.539Z" fill="#FFD037"/>
<path d="M26.7296 221.171C27.7561 221.823 28.6461 222.221 28.7267 222.053C28.8072 221.884 28.0259 221.232 27.0099 220.568C25.9938 219.904 26.3897 220.392 26.3091 220.568C26.2285 220.744 25.7065 220.515 26.7296 221.171Z" fill="#FFD037"/>
<path opacity="0.1" d="M39.7527 268.469C54.3912 268.469 66.2581 266.338 66.2581 263.708C66.2581 261.079 54.3912 258.947 39.7527 258.947C25.1142 258.947 13.2474 261.079 13.2474 263.708C13.2474 266.338 25.1142 268.469 39.7527 268.469Z" fill="#6C63FF"/>
<path d="M53.3961 233.559L53.2699 234.789L53.0912 236.499L53.0177 237.213L52.839 238.927L52.7619 239.641L52.5832 241.351L50.5581 260.805C50.3759 262.543 47.9514 263.897 45.0223 263.897H34.5042C31.5752 263.897 29.1541 262.543 28.9719 260.805L26.9433 241.347L26.7646 239.637L26.691 238.923L26.5088 237.209L26.4353 236.495L26.2566 234.785L26.1304 233.555C26.0288 232.571 27.3392 231.743 28.9964 231.743H50.5511C52.1873 231.747 53.5012 232.575 53.3961 233.559Z" fill="#65617D"/>
<path d="M53.2664 234.769L53.0912 236.483H26.4142L26.239 234.769H53.2664Z" fill="#9D9CB5"/>
<path d="M53.0142 237.197L52.839 238.907H26.67L26.4913 237.197H53.0142Z" fill="#9D9CB5"/>
<path d="M52.7619 239.62L52.5832 241.33H26.9223L26.7436 239.62H52.7619Z" fill="#9D9CB5"/>
<path opacity="0.1" d="M63.0627 63.9802C69.1581 63.9802 74.0993 58.1969 74.0993 51.0628C74.0993 43.9287 69.1581 38.1454 63.0627 38.1454C56.9674 38.1454 52.0261 43.9287 52.0261 51.0628C52.0261 58.1969 56.9674 63.9802 63.0627 63.9802Z" fill="#6C63FF"/>
<path opacity="0.1" d="M39.9384 28.3035C43.7117 28.3035 46.7706 24.7233 46.7706 20.307C46.7706 15.8906 43.7117 12.3105 39.9384 12.3105C36.1651 12.3105 33.1063 15.8906 33.1063 20.307C33.1063 24.7233 36.1651 28.3035 39.9384 28.3035Z" fill="#6C63FF"/>
<path opacity="0.1" d="M4.20441 43.0663C6.52645 43.0663 8.40883 40.8631 8.40883 38.1454C8.40883 35.4276 6.52645 33.2244 4.20441 33.2244C1.88238 33.2244 0 35.4276 0 38.1454C0 40.8631 1.88238 43.0663 4.20441 43.0663Z" fill="#6C63FF"/>
</g>
<defs>
<linearGradient id="paint0_linear" x1="139.664" y1="338.071" x2="139.664" y2="56.7587" gradientUnits="userSpaceOnUse">
<stop stop-color="#808080" stop-opacity="0.25"/>
<stop offset="0.54" stop-color="#808080" stop-opacity="0.12"/>
<stop offset="1" stop-color="#808080" stop-opacity="0.1"/>
</linearGradient>
<clipPath id="clip0">
<rect width="350" height="342" fill="white"/>
</clipPath>
</defs>
</svg>
