<svg width="362" height="344" viewBox="0 0 362 344" fill="none" xmlns="http://www.w3.org/2000/svg">
<g clip-path="url(#clip0)">
<path d="M341.303 303.535L341.16 303.695L280.804 243.635L272.769 205.595C272.769 205.364 272.794 205.151 272.798 204.907L272.422 203.131C272.434 198.649 271.491 194.22 269.66 190.17L276.279 124.1C276.279 123.878 276.279 123.656 276.279 123.434V123.275C276.279 122.143 276.224 121.029 276.122 119.928C276.079 119.182 275.987 118.441 275.847 117.708C274.651 110.001 271.014 102.942 265.525 97.6707C260.035 92.3996 253.014 89.2241 245.593 88.6571V88.6571V82.6648C246.496 82.3689 247.378 82.0404 248.241 81.6794C250.751 82.9249 253.499 83.5562 256.276 83.5259C260.572 83.6413 265.859 81.9502 269.808 74.7151C277.679 60.2582 296.958 48.6954 285.155 37.1325C273.352 25.5697 274.727 27.0123 272.76 16.2706C270.794 5.5289 270.988 1.17897 252.884 0.371121C248.076 0.153624 243.771 -0.00616958 240.02 -0.00173087C229.176 -0.0505567 222.782 1.17897 222.19 6.15476C221.404 12.764 197.459 6.9049 212.383 33.5815C212.383 33.5815 212.514 33.7902 212.764 34.1586C209.956 38.2091 208.113 42.9061 207.389 47.857C206.664 52.8079 207.079 57.8689 208.599 62.6172C210.118 67.3654 212.699 71.6629 216.124 75.1506C219.549 78.6382 223.72 81.2147 228.288 82.6648V89.8466C225.018 91.1926 222.196 93.5153 220.17 96.5273C218.144 99.5394 217.004 103.109 216.891 106.794L175.13 86.0116C175.31 85.6344 175.451 85.2387 175.553 84.8309C166.896 82.3541 164.71 89.1631 164.71 89.1631C167.894 90.2328 170.17 90.0508 171.789 89.3451L170.098 94.5517C166.067 90.9075 157.804 84.964 154.332 93.6639C149.655 105.4 166.879 109.599 166.879 109.599L166.913 109.519L216.739 137.301L216.654 138.082L216.853 138.193V189.105H216.654L216.853 189.469V190.024L141.349 259.712L126.971 336.976H122.619C120.845 336.976 119.143 337.716 117.888 339.033C116.634 340.35 115.929 342.136 115.929 343.998H141.899L140.719 336.976H134.058L140.601 336.852L180.074 266.356L242.181 236.879L242.705 237.851L242.832 237.789L266.632 282.047L333.133 312.195L335.434 309.896L328.718 317.188C328.107 317.851 327.627 318.634 327.304 319.491C326.981 320.349 326.822 321.265 326.837 322.187C326.851 323.109 327.039 324.019 327.388 324.865C327.738 325.711 328.243 326.477 328.874 327.118L346.928 307.525L341.303 303.535Z" fill="url(#paint0_linear)"/>
<path d="M250.211 113.24L225.54 140.694L170.453 99.5159L174.47 86.9987L221.522 110.413L241.677 86.9987C241.677 86.9987 251.07 99.1119 250.211 113.24Z" fill="#535461"/>
<path opacity="0.1" d="M225.155 140.694L249.827 113.24C250.41 103.675 246.295 95.0417 243.576 90.4565C243.234 90.4565 242.891 90.4298 242.544 90.4298H238.341L221.137 110.404L216.819 108.256C216.819 108.455 216.819 108.651 216.819 108.85V134.44L225.155 140.694Z" fill="black"/>
<path d="M216.997 188.734L265.846 279.572L330.849 309.041L338.927 300.967L279.692 242.025L268.535 189.138L216.997 188.734Z" fill="#4D8AF0"/>
<path opacity="0.1" d="M217.767 190.465L242.455 236.361L255.354 230.24C260.162 227.959 264.261 224.304 267.183 219.692C270.105 215.08 271.731 209.699 271.876 204.163L268.916 190.141L218.397 189.87L217.767 190.465Z" fill="black"/>
<path d="M218.02 188.867L143.362 257.738L129.284 333.396L142.652 333.138L181.237 264.232L254.969 229.259C258.421 227.622 261.523 225.271 264.088 222.345C266.653 219.419 268.628 215.979 269.895 212.232C271.163 208.485 271.696 204.508 271.463 200.54C271.23 196.571 270.236 192.693 268.54 189.138V189.138L218.02 188.867Z" fill="#4D8AF0"/>
<path opacity="0.1" d="M268.73 190.554L217.187 189.755V109.672C217.187 104.784 219.037 100.096 222.33 96.64C225.623 93.1838 230.089 91.2421 234.746 91.2421H242.925C251.502 91.2421 259.727 94.8182 265.792 101.184C271.857 107.549 275.264 116.183 275.264 125.185L268.73 190.554Z" fill="black"/>
<path d="M268.73 189.755L217.187 188.947V108.864C217.187 103.976 219.037 99.2884 222.33 95.8322C225.623 92.376 230.089 90.4343 234.746 90.4343H242.925C247.172 90.4343 251.377 91.3122 255.3 93.018C259.224 94.7238 262.789 97.224 265.792 100.376C268.795 103.528 271.177 107.27 272.802 111.388C274.427 115.506 275.264 119.92 275.264 124.377L268.73 189.755Z" fill="#535461"/>
<path d="M143.916 340.125H118.542C118.542 338.305 119.231 336.56 120.457 335.273C121.683 333.986 123.346 333.263 125.08 333.263H142.774L143.916 340.125Z" fill="#535461"/>
<path d="M344.331 304.473L326.68 323.626C325.433 322.361 324.716 320.628 324.687 318.809C324.658 316.989 325.318 315.232 326.523 313.923L338.825 300.576L344.331 304.473Z" fill="#535461"/>
<path opacity="0.1" d="M275.078 125.354L241.999 152.807L216.997 138.865L219.416 116.143L236.615 122.526L249.488 111.372C259.896 102.357 275.805 110.448 275.128 124.595C275.114 124.846 275.097 125.099 275.078 125.354Z" fill="black"/>
<path d="M228.343 70.247H245.259V94.6289C245.259 96.5124 244.546 98.3188 243.277 99.6507C242.008 100.983 240.287 101.731 238.493 101.731H235.11C233.315 101.731 231.594 100.983 230.325 99.6507C229.056 98.3188 228.343 96.5124 228.343 94.6289V70.247Z" fill="#FDA57D"/>
<path opacity="0.1" d="M228.343 85.4896C233.859 87.2352 239.743 87.2352 245.259 85.4896V71.0549H228.343V85.4896Z" fill="black"/>
<path d="M236.806 85.9867C252.949 85.9867 266.036 72.2506 266.036 55.3063C266.036 38.362 252.949 24.626 236.806 24.626C220.662 24.626 207.575 38.362 207.575 55.3063C207.575 72.2506 220.662 85.9867 236.806 85.9867Z" fill="#FDA57D"/>
<path opacity="0.1" d="M212.793 36.6992C212.793 36.6992 223.15 53.087 232.767 49.8556L247.513 83.5321C247.513 83.5321 260.462 91.0335 268.155 76.9051C275.847 62.7767 294.696 51.4713 283.155 40.1659C271.614 28.8605 263.922 30.0723 262.01 19.5747C260.099 9.07716 269.305 5.04681 251.624 4.23897C233.942 3.43112 223.163 3.43112 222.393 9.88944C221.623 16.3478 198.208 10.6218 212.793 36.6992Z" fill="black"/>
<path d="M213.563 36.6993C213.563 36.6993 223.92 53.087 233.537 49.8556L248.283 83.5365C248.283 83.5365 261.232 91.0379 268.925 76.9095C276.617 62.7811 295.466 51.4757 283.925 40.1703C272.384 28.8649 273.733 30.2809 271.809 19.7833C269.885 9.28578 270.079 5.04682 252.385 4.24785C234.691 3.44888 223.924 3.44 223.154 9.89833C222.385 16.3566 198.977 10.6218 213.563 36.6993Z" fill="#72351C"/>
<path d="M228.995 101.735L245.268 90.5186L250.266 96.0848L239.495 107.386L228.995 101.735Z" fill="#535461"/>
<path d="M236.806 64.996C238.293 64.996 239.499 62.2854 239.499 58.9416C239.499 55.5979 238.293 52.8872 236.806 52.8872C235.318 52.8872 234.112 55.5979 234.112 58.9416C234.112 62.2854 235.318 64.996 236.806 64.996Z" fill="#FDA57D"/>
<path opacity="0.1" d="M275.078 123.738L241.999 151.191L168.148 110.013L173.532 97.4963L236.611 120.91L249.484 109.756C259.891 100.741 275.801 108.833 275.124 122.979C275.113 123.233 275.097 123.486 275.078 123.738Z" fill="black"/>
<path d="M275.078 124.546L241.999 151.999L168.148 110.817L173.532 98.3174L236.611 121.718L249.484 110.564C259.891 101.549 275.801 109.641 275.124 123.787C275.113 124.041 275.097 124.294 275.078 124.546Z" fill="#535461"/>
<path d="M168.338 111.021C168.338 111.021 151.503 106.915 156.074 95.4456C160.646 83.9759 173.722 98.5083 173.722 98.5083L168.338 111.021Z" fill="#FDA57D"/>
<path d="M176.801 86.7768C176.801 86.7768 175.215 94.0385 166.199 91.0113C166.199 91.0335 168.338 84.3754 176.801 86.7768Z" fill="#FDA57D"/>
<path d="M160.553 99.1164C167.945 99.1164 173.938 92.8266 173.938 85.0679C173.938 77.3091 167.945 71.0194 160.553 71.0194C153.161 71.0194 147.168 77.3091 147.168 85.0679C147.168 92.8266 153.161 99.1164 160.553 99.1164Z" fill="#F5F5F5"/>
<path d="M2.71923 52.1548C2.71923 52.1548 7.67559 62.8344 2.95605 67.3086" stroke="#6C63FF" stroke-miterlimit="10"/>
<path d="M2.78689 53.8105L3.30283 54.2144C3.52081 53.7591 3.87619 53.3924 4.31355 53.1713" stroke="#6C63FF" stroke-width="0.5" stroke-miterlimit="10" stroke-linecap="round"/>
<path d="M3.78492 56.6291C4.08857 56.7741 4.32558 57.0388 4.44464 57.3659C4.76519 56.9532 5.11738 56.5687 5.49765 56.2163" stroke="#6C63FF" stroke-width="0.5" stroke-miterlimit="10" stroke-linecap="round"/>
<path d="M4.05135 58.085C4.23207 58.2024 4.38573 58.3605 4.50127 58.5477C4.61681 58.735 4.69135 58.9469 4.71953 59.168C5.02746 58.7128 5.44478 58.3514 5.92901 58.1205" stroke="#6C63FF" stroke-width="0.5" stroke-miterlimit="10" stroke-linecap="round"/>
<path d="M4.48695 61.1565C4.59061 61.2564 4.67088 61.3801 4.7215 61.5179C4.77211 61.6558 4.79171 61.804 4.77875 61.9511L6.44496 61.3563" stroke="#6C63FF" stroke-width="0.5" stroke-miterlimit="10" stroke-linecap="round"/>
<path d="M4.37276 63.043C4.51406 63.2555 4.60933 63.4979 4.65187 63.7532C5.12971 63.4781 5.63634 63.2621 6.16162 63.1096" stroke="#6C63FF" stroke-width="0.5" stroke-miterlimit="10" stroke-linecap="round"/>
<path d="M25.5811 52.1548C25.5811 52.1548 20.6247 62.8344 25.3442 67.3086" stroke="#6C63FF" stroke-miterlimit="10"/>
<path d="M25.5134 53.8105L24.9975 54.2144C24.7795 53.7591 24.4241 53.3924 23.9867 53.1713" stroke="#6C63FF" stroke-width="0.5" stroke-miterlimit="10" stroke-linecap="round"/>
<path d="M25.2935 54.9956C24.9276 55.1301 24.6102 55.3796 24.3843 55.7102C24.2382 55.1639 23.8914 54.7009 23.4201 54.423" stroke="#6C63FF" stroke-width="0.5" stroke-miterlimit="10" stroke-linecap="round"/>
<path d="M24.2489 58.085C24.0682 58.2024 23.9145 58.3605 23.799 58.5477C23.6835 58.735 23.6089 58.9469 23.5807 59.168C23.2728 58.7128 22.8555 58.3514 22.3713 58.1205" stroke="#6C63FF" stroke-width="0.5" stroke-miterlimit="10" stroke-linecap="round"/>
<path d="M24.0502 60.0558C23.9642 60.0411 23.876 60.053 23.7964 60.09C23.7168 60.1271 23.6492 60.1877 23.6019 60.2644C23.5097 60.4202 23.4479 60.5937 23.4201 60.7748C23.0003 60.2596 22.4314 59.9026 21.8004 59.7584" stroke="#6C63FF" stroke-width="0.5" stroke-miterlimit="10" stroke-linecap="round"/>
<path d="M23.8133 61.1565C23.7097 61.2564 23.6294 61.3801 23.5788 61.5179C23.5282 61.6558 23.5086 61.804 23.5215 61.9511L21.8553 61.3563" stroke="#6C63FF" stroke-width="0.5" stroke-miterlimit="10" stroke-linecap="round"/>
<path d="M23.9318 63.043C23.7905 63.2555 23.6952 63.4979 23.6526 63.7532C23.1748 63.4781 22.6682 63.2621 22.1429 63.1096" stroke="#6C63FF" stroke-width="0.5" stroke-miterlimit="10" stroke-linecap="round"/>
</g>
<defs>
<linearGradient id="paint0_linear" x1="231.431" y1="343.998" x2="231.431" y2="-0.00171852" gradientUnits="userSpaceOnUse">
<stop stop-color="#808080" stop-opacity="0.25"/>
<stop offset="0.54" stop-color="#808080" stop-opacity="0.12"/>
<stop offset="1" stop-color="#808080" stop-opacity="0.1"/>
</linearGradient>
<clipPath id="clip0">
<rect width="362" height="344" fill="white"/>
</clipPath>
</defs>
</svg>
