<svg width="366" height="345" viewBox="0 0 366 345" fill="none" xmlns="http://www.w3.org/2000/svg">
<g id="undraw_grand_slam_0q5r 1" clip-path="url(#clip0)">
<path id="Vector" d="M264.905 101C264.013 111.05 257.753 119.008 256.268 128.934C256.079 130.236 255.961 131.555 255.918 132.88C255.704 138.58 256.556 144.399 256.117 150.109C255.299 160.817 250.387 169.185 244.152 176.437C239.435 181.909 233.96 186.723 228.924 191.381C216.103 203.249 204.078 218.234 198.811 237.749C195.301 250.762 195.033 264.904 192.456 278.296C189.879 291.688 184.011 305.391 174.092 309.661C163.447 314.246 151.717 306.602 140.762 309.623C129.006 312.866 120.669 327.589 109.068 331.748C94.33 337.032 79.6419 324.048 64.5124 321.342C57.2476 320.042 49.8532 321.145 42.5499 320.312C34.426 319.373 26.5599 316.06 19.5174 310.611C17.1181 308.745 14.6925 306.453 13.5769 303.064C12.6172 300.135 12.7635 296.797 13.0587 293.627C14.1623 281.863 16.955 269.076 12.562 258.736C8.50972 249.198 -1.3103 242.375 0.146025 231.606C1.02414 225.127 5.82259 221.079 10.2899 218.177C19.4838 212.19 29.2774 207.503 37.4947 199.418C43.3728 193.625 48.4352 185.543 50.5945 176.453C51.4769 172.821 51.839 169.001 51.6622 165.192C51.3599 159.183 49.7908 152.436 52.5259 147.626C53.7111 145.54 55.5273 144.259 57.3531 143.279C64.2389 139.591 71.8876 139.378 79.0469 136.759C81.5012 135.865 83.8595 134.561 86.0646 132.876C90.4312 129.525 93.9461 124.588 94.7954 118.143C95.2921 114.366 94.8506 110.242 96.2733 106.904C98.6726 101.245 103.416 98.8791 108.713 98.1097C115.27 97.1559 122.696 98.647 127.667 99.3814L128.164 99.4514C134.548 100.332 140.88 98.4594 147.101 95.6361C153.819 92.6125 160.385 88.4983 166.775 85.5733C167.374 85.2977 167.973 85.0338 168.569 84.7816C173.233 82.8121 178.008 81.3396 182.849 80.3781C189.677 79.0163 196.597 78.6623 203.483 79.3226C206.975 79.656 210.45 80.2547 213.89 81.1158C214.901 81.3701 215.911 81.6425 216.918 81.9329C222.777 83.5957 228.605 85.6273 234.581 85.7482C235.011 85.7482 235.443 85.7482 235.872 85.7482C243 85.586 250.289 83.1856 257.053 86.0852C260.14 87.411 263.077 90.0181 264.315 93.9733C265.004 96.1766 265.114 98.6343 264.905 101Z" fill="#6C63FF"/>
<path id="Vector_2" opacity="0.05" d="M279.652 126.021L264.86 134.226C264.86 134.226 253.679 136.199 252.632 135.137L252.4 139.235L246.81 135.746L244.364 128.309L243.599 126.12H243.49L244.364 128.625L246.81 136.061L252.4 139.55L252.632 135.452C253.679 136.514 264.86 134.541 264.86 134.541L279.652 126.336C280.507 125.718 282.903 121.374 282.82 118.308C282.744 121.339 280.48 125.429 279.652 126.021Z" fill="black"/>
<path id="Vector_3" opacity="0.05" d="M231.319 146.36C231.319 149.094 220.953 161.54 220.953 161.54L208.361 172.47C208.361 172.47 207.314 180.675 203.119 177.479C202.158 176.749 201.76 175.937 201.717 175.126C201.671 176.041 202.049 176.961 203.119 177.786C207.311 180.973 208.361 172.776 208.361 172.776L220.953 161.846C220.953 161.846 231.319 149.401 231.319 146.667L235.046 148.792L235.023 148.472L231.319 146.36Z" fill="black"/>
<path id="Vector_4" opacity="0.1" d="M246.293 166.925C246.293 166.925 246.641 170.721 247.575 171.934Z" fill="black"/>
<path id="Vector_5" opacity="0.1" d="M258.166 154.63C258.281 155.798 258.074 156.981 257.583 157.968Z" fill="black"/>
<path id="Vector_6" opacity="0.1" d="M252.589 144.918C252.589 144.918 251.542 147.652 248.745 149.47Z" fill="black"/>
<path id="Vector_7" opacity="0.1" d="M250.478 171.33C250.478 171.33 255.369 166.929 259.329 166.929Z" fill="black"/>
<path id="Vector_8" opacity="0.1" d="M240.461 155.39C240.461 155.39 243.258 153.115 244.073 151.292Z" fill="black"/>
<path id="Vector_9" d="M154.62 174.439C153.837 174.439 153.086 174.844 152.532 175.566C151.978 176.288 151.667 177.266 151.667 178.287C151.662 178.413 151.662 178.54 151.667 178.667C151.667 178.736 151.674 178.805 151.687 178.874V178.93C151.802 179.818 152.154 180.624 152.681 181.206L152.778 181.31C153.148 181.688 153.582 181.946 154.045 182.062C154.507 182.177 154.984 182.146 155.436 181.973C155.887 181.799 156.3 181.487 156.641 181.063C156.981 180.639 157.238 180.115 157.392 179.535C157.545 178.955 157.59 178.335 157.522 177.728C157.454 177.121 157.275 176.544 157.002 176.044C156.728 175.545 156.366 175.139 155.947 174.859C155.528 174.579 155.064 174.433 154.593 174.435L154.62 174.439Z" fill="url(#paint0_linear)"/>
<ellipse id="Ellipse 1" cx="185" cy="79.5" rx="11" ry="11.5" fill="#252A62"/>
<g id="net">
<g id="net_2">
<path id="Vector_10" d="M113.381 95.1862L120.372 112.899L127.364 130.611H113.381H99.3969L106.388 112.899L113.381 95.1862Z" stroke="#F0E4E4" stroke-miterlimit="10"/>
<path id="Vector_11" d="M91.2798 95.1862L98.2709 112.899L105.263 130.611H91.2798V95.1862Z" stroke="#F0E4E4" stroke-miterlimit="10"/>
<path id="Vector_12" d="M103.729 95.1862L110.72 112.899L117.713 130.611H103.729L92.5387 129.389L93.3108 121.579L96.7364 112.899L103.729 95.1862Z" stroke="#F0E4E4" stroke-miterlimit="10"/>
<path id="Vector_13" d="M120.095 95.1862L127.086 112.899L134.079 130.611H120.095H106.111L113.102 112.899L120.095 95.1862Z" stroke="#F0E4E4" stroke-miterlimit="10"/>
<path id="Vector_14" d="M133.104 95.1862L140.095 112.899L147.087 130.611H133.104H119.12L126.111 112.899L133.104 95.1862Z" stroke="#F0E4E4" stroke-miterlimit="10"/>
<path id="Vector_15" d="M147.092 95.1862L154.083 112.899L161.075 130.611H147.092H133.108L140.099 112.899L147.092 95.1862Z" stroke="#F0E4E4" stroke-miterlimit="10"/>
<path id="Vector_16" d="M161.079 95.1862L168.071 112.899L175.063 130.611H161.079H147.096L154.087 112.899L161.079 95.1862Z" stroke="#F0E4E4" stroke-miterlimit="10"/>
<path id="Vector_17" d="M175.347 95.1862L182.338 112.899L189.331 130.611H175.347H161.363L168.355 112.899L175.347 95.1862Z" stroke="#F0E4E4" stroke-miterlimit="10"/>
<path id="Vector_18" d="M189.475 95.1862L196.466 112.899L203.459 130.611H189.475H175.491L182.482 112.899L189.475 95.1862Z" stroke="#F0E4E4" stroke-miterlimit="10"/>
<path id="Vector_19" d="M202.624 95.1862L209.615 112.899L216.607 130.611H202.624H188.64L195.631 112.899L202.624 95.1862Z" stroke="#F0E4E4" stroke-miterlimit="10"/>
<path id="Vector_20" d="M211.016 95.1862L218.007 112.899L225 130.611H211.016H197.033L204.024 112.899L211.016 95.1862Z" stroke="#F0E4E4" stroke-miterlimit="10"/>
<path id="Vector_21" d="M215.073 95.1862L222.064 112.899L223.605 116.801V130.611H215.073H201.089L208.08 112.899L215.073 95.1862Z" stroke="#F0E4E4" stroke-miterlimit="10"/>
<path id="Vector_22" d="M219.689 95.1862V130.611H205.705L212.696 112.899L219.689 95.1862Z" stroke="#F0E4E4" stroke-miterlimit="10"/>
<path id="Vector_23" d="M140.937 95.1862L147.928 112.899L154.921 130.611H140.937H126.953L133.944 112.899L140.937 95.1862Z" stroke="#F0E4E4" stroke-miterlimit="10"/>
<path id="Vector_24" d="M168.493 95.1862L175.484 112.899L182.477 130.611H168.493H154.509L161.5 112.899L168.493 95.1862Z" stroke="#F0E4E4" stroke-miterlimit="10"/>
<path id="Vector_25" d="M196.049 95.1862L203.04 112.899L210.033 130.611H196.049H182.066L189.057 112.899L196.049 95.1862Z" stroke="#F0E4E4" stroke-miterlimit="10"/>
<path id="Vector_26" d="M197.028 130.785L190.036 113.074L183.045 95.3607H197.028H211.012L204.02 113.074L197.028 130.785Z" stroke="#F0E4E4" stroke-miterlimit="10"/>
<path id="Vector_27" d="M168.353 130.785L161.361 113.074L154.369 95.3607H168.353H182.337L175.344 113.074L168.353 130.785Z" stroke="#F0E4E4" stroke-miterlimit="10"/>
<path id="Vector_28" d="M139.678 130.785L132.685 113.074L125.694 95.3607H139.678H153.662L146.669 113.074L139.678 130.785Z" stroke="#F0E4E4" stroke-miterlimit="10"/>
<path id="Vector_29" d="M111.003 130.785L104.01 113.074L97.019 95.3607H111.003H124.986L117.994 113.074L111.003 130.785Z" stroke="#F0E4E4" stroke-miterlimit="10"/>
<path id="Vector_30" d="M222.347 93.6175H95.0565V96.7584H222.347V93.6175Z" fill="#F0E4E4"/>
<path id="Vector_31" d="M222.347 129.389H95.0565V132.53H222.347V129.389Z" fill="#F0E4E4"/>
<path id="Vector_32" d="M96.0356 91H91V135.148H96.0356V91Z" fill="#535461"/>
<path id="Vector_33" d="M224.864 91H219.829V135.148H224.864V91Z" fill="#535461"/>
</g>
<g id="Rectangle 1">
<rect x="91.5572" y="134.799" width="4.87526" height="57.5839" fill="#F0E4E4"/>
<rect x="91.5572" y="134.799" width="4.87526" height="57.5839" fill="#F0E4E4"/>
<rect x="91.5572" y="134.799" width="4.87526" height="57.5839" fill="#F0E4E4"/>
</g>
<rect id="Rectangle 2" x="220.125" y="135.322" width="4.31809" height="59.6779" fill="#F0E4E4"/>
</g>
<path id="Vector 6" d="M179.5 71C181.495 74.4083 182.5 78.7796 182.5 82.75C182.5 84.9378 182.531 88.5618 183.5 90.5" stroke="white" stroke-linecap="round"/>
<path id="Vector 7" d="M182 69C184.473 73.0563 186.587 77.3746 187.75 82.0278C188.442 84.7969 188 88.1538 188 91" stroke="white" stroke-linecap="round"/>
<path id="Vector 8" d="M175.5 81.5C177.692 80.1302 179.275 78.5599 181.5 77.3889C182.124 77.0603 182.333 76.1436 183.028 76.0278C183.93 75.8775 184.629 75.978 185.5 75.6111C188.286 74.4382 191.57 74.2325 194.5 73.5" stroke="white" stroke-linecap="round"/>
<path id="Vector 9" d="M175 86C178.386 82.717 183.392 80 188.25 80C190.067 80 197.273 78.9543 198 77.5" stroke="white" stroke-linecap="round"/>
<path id="Vector 10" d="M183 78C182.815 78.4734 181.243 82.2942 182.111 81.3889C183.131 80.3251 183.47 79.6533 184.111 78.5C184.353 78.0655 186.436 76.0693 184.111 77.5C182.716 78.3586 183.391 77.1881 183.5 78.6111C183.769 82.1076 186.952 77.2923 185.889 76.1111C185.328 75.4878 180.077 77.3848 184 80" stroke="white" stroke-linecap="round"/>
</g>
<defs>
<linearGradient id="paint0_linear" x1="3180.7" y1="3808.99" x2="3180.7" y2="3671.93" gradientUnits="userSpaceOnUse">
<stop stop-color="#808080" stop-opacity="0.25"/>
<stop offset="0.54" stop-color="#808080" stop-opacity="0.12"/>
<stop offset="1" stop-color="#808080" stop-opacity="0.1"/>
</linearGradient>
<clipPath id="clip0">
<rect width="366" height="345" fill="white"/>
</clipPath>
</defs>
</svg>
