<svg width="633" height="441" viewBox="0 0 633 441" fill="none" xmlns="http://www.w3.org/2000/svg">
<g id="undraw_work_in_progress_uhmv 1" clip-path="url(#clip0)">
<path id="Vector" d="M53.7953 441C83.4907 441 107.564 438.173 107.564 434.686C107.564 431.199 83.4907 428.372 53.7953 428.372C24.0999 428.372 0.0269928 431.199 0.0269928 434.686C0.0269928 438.173 24.0999 441 53.7953 441Z" fill="#E6E6E6"/>
<path id="Vector_2" d="M633 0.273773H140.409V309.568H633V0.273773Z" fill="#E6E6E6"/>
<path id="Vector_3" d="M618.914 39.067H154.495V291.271H618.914V39.067Z" fill="white"/>
<path id="Vector_4" d="M632.79 0H140.199V20.5169H632.79V0Z" fill="#6C63FF"/>
<path id="Vector_5" d="M155.75 14.292C157.892 14.292 159.629 12.5895 159.629 10.4894C159.629 8.38921 157.892 6.68671 155.75 6.68671C153.608 6.68671 151.871 8.38921 151.871 10.4894C151.871 12.5895 153.608 14.292 155.75 14.292Z" fill="white"/>
<path id="Vector_6" d="M170.472 14.292C172.615 14.292 174.351 12.5895 174.351 10.4894C174.351 8.38921 172.615 6.68671 170.472 6.68671C168.33 6.68671 166.594 8.38921 166.594 10.4894C166.594 12.5895 168.33 14.292 170.472 14.292Z" fill="white"/>
<path id="Vector_7" d="M185.195 14.292C187.337 14.292 189.074 12.5895 189.074 10.4894C189.074 8.38921 187.337 6.68671 185.195 6.68671C183.053 6.68671 181.316 8.38921 181.316 10.4894C181.316 12.5895 183.053 14.292 185.195 14.292Z" fill="white"/>
<path id="Vector_8" d="M418.433 102.564C418.352 102.846 418.306 103.136 418.295 103.429L418.433 102.564Z" fill="#7F77FF"/>
<path id="Vector_9" d="M359.037 129.21C359.01 128.577 358.895 128.312 358.79 128.28C358.866 128.868 358.937 129.352 359.037 129.21Z" fill="#7F77FF"/>
<path id="Vector_10" d="M357.839 142.588C357.818 142.863 357.797 143.117 357.762 143.426C357.694 143.146 357.721 142.852 357.839 142.588V142.588Z" fill="#7F77FF"/>
<path id="Vector_11" d="M418.295 103.429L417.931 105.653C418.308 105.809 418.211 104.513 418.295 103.429Z" fill="#7F77FF"/>
<path id="Vector_12" d="M438.779 82.7063L439.469 82.7046C439.675 82.5708 439.867 82.416 440.042 82.243L438.779 82.7063Z" fill="#7F77FF"/>
<path id="Vector_13" d="M465.806 83.876C465.831 83.7174 465.903 83.5696 466.014 83.4518C466.125 83.3339 466.269 83.2514 466.428 83.215C466.247 82.9667 466.04 82.7378 465.81 82.532C465.476 82.4901 465.828 83.4545 465.806 83.876Z" fill="#7F77FF"/>
<path id="Vector_14" d="M494.085 64.9788C494.175 64.9654 494.261 64.9522 494.33 64.9387L494.085 64.9788Z" fill="#7F77FF"/>
<path id="Vector_15" d="M493.521 65.0712L494.084 64.9788C493.898 65.0066 493.685 65.0356 493.521 65.0712Z" fill="#7F77FF"/>
<path id="Vector_16" d="M417.143 84.985C417.075 84.9714 417.004 84.9793 416.941 85.0077C416.878 85.036 416.826 85.0832 416.792 85.1426C416.915 85.221 417.032 85.1405 417.143 84.985Z" fill="#7F77FF"/>
<path id="Vector_17" d="M528.545 66.0612L528.598 66.5136C528.777 66.5692 528.962 66.6021 529.149 66.6115L528.545 66.0612Z" fill="#7F77FF"/>
<path id="Vector_18" d="M355.661 158.836C355.668 158.836 355.668 158.843 355.654 158.856C355.654 158.863 355.647 158.87 355.64 158.877C355.64 158.891 355.535 158.904 355.458 158.918C355.419 158.907 355.379 158.9 355.339 158.897C355.444 158.884 355.549 158.863 355.633 158.856C355.647 158.843 355.654 158.836 355.661 158.836Z" fill="#7F77FF"/>
<path id="Vector_19" d="M276.837 265.129C274.078 264.267 281.328 264.022 277.174 263.063C277.56 263.441 273.398 264.568 276.837 265.129Z" fill="#7F77FF"/>
<path id="Vector_20" d="M298.895 171.287C298.798 171.52 298.65 171.728 298.461 171.898C298.671 171.445 298.79 171.308 298.895 171.287Z" fill="#7F77FF"/>
<path id="Vector_21" d="M339.748 160.847C339.369 160.836 338.992 160.795 338.62 160.723L339.748 160.847Z" fill="#7F77FF"/>
<path id="Vector_22" d="M284.275 174.695C283.89 174.622 283.495 174.622 283.111 174.695C283.191 174.744 283.276 174.783 283.365 174.812C283.653 174.695 283.966 174.655 284.275 174.695V174.695Z" fill="#7F77FF"/>
<path id="Vector_23" d="M284.275 174.695C284.421 174.72 284.573 174.749 284.768 174.772C284.605 174.736 284.441 174.71 284.275 174.695Z" fill="#7F77FF"/>
<path id="Vector_24" d="M260.155 174.778C260.285 174.852 260.457 174.907 260.609 174.972C260.853 174.956 261.137 174.937 261.389 174.92L260.155 174.778Z" fill="#7F77FF"/>
<path id="Vector_25" d="M280.587 175.426C280.585 175.442 280.579 175.458 280.569 175.471C280.559 175.484 280.546 175.495 280.531 175.502C280.559 175.46 280.587 175.426 280.587 175.426Z" fill="#7F77FF"/>
<path id="Vector_26" d="M524.527 263.729C524.368 263.715 524.212 263.702 524.038 263.684C524.221 263.707 524.38 263.72 524.527 263.729Z" fill="#7F77FF"/>
<path id="Vector_27" d="M531.164 241.581C531.158 241.581 531.153 241.585 531.147 241.585C531.153 241.611 531.159 241.603 531.164 241.581Z" fill="#7F77FF"/>
<path id="Vector_28" d="M337.647 161.471C337.899 161.425 338.145 161.353 338.382 161.259C338.893 161.389 338.193 161.382 337.647 161.471Z" fill="#7F77FF"/>
<path id="Vector_29" d="M530.449 156.999C530.487 156.837 530.527 156.654 530.574 156.43C530.528 156.623 530.49 156.81 530.449 156.999Z" fill="#7F77FF"/>
<path id="Vector_30" d="M531.715 230.105C531.791 229.941 531.898 229.792 532.03 229.666L532.128 230.009C532.204 229.304 532.157 228.591 531.988 227.902C532.14 226.987 532.229 226.062 532.254 225.135C532.996 224.744 532.653 221.209 532.695 219.507C531.715 219.644 531.869 217.455 531.078 219.452C531.134 219.335 531.169 219.919 531.211 220.962C531.226 221.207 531.261 221.45 531.316 221.69C531.288 221.655 531.26 221.614 531.225 221.573C531.246 222.692 531.267 224.154 531.295 225.815C530.626 224.355 530.492 222.713 530.917 221.168C530.287 220.296 529.635 219.328 529.334 218.786C530.707 216.452 531.449 211.95 532.289 211.325C531.743 206.115 531.925 199.052 530.077 195.771C529.838 194.288 530.609 194.069 530.903 193.513C531.085 194.371 531.057 195.387 531.323 195.853C530.847 192.888 531.141 187.074 529.845 186.367C530.427 182.633 531.036 188.468 530.826 183.333L531.218 184.027C533.248 174.108 528.109 167.834 530.448 156.996C530.357 157.401 530.273 157.641 530.119 157.751C531.288 144.998 529.019 131.462 530.875 118.873C531.246 115.297 530.427 114.906 529.797 112.723L530.854 111.947L529.635 108.213C528.739 102.921 532.226 99.0498 530.539 92.3436L529.824 93.2085C529.964 90.7992 529.404 85.5825 530.224 85.9875C530.008 85.7589 529.86 85.477 529.796 85.1722C529.732 84.8675 529.754 84.5513 529.859 84.2578L530.413 84.1823L529.46 78.2655C529.859 73.6872 531.659 78.9862 531.764 72.2937C531.554 69.809 530.154 65.2169 529.782 66.1504C529.761 67.1526 529.439 68.7107 528.886 68.7862L528.599 66.5142C528.494 66.4867 528.396 66.4593 528.291 66.425V66.0612H527.29C527.082 65.9745 526.858 65.9299 526.632 65.9299C526.406 65.9299 526.182 65.9745 525.974 66.0612H500.874L501.147 65.7935L500.321 66.0612H496.779C496.884 65.8553 497.22 65.6837 497.92 65.6013C495.343 64.8943 495.637 66.1092 493.432 65.3199C493.187 65.1963 493.292 65.1277 493.523 65.0727L491.003 65.4983C491.5 65.1963 490.589 64.4893 492.13 64.6952C487.621 63.8715 484.855 65.766 483.154 64.6815L483.532 64.5991C478.848 64.9561 480.83 65.3611 480.158 66.0612H477.231L476.643 65.5807L475.852 64.9355C475.582 64.6928 475.289 64.4767 474.977 64.2903C474.736 64.6217 474.52 64.9705 474.333 65.3336C473.604 65.2993 472.106 65.2238 472.176 64.7982C470.895 65.162 471.161 65.2718 471.469 65.3817C471.805 65.4915 472.211 65.5944 471.693 65.9376C470.873 65.7476 470.036 65.635 469.194 65.6013C469.103 67.1251 469.215 68.9716 469.18 70.3787C469.145 71.8476 468.97 72.7948 468.283 73.09C469.096 74.1814 468.914 70.1728 469.481 73.4263C467.646 74.3392 469.789 77.229 468.949 79.9403C468.003 79.1578 468.508 76.4671 467.66 79.2676C467.927 79.5443 468.123 79.878 468.234 80.2423C468.314 80.6104 468.323 80.9897 468.262 81.3612C468.138 82.0207 467.948 82.6666 467.695 83.29C467.281 83.1882 466.852 83.1626 466.428 83.2145C466.848 83.8391 465.91 83.9695 464.503 83.9969C463.656 83.9969 462.682 84.0038 461.688 84.0038C460.645 84.0175 459.574 84.045 458.566 84.148C458.818 83.7293 450.997 83.4684 447.259 83.0154L447.364 82.8026C446.643 84.0656 442.785 83.8253 439.97 84.0862C440.082 83.3311 440.586 83.036 442.113 82.6997L439.466 82.7065C438.843 83.1115 438.024 83.3243 436.309 83.4684L436.974 82.5212C435.217 82.5486 433.445 82.83 431.548 83.0222C430.596 83.1184 429.623 83.187 428.593 83.2007C428.082 83.2076 427.557 83.1939 427.018 83.1664C426.752 83.1527 426.479 83.132 426.206 83.1046C425.898 83.0703 425.59 83.036 425.282 83.0016C425.184 83.2213 425.527 83.489 425.744 83.7636C426.013 84.0296 426.257 84.3191 426.472 84.6284C426.534 84.713 426.572 84.8119 426.583 84.9154C426.594 85.0189 426.578 85.1235 426.535 85.2188H424.085C424.092 84.9579 424.253 84.7245 424.771 84.601C424.05 84.8028 423.293 84.852 422.551 84.7451C423.111 84.4843 423.762 84.2166 424.498 83.9489C421.837 83.5988 423.405 84.6147 421.536 84.5392C421.151 83.8665 419.744 84.0587 419.59 83.5233C420.115 83.4547 421.627 83.7979 422.299 83.537C420.906 83.4684 419.261 83.3105 417.748 83.0909C417.659 83.7514 417.456 84.3921 417.146 84.9853C417.538 85.0196 418.078 85.6649 418.162 87.4289C418.19 89.6873 417.979 90.051 417.72 90.1952C417.594 90.2638 417.454 90.2707 417.321 90.4491C417.241 90.5706 417.177 90.7022 417.132 90.8404C417.06 91.0244 417.009 91.2153 416.978 91.4101C417.454 92.2475 416.957 94.444 417.993 94.5058C417.986 95.5148 417.503 95.7001 417.223 96.0913C417.678 97.876 417.356 104.424 418.456 102.413L418.526 101.953C418.547 102.043 418.554 102.139 418.575 102.248C418.862 104.021 418.974 105.816 418.911 107.609C418.869 109.106 418.722 110.526 418.582 111.776C417.552 111.686 416.6 111.611 415.711 111.57C415.263 111.556 414.829 111.542 414.395 111.556L413.555 111.577C413.261 111.597 412.96 111.611 412.666 111.625L412.68 111.288C409.144 111.673 404.81 111.515 402.29 112.249C401.246 112.242 399.825 111.625 400.273 111.227C397.571 111.481 397.27 111.858 393.37 111.302C396.08 110.712 392.432 110.774 396.15 110.87C392.642 110.574 391.844 110.032 388.077 110.959C389.358 110.087 385.438 109.867 383.771 110.121L386.229 110.746C384.503 110.837 382.773 110.828 381.048 110.719L381.944 109.579C378.359 108.886 375.118 109.476 372.093 109.95C370.644 110.209 369.176 110.358 367.703 110.396L367.171 110.389L366.492 110.355C365.967 110.327 365.435 110.286 364.896 110.224C363.716 110.086 362.545 109.885 361.388 109.62C360.128 110.019 361.808 110.156 363.356 110.314C364.945 110.472 366.387 110.65 365.295 111.117C362.98 110.967 360.677 110.675 358.399 110.245C357.947 111.741 357.631 113.273 357.454 114.823C357.37 115.723 357.342 116.539 357.342 117.26C357.342 117.617 357.349 117.96 357.37 118.276C357.377 118.42 357.384 118.633 357.398 118.702C357.412 118.784 357.426 118.873 357.44 118.955C357.559 119.55 357.749 120.128 358.007 120.678C358.675 122.071 358.92 123.622 358.714 125.147C359.127 124.55 360.24 123.994 360.625 127.46C360.541 129.382 359.939 130.432 359.4 130.528C359.099 130.59 358.819 130.35 358.658 129.814C358.609 129.679 358.574 129.538 358.553 129.396C358.518 128.62 358.651 128.249 358.791 128.277C358.637 127.234 358.462 125.861 358.014 127.144L358.427 127.563C358.295 128.151 358.206 128.747 358.161 129.348C357.972 131.194 357.86 133.343 357.363 132.581C357.706 134.674 357.965 133.953 358.168 132.56C357.727 136.267 358.217 138.573 357.839 142.588C358.07 141.909 358.56 141.277 358.553 141.957C358.035 148.231 359.344 144.723 359.526 148.972C358.889 151.388 358.014 148.107 358.539 152.383C358.112 154.999 357.44 152.939 357.104 151.903C357.434 153.682 357.439 155.504 357.118 157.284C357.097 157.401 357.083 157.518 357.062 157.628C357.048 157.71 357.034 157.799 357.02 157.881L356.992 158.026C356.985 158.067 356.978 158.06 356.971 158.074L356.915 158.142C356.852 158.212 356.781 158.274 356.705 158.328C356.606 158.384 356.512 158.448 356.425 158.52C356.355 158.411 356.27 158.311 356.172 158.225C356.215 158.272 356.247 158.328 356.266 158.388C356.285 158.448 356.292 158.512 356.284 158.575C356.37 158.63 356.459 158.681 356.551 158.726C356.731 158.817 356.921 158.889 357.118 158.939C356.978 159.138 356.971 159.337 356.698 159.09C356.666 159.068 356.638 159.043 356.614 159.014C356.858 159.373 357.15 159.698 357.482 159.982C357.846 160.346 358.28 160.737 357.867 161.101C357.292 160.961 356.694 160.938 356.109 161.032C355.962 161.039 355.815 161.039 355.675 161.032C355.455 161.02 355.235 160.994 355.017 160.957C354.842 160.944 354.671 160.894 354.519 160.808C354.366 160.723 354.235 160.604 354.135 160.462C354.786 160.51 355.255 160.524 355.605 160.517C355.794 160.517 355.864 160.49 355.92 160.442C356.018 160.359 355.948 160.202 355.885 160.037C355.766 159.755 355.724 159.44 355.934 159.282C355.902 159.29 355.869 159.295 355.836 159.295C355.774 159.293 355.713 159.282 355.654 159.261C355.388 159.241 355.115 159.213 354.828 159.186C354.646 159.062 355.003 158.959 355.339 158.897C354.961 158.822 354.625 158.767 354.331 158.726C353.75 158.622 353.155 158.622 352.574 158.726C351.3 159.021 351.573 160.112 347.96 160.092C348.604 159.488 346.77 158.939 345.937 159.069C348.002 159.083 346.924 160.085 345.033 160.552C341.75 160.078 341.47 160.902 339.748 160.847L341.708 161.073C341.043 161.684 339.404 161.602 337.122 161.794C337.059 161.643 337.234 161.561 337.486 161.499C335.127 161.856 332.298 160.263 329.197 160.854C329.166 160.855 329.135 160.859 329.106 160.867C327.467 160.456 328.945 159.728 327.502 159.446C323.54 160.236 323.211 158.609 319.038 159.261C320.242 160.085 320.452 159.886 317.512 160.682L324.373 160.105L319.969 161.293C322.041 161.307 324.338 160.778 325.577 160.922C323.477 161.588 323.694 161.382 324.688 162.062C321.852 160.833 319.073 162.782 315.803 161.952L315.901 159.92C313.82 159.596 311.699 159.605 309.621 159.948L308.823 160.051L308.424 160.099L308.319 160.112L308.158 160.126L307.829 160.153C306.968 160.215 306.093 160.284 305.189 160.353C303.418 160.469 301.612 160.552 299.546 160.538C299.539 161.444 299.511 162.384 299.462 163.366L299.791 160.778L300.05 160.806C300.02 160.851 299.976 160.887 299.924 160.909C300.223 162.181 300.322 163.491 300.218 164.794C300.218 164.91 300.211 165.034 300.211 165.157V165.164C300.197 165.809 300.176 166.482 300.169 167.155C300.169 167.553 300.176 167.944 300.19 168.329C300.197 168.521 300.211 168.706 300.218 168.891L300.24 169.159L300.267 169.344C299.574 169.152 299.322 170.422 298.895 171.287C299.021 171.26 299.084 171.534 299.126 171.967C299.168 172.145 299.189 172.365 299.238 172.625C299.367 173.339 299.711 173.999 300.225 174.52C300.119 174.624 299.999 174.714 299.868 174.788C299.438 174.63 299.018 174.449 298.608 174.245C298.179 174.157 297.731 174.207 297.334 174.39C297.243 174.431 297.152 174.479 297.061 174.527C296.989 174.565 296.911 174.59 296.83 174.602C296.732 174.63 296.634 174.657 296.543 174.685C296.158 174.801 295.794 174.925 295.437 175.048C293.744 175.735 291.917 176.042 290.088 175.948C291.579 175.213 289.325 174.733 292.65 174.204C290.991 174.197 289.507 174.074 289.479 174.541C289.297 174.476 289.104 174.448 288.911 174.458C288.078 174.465 286.741 174.781 285.516 174.925C284.929 175.015 284.331 175.015 283.745 174.925C283.614 174.905 283.487 174.868 283.366 174.815C283.292 174.848 283.22 174.884 283.149 174.925C282.804 175.232 282.397 175.466 281.955 175.61C281.512 175.754 281.044 175.806 280.58 175.762C280.558 175.75 280.539 175.732 280.524 175.712C280.509 175.691 280.499 175.668 280.495 175.643C280.49 175.618 280.491 175.593 280.497 175.568C280.503 175.544 280.515 175.521 280.531 175.501C280.16 175.783 277.8 175.941 279.306 176.634C277.1 175.721 274.139 175.625 271.121 175.666C267.166 175.714 263.126 176.003 260.605 174.973C258.799 175.083 256.811 175.199 254.857 175.289C253.884 175.323 252.918 175.364 251.994 175.399C251.532 175.412 251.077 175.426 250.643 175.44C250.152 175.447 249.683 175.46 249.235 175.467C249.375 175.364 249.375 175.282 249.452 175.234C249.624 175.167 249.813 175.155 249.991 175.199C249.865 175.186 249.781 175.165 249.627 175.158C249.473 175.145 249.319 175.138 249.172 175.124C248.878 175.11 248.605 175.103 248.353 175.097C247.923 175.095 247.493 175.117 247.065 175.165C246.542 175.215 246.034 175.369 245.574 175.618C244.86 176.199 243.967 176.528 243.039 176.552C243.072 177.29 243.034 178.03 242.927 178.762C242.647 179.359 242.472 179.496 242.353 179.297C242.218 178.89 242.149 178.463 242.15 178.034C242.087 176.943 242.108 175.707 241.898 176.627C240.764 176.133 240.841 178.755 241.037 181.624C241.135 183.292 241.261 184.02 241.282 185.07C241.332 186.027 241.197 186.984 240.883 187.891L240.75 187.067C239.973 189.662 241.611 193.403 241.45 197.645C241.45 197.645 241.247 197.439 241.107 197.617C242.262 200.521 242.647 206.012 242.969 210.089C242.08 208.82 242.5 208.236 241.597 209.012C241.723 210.844 243.046 208.476 243.298 212.128C242.815 213.316 242.388 215.951 241.422 216.301L241.366 212.856C240.12 214.62 241.415 217.31 241.198 219.129L240.652 218.896C240.827 224.174 242.199 224.25 242.101 229.92L242.514 229.336C243.879 232.439 241.751 231.938 242.766 235.027L241.38 235.967C241.716 238.012 242.717 243.126 242.976 246.798C241.954 244.719 241.429 240.428 240.82 237.772C240.813 239.797 240.925 244.664 241.604 245.721C241.471 244.904 241.135 243.874 241.345 243.064C242.43 245.549 242.962 248.823 242.941 252.866C242.066 252.633 241.688 253.676 241.506 255.296C241.499 255.399 241.485 255.502 241.478 255.612C241.471 255.763 241.457 255.921 241.45 256.079C241.436 256.401 241.422 256.731 241.401 257.074C241.387 257.76 241.366 258.488 241.345 259.229C241.31 260.746 241.275 262.339 241.24 263.883C244.439 263.986 247.38 264.212 249.088 264.919L249.662 264.871L250.019 264.83L250.706 264.762C251.161 264.72 251.616 264.686 252.071 264.659C252.981 264.597 253.891 264.576 254.808 264.569C256.636 264.562 258.484 264.638 260.367 264.741C264.134 264.947 268.048 265.256 272.297 265.173C269.287 263.135 274.776 265.118 274.258 263.018C276.218 262.888 276.974 262.922 277.156 263.052L276.869 262.991C276.974 263.018 277.058 263.039 277.17 263.066V263.059L283.163 264.308C284.585 264.919 281.28 264.768 281.462 265.242C285.796 265.407 283.282 266.134 286.146 266.69C285.558 265.942 287.651 265.613 290.123 265.901L286.643 264.933C292.699 263.814 291.88 266.697 297.978 265.585L296.046 266.251C299.182 265.86 307.598 266.265 310.671 264.576C311.224 264.816 311.96 265.393 310.58 265.544C318.065 265.798 327.236 263.753 333.054 264.789L332.487 265.304C333.88 265.153 334.917 264.336 336.667 264.851C336.576 265.064 336.1 265.366 336.751 265.393C337.486 265.221 340.455 264.494 342.31 264.796L340.728 265.372C345.32 265.798 348.569 265.132 351.874 264.487C353.908 264.053 355.972 263.762 358.049 263.615C358.035 265.125 363.776 265.62 366.646 265.86L366.541 266.073C369.949 266.134 373.357 265.971 376.742 265.585C379.34 265.304 381.86 264.947 384.527 264.652H384.534C384.702 264.631 384.871 264.611 385.046 264.59C385.662 264.521 386.292 264.46 386.929 264.398C387.125 264.377 387.328 264.357 387.531 264.336C387.965 264.302 388.406 264.267 388.854 264.233C391.082 264.83 393.378 265.149 395.687 265.18C401.162 265.441 408.052 265.228 413.261 265.839C412.056 265.565 413.457 264.659 414.85 264.508C416.579 264.796 419.548 263.622 419.667 264.617C419.675 264.693 419.671 264.77 419.653 264.844L419.03 264.816H418.995L419.002 264.823C420.395 266.176 424.176 265.819 427.13 265.853L427.613 264.041C435.35 266.677 447.882 263.073 452.104 265.434C453.973 264.981 456.283 264.988 458.132 264.535L458.034 265.503C462.742 265.796 467.463 265.842 472.176 265.64L470.874 266.34C474.48 266.402 475.425 263.533 478.757 263.478L479.752 264.926C486.046 264.906 492.41 266.182 498.627 264.865C498.529 265.077 498.34 265.496 497.325 265.558C500.188 265.592 508.226 266.478 507.778 264.734C508.464 265.716 514.373 264.645 517.586 264.103L517.061 265.057C518.496 264.446 519.232 264.055 520.114 263.78C520.615 263.625 521.127 263.508 521.647 263.43C521.969 263.382 522.277 263.334 522.718 263.293C523.25 263.251 523.852 263.21 524.531 263.162C525.736 263.279 525.939 263.807 524.525 263.732C525.577 263.868 526.646 263.822 527.682 263.595C528.552 263.324 529.458 263.183 530.371 263.176C530.366 262.486 530.404 261.796 530.483 261.11C530.693 261.906 530.903 262.75 531.106 263.643C531.185 262.174 531.121 260.7 530.917 259.243C530.749 258.364 530.483 257.712 530.126 256.497C530.098 256.333 530.076 256.154 530.063 255.969C530.049 255.797 530.034 255.626 530.02 255.44C530.007 255.138 529.999 254.809 530.006 254.479C530.028 253.796 530.096 253.115 530.209 252.441C530.427 251.116 530.812 249.99 531.253 249.757C530.714 249.324 529.992 247.581 530.245 245.7C530.581 245.446 530.791 246.126 530.889 246.476C531.554 241.142 529.754 238.541 530.714 234.876C530.859 234.835 530.99 234.756 531.093 234.647C531.195 234.538 531.265 234.403 531.295 234.258C531.274 238.143 531.225 241.328 531.162 241.582C532.051 241.534 532.212 238.177 533.444 240.882C532.765 238.136 531.295 233.441 531.715 230.105ZM532.506 223.001C532.646 224.14 532.45 224.518 532.247 224.676C532.233 224.14 532.198 223.509 532.128 222.685C532.093 222.658 532.051 222.589 532.009 222.555C532.211 222.659 532.382 222.813 532.506 223.001V223.001ZM492.431 65.9102C492.549 65.9472 492.661 65.9978 492.767 66.0612H491.283C491.64 66.0063 492.018 65.9583 492.431 65.9102V65.9102Z" fill="#6C63FF"/>
<path id="Vector_31" d="M356.109 159.199C356.064 159.248 356.001 159.277 355.934 159.282C355.988 159.245 356.047 159.217 356.109 159.199Z" fill="#7F77FF"/>
<path id="Vector_32" d="M337.486 161.502C337.541 161.493 337.594 161.481 337.648 161.47C337.592 161.48 337.538 161.49 337.486 161.502Z" fill="#7F77FF"/>
<path id="Vector_33" d="M531.212 220.962C531.178 220.808 531.154 220.651 531.14 220.494C531.053 220.726 530.98 220.947 530.92 221.171L531.227 221.573L531.212 220.962Z" fill="#7F77FF"/>
<path id="Vector_34" d="M418.433 102.564C418.46 102.45 418.507 102.343 418.573 102.246C418.525 102.347 418.495 102.347 418.455 102.412L418.433 102.564Z" fill="#7F77FF"/>
<path id="Vector_35" d="M467.364 64.9043C467.68 64.9118 468.038 65.3589 467.969 68.6432L468.18 64.6076L469.726 64.6807C468.478 64.3079 466.417 63.8069 469.27 63.7173C468.287 63.6049 467.537 63.519 467.008 63.4585C466.774 65.3937 467.048 64.9127 467.364 64.9043Z" fill="#7F77FF"/>
<path id="Vector_36" d="M467.418 81.7011C467.33 80.9321 467.192 80.9105 467.049 81.0008C466.906 81.0987 466.759 81.2948 466.651 81.199C466.998 82.11 467.085 82.5516 467.418 81.7011Z" fill="#7F77FF"/>
<path id="Vector_37" d="M399.255 110.883L399.499 110.005C397.631 110.131 399.481 110.345 399.255 110.883Z" fill="#7F77FF"/>
<path id="Vector_38" d="M366.932 109.299L367.087 109.287L367.375 109.263L368.525 109.167L369.34 109.041L367.783 109.2L367.003 109.28L365.731 109.36L366.691 109.311L366.932 109.299Z" fill="#7F77FF"/>
<path id="Vector_39" d="M264.533 173.925L265.097 175.006C266.36 174.812 266.625 173.597 264.533 173.925Z" fill="#7F77FF"/>
<path id="Vector_40" d="M241.483 229.278C241.146 229.893 240.939 230.57 240.877 231.266C240.814 231.961 240.897 232.663 241.119 233.326C241.195 231.711 241.625 230.1 241.483 229.278Z" fill="#7F77FF"/>
<path id="Vector_41" d="M429.817 265.768L432.594 265.466L431.29 265.406L429.817 265.768Z" fill="#7F77FF"/>
<path id="Vector_42" d="M443.436 177.163C443.267 185.49 442.08 193.768 439.9 201.818C431.415 232.569 408.199 254.946 395.687 265.18C393.378 265.148 391.082 264.83 388.854 264.233C388.406 264.267 387.965 264.302 387.531 264.336C387.328 264.357 387.125 264.377 386.929 264.398C386.292 264.46 385.662 264.521 385.046 264.59C384.871 264.611 384.702 264.631 384.534 264.652H384.527C380.481 254.275 377.577 243.503 375.867 232.521L375.86 232.514V232.507C373.697 218.422 373.347 201.894 377.904 185.379C379.857 178.39 382.558 171.623 385.963 165.192C402.234 134.235 430.372 115.791 430.372 115.791C430.372 115.791 444.276 143.79 443.436 177.163Z" fill="white"/>
<path id="Vector_43" d="M357.839 142.588C357.818 142.863 357.797 143.117 357.762 143.426C357.694 143.146 357.721 142.852 357.839 142.588V142.588Z" fill="white"/>
<path id="Vector_44" d="M337.647 161.471C337.899 161.425 338.145 161.353 338.382 161.259C338.893 161.389 338.193 161.382 337.647 161.471Z" fill="white"/>
<path id="Vector_45" d="M338.62 160.723L339.748 160.847C339.369 160.836 338.992 160.795 338.62 160.723V160.723Z" fill="white"/>
<path id="Vector_46" d="M355.458 158.918C355.419 158.907 355.379 158.9 355.339 158.897C355.444 158.884 355.549 158.863 355.633 158.856C355.647 158.843 355.654 158.836 355.661 158.836C355.668 158.836 355.668 158.843 355.654 158.856C355.654 158.863 355.647 158.87 355.64 158.877C355.64 158.891 355.535 158.904 355.458 158.918Z" fill="white"/>
<path id="Vector_47" d="M356.109 159.199C356.064 159.248 356.001 159.277 355.934 159.282C355.988 159.245 356.047 159.217 356.109 159.199Z" fill="white"/>
<path id="Vector_48" d="M396.087 232.466C396.087 232.48 396.08 232.494 396.08 232.507C394.386 243.383 391.52 254.053 387.531 264.336C387.328 264.357 387.125 264.377 386.929 264.398C386.292 264.46 385.662 264.521 385.046 264.59C384.871 264.611 384.702 264.631 384.534 264.652H384.527C381.86 264.947 379.34 265.304 376.742 265.585C364.357 255.543 340.637 232.981 332.046 201.818C329.86 193.767 328.671 185.486 328.504 177.156C328.376 171.713 328.608 166.267 329.197 160.854C332.298 160.263 335.127 161.856 337.486 161.499C337.234 161.561 337.059 161.643 337.122 161.794C339.404 161.602 341.043 161.684 341.708 161.073L339.748 160.847C341.47 160.902 341.75 160.078 345.033 160.552C346.924 160.085 348.002 159.083 345.937 159.069C346.77 158.939 348.604 159.488 347.96 160.092C351.573 160.112 351.3 159.021 352.574 158.726H354.331C354.625 158.767 354.961 158.822 355.339 158.897C355.003 158.959 354.646 159.062 354.828 159.186C355.115 159.213 355.388 159.241 355.654 159.261C355.713 159.282 355.774 159.293 355.836 159.296C355.869 159.295 355.902 159.29 355.934 159.282C355.724 159.44 355.766 159.755 355.885 160.037C355.948 160.202 356.018 160.359 355.92 160.442C355.864 160.49 355.794 160.517 355.605 160.517C355.255 160.524 354.786 160.51 354.135 160.462C354.235 160.604 354.366 160.723 354.519 160.808C354.671 160.894 354.842 160.944 355.017 160.957C355.235 160.995 355.455 161.02 355.675 161.032C355.815 161.039 355.962 161.039 356.109 161.032C356.694 160.938 357.292 160.961 357.867 161.101C358.28 160.737 357.846 160.346 357.482 159.982C357.15 159.698 356.858 159.373 356.613 159.014C356.638 159.043 356.666 159.068 356.698 159.09C356.971 159.337 356.978 159.138 357.118 158.939C356.921 158.889 356.731 158.817 356.551 158.726H357.062V157.628C357.083 157.518 357.097 157.401 357.118 157.284C357.439 155.504 357.434 153.682 357.104 151.903C357.44 152.939 358.112 154.999 358.539 152.383C358.014 148.107 358.889 151.388 359.526 148.972C359.344 144.723 358.035 148.231 358.553 141.957C358.56 141.277 358.07 141.909 357.839 142.588C358.217 138.573 357.727 136.267 358.168 132.56C357.965 133.953 357.706 134.674 357.363 132.581C357.86 133.343 357.972 131.194 358.161 129.348C358.322 129.499 358.49 129.657 358.658 129.814C358.903 130.048 359.155 130.288 359.4 130.528C368.124 138.923 378.352 150.674 385.963 165.192C385.964 165.192 385.965 165.192 385.965 165.192C385.966 165.193 385.967 165.193 385.968 165.194C385.968 165.194 385.969 165.195 385.969 165.196C385.97 165.197 385.97 165.198 385.97 165.199C389.381 171.626 392.085 178.391 394.035 185.379C398.586 201.88 398.243 218.381 396.087 232.466Z" fill="white"/>
<path id="Vector_49" d="M298.895 171.287C298.798 171.52 298.65 171.728 298.461 171.898C298.671 171.445 298.79 171.308 298.895 171.287Z" fill="#3F3D56"/>
<path id="Vector_50" d="M280.587 175.426C280.585 175.442 280.579 175.458 280.569 175.471C280.559 175.484 280.546 175.495 280.531 175.502C280.559 175.46 280.587 175.426 280.587 175.426Z" fill="#3F3D56"/>
<path id="Vector_51" d="M385.046 264.59C384.871 264.611 384.703 264.631 384.535 264.652H384.527C381.86 264.947 379.34 265.304 376.742 265.585C373.357 265.971 369.949 266.134 366.541 266.073L366.646 265.86C363.776 265.62 358.035 265.125 358.049 263.615C355.972 263.762 353.908 264.053 351.874 264.487C336.73 259.655 319.094 251.473 304.664 237.703C284.326 218.299 275.147 192.373 271.121 175.666C274.139 175.625 277.1 175.721 279.306 176.634C277.8 175.941 280.16 175.783 280.531 175.501C280.515 175.521 280.503 175.544 280.497 175.568C280.491 175.593 280.49 175.618 280.495 175.643C280.499 175.668 280.509 175.691 280.524 175.712C280.539 175.732 280.558 175.75 280.58 175.762C281.044 175.806 281.512 175.754 281.955 175.61C282.397 175.466 282.804 175.232 283.149 174.925H288.911V174.458C289.104 174.448 289.297 174.476 289.479 174.541C289.507 174.074 290.991 174.197 292.65 174.204C289.325 174.733 291.579 175.213 290.088 175.948C291.917 176.042 293.744 175.735 295.437 175.049C295.794 174.925 296.158 174.801 296.543 174.685C296.634 174.657 296.732 174.63 296.83 174.602C296.911 174.59 296.989 174.565 297.061 174.527C297.152 174.479 297.243 174.431 297.334 174.39C297.731 174.207 298.179 174.157 298.608 174.245C299.018 174.449 299.438 174.63 299.868 174.788C299.999 174.714 300.119 174.624 300.226 174.52C299.711 173.999 299.367 173.339 299.238 172.625C299.189 172.365 299.168 172.145 299.126 171.967C299.084 171.534 299.021 171.26 298.895 171.287C299.322 170.422 299.574 169.152 300.267 169.344L300.24 169.159L300.218 168.891C300.211 168.706 300.197 168.521 300.19 168.329C300.176 167.944 300.169 167.553 300.169 167.155C300.176 166.482 300.198 165.809 300.211 165.164C310.069 168.113 319.559 172.135 328.504 177.156C336.11 181.431 343.148 186.611 349.458 192.579C362.089 204.633 370.413 219.198 375.86 232.507V232.514L375.867 232.521C380.089 242.858 383.166 253.609 385.046 264.59Z" fill="#3F3D56"/>
<path id="Vector_52" d="M418.995 264.816H419.03C419.021 264.821 419.011 264.824 419.002 264.823L418.995 264.816Z" fill="#3F3D56"/>
<path id="Vector_53" d="M503.787 158.925C503.787 158.925 499.81 206.657 467.282 237.703C452.72 251.603 434.901 259.806 419.667 264.617C419.548 263.622 416.579 264.796 414.85 264.508C413.457 264.659 412.056 265.565 413.261 265.839C408.052 265.228 401.162 265.441 395.687 265.18C393.378 265.149 391.082 264.83 388.854 264.233C388.406 264.267 387.965 264.302 387.531 264.336C387.328 264.357 387.125 264.377 386.929 264.398C388.815 253.465 391.885 242.761 396.087 232.466C401.547 219.171 409.872 204.619 422.481 192.586C428.79 186.617 435.829 181.436 443.436 177.163C472.575 160.593 503.787 158.925 503.787 158.925Z" fill="#3F3D56"/>
<path id="Vector_54" d="M46.0979 131.377C46.0979 131.377 36.3465 150.497 21.276 154.843C6.20549 159.189 57.6224 154.843 57.6224 154.843C57.6224 154.843 54.9629 140.937 58.5089 139.199C62.0549 137.461 46.0979 131.377 46.0979 131.377Z" fill="#A0616A"/>
<path id="Vector_55" d="M30.3422 98.5272C29.8119 93.9969 32.3392 89.9915 35.9873 89.5811C36.0286 89.5764 36.0694 89.5787 36.1107 89.575C35.6546 89.5092 35.1919 89.5018 34.7339 89.5529C31.0859 89.9634 28.5585 93.9687 29.0888 98.499C29.6132 102.978 32.9306 106.287 36.5312 105.965C33.4429 105.525 30.805 102.48 30.3422 98.5272Z" fill="#2F2E41"/>
<path id="Vector_56" d="M33.6121 104.67C29.2066 103.207 26.59 99.2573 27.7677 95.8475C27.7811 95.8088 27.8005 95.7737 27.8147 95.7355C27.5596 96.1118 27.3553 96.519 27.207 96.9468C26.0293 100.357 28.6459 104.307 33.0514 105.769C37.407 107.215 41.8747 105.685 43.1136 102.355C41.3904 104.906 37.456 105.946 33.6121 104.67Z" fill="#2F2E41"/>
<path id="Vector_57" d="M3.12943 188.43L4.4325 225.242L24.822 272.175C24.822 272.175 19.503 296.511 30.141 295.642C40.779 294.772 31.0275 271.306 31.0275 271.306L21.276 221.766L19.503 180.917L3.12943 188.43Z" fill="#A0616A"/>
<path id="Vector_58" d="M60.2819 144.414C71.0531 144.414 79.7849 135.853 79.7849 125.293C79.7849 114.733 71.0531 106.172 60.2819 106.172C49.5107 106.172 40.7789 114.733 40.7789 125.293C40.7789 135.853 49.5107 144.414 60.2819 144.414Z" fill="#A0616A"/>
<path id="Vector_59" d="M76.2389 158.32L57.0188 150.792C57.0188 150.792 53.1899 151.367 42.5519 152.236C31.914 153.105 27.1905 152.285 27.1905 152.285C27.1905 152.285 4.43249 160.058 5.31899 164.403C6.20549 168.749 15.957 237.41 20.3895 233.934C24.822 230.457 27.4815 229.588 27.4815 229.588L76.2389 225.242V158.32Z" fill="#CFCCE0"/>
<path id="Vector_60" d="M8.865 162.665H5.98003C5.98003 162.665 2.6595 164.403 2.6595 169.618C2.6595 174.833 0 190.477 0 190.477H14.184L8.865 162.665Z" fill="#CFCCE0"/>
<path id="Vector_61" d="M35.0167 170.922L24.3094 153.964C24.0656 153.578 23.7138 153.269 23.2959 153.073C22.878 152.877 22.4115 152.803 21.9518 152.859L19.1597 153.201C18.8163 153.243 18.4862 153.357 18.1915 153.535C17.8968 153.713 17.6444 153.95 17.4514 154.232C17.2584 154.514 17.1292 154.832 17.0726 155.167C17.016 155.502 17.0333 155.844 17.1232 156.172L22.6058 176.137C22.6058 176.137 31.2745 211.406 22.9509 230.275L22.6058 238.714C22.6058 238.714 14.6273 264.788 16.4002 284.777C18.1732 304.767 19.0597 322.15 19.0597 322.15C19.0597 322.15 14.6272 335.187 16.4002 339.532C16.9321 340.836 16.8258 342.765 16.4162 344.828C13.9163 357.417 13.2709 370.292 13.6244 383.112L13.7407 387.334C13.7407 387.334 7.53521 392.549 12.8542 393.418C18.1733 394.287 35.0167 396.026 35.0167 396.026C35.0167 396.026 38.5627 389.942 36.7897 389.073L42.1087 360.391C42.1087 360.391 50.9737 348.224 50.0872 340.401C50.0872 340.401 52.7467 327.365 50.0872 321.281L50.9737 283.039L54.5197 329.103L49.2007 386.465C49.2007 386.465 42.1087 391.68 46.5412 393.418C50.9737 395.156 78.4552 403.848 78.4552 399.502C78.4552 395.156 76.6822 393.418 76.6822 393.418L88.2067 276.086L82.0011 227.415C82.0011 227.415 40.3357 223.939 43.8817 177.875C43.8817 177.875 54.0752 157.119 64.138 153.202C64.2523 153.16 64.3503 153.085 64.418 152.985C64.4857 152.886 64.5196 152.768 64.515 152.648C64.5103 152.529 64.4674 152.414 64.3921 152.32C64.3169 152.226 64.2133 152.158 64.0962 152.125L60.0109 150.98C59.8996 150.948 59.7808 150.95 59.6709 150.986C57.8982 151.575 42.5284 157.011 35.0167 170.922Z" fill="#2F2E41"/>
<path id="Vector_62" d="M55.4062 392.549L55.2646 393.799C54.3111 401.761 51.6708 409.439 47.513 416.342C45.5281 419.687 44.0083 423.465 44.7682 426.445C46.5412 433.398 45.6547 436.005 45.6547 436.005H59.8387V433.398L67.7577 435.515C69.5236 436.015 71.4049 435.959 73.1362 435.353C74.9092 434.702 76.6822 433.398 76.6822 430.791C76.6822 428.618 74.9892 426.596 73.0141 424.976C68.8499 421.628 65.8331 417.108 64.3705 412.027L64.2712 411.67L69.5902 392.549L55.4062 392.549Z" fill="#2F2E41"/>
<path id="Vector_63" d="M18.6165 392.984L18.4749 394.233C17.5214 402.195 14.8811 409.874 10.7233 416.777C8.73834 420.122 7.21864 423.9 7.97849 426.879C9.75149 433.833 8.86499 436.44 8.86499 436.44H23.049V433.832L30.968 435.95C32.7339 436.45 34.6152 436.393 36.3465 435.788C38.1194 435.136 39.8924 433.832 39.8924 431.225C39.8924 429.052 38.1995 427.03 36.2244 425.411C32.0602 422.062 29.0434 417.543 27.5808 412.461L27.4815 412.104L32.8005 392.984H18.6165Z" fill="#2F2E41"/>
<path id="Vector_64" d="M64.2187 128.519C64.2187 128.519 78.1895 120.606 83.5996 120.126C83.5996 120.126 85.175 116.649 83.4762 113.304C83.4762 113.304 82.652 102.571 68.9865 102.988C68.9865 102.988 52.8462 94.4156 47.4277 97.9153C42.0092 101.415 29.9442 118.209 35.0405 128.245C35.0405 128.245 29.1492 131.151 28.8689 129.587C28.5886 128.023 24.2119 132.225 29.9902 135.844C29.9902 135.844 21.9023 143.871 29.7643 148.895C29.7643 148.895 29.4044 141.776 33.9652 139.624C38.5259 137.471 34.5342 139.732 34.5342 139.732C34.5342 139.732 26.7266 149.323 38.3878 153.057C38.3878 153.057 34.0363 148.199 38.4129 143.997C38.4129 143.997 37.0572 153.811 45.12 154.844C45.12 154.844 40.961 149.015 43.1493 146.914C43.1493 146.914 44.0782 154.142 48.6306 155.01L52.0448 155.66L53.1996 149.837C53.1996 149.837 49.9527 157.276 57.5428 157.716C57.5428 157.716 53.8733 146.44 58.7311 139.812C63.5889 133.183 64.2187 128.519 64.2187 128.519Z" fill="#2F2E41"/>
<path id="Vector_65" d="M42.5331 104.024C45.3413 100.389 45.2449 95.6798 42.3177 93.5062C39.3905 91.3327 34.741 92.5175 31.9328 96.1526C29.1246 99.7877 29.221 104.497 32.1482 106.67C35.0754 108.844 39.7249 107.659 42.5331 104.024Z" fill="#2F2E41"/>
<path id="Vector_66" d="M44.4708 99.6716C42.707 100.327 41.1723 101.465 40.0493 102.95C39.0503 104.224 38.385 105.718 38.1116 107.302C39.8754 106.647 41.4101 105.509 42.5331 104.024C43.532 102.75 44.1974 101.256 44.4708 99.6716V99.6716Z" fill="#6C63FF"/>
<path id="Vector_67" d="M112.156 265.232L111.03 263.759L119.203 257.754C120.174 257.039 120.934 256.087 121.41 254.992C121.885 253.897 122.057 252.699 121.91 251.518L117.861 219.461C117.57 217.133 117.91 214.772 118.846 212.614C119.782 210.456 121.282 208.579 123.194 207.17L132.103 200.625C133.793 199.386 135.916 198.855 138.005 199.148C140.094 199.442 141.979 200.536 143.246 202.19L145.309 204.89L143.807 205.993L141.743 203.294C140.775 202.03 139.335 201.194 137.738 200.97C136.142 200.746 134.521 201.151 133.229 202.098L124.32 208.643C122.672 209.857 121.38 211.475 120.573 213.334C119.766 215.194 119.473 217.229 119.724 219.234L123.773 251.292C123.961 252.795 123.741 254.319 123.137 255.712C122.532 257.106 121.564 258.318 120.329 259.227L112.156 265.232Z" fill="#CFCCE0"/>
<path id="Vector_68" d="M115.071 267.95L121.735 259.345L119.482 256.399L109.49 260.649L65.8729 290.198L73.594 300.3L115.071 267.95Z" fill="#CFCCE0"/>
<path id="Vector_69" d="M146.486 200.246L138.071 206.428C135.771 208.117 135.304 211.315 137.028 213.57L176.068 264.648C177.792 266.903 181.054 267.361 183.354 265.671L191.768 259.489C194.068 257.799 194.536 254.602 192.812 252.347L153.771 201.269C152.048 199.014 148.786 198.556 146.486 200.246Z" fill="#E6E6E6"/>
<path id="Vector_70" opacity="0.2" d="M192.813 252.348L191.606 250.769L191.365 250.453C191.775 250.99 192.073 251.599 192.242 252.248C192.411 252.897 192.449 253.573 192.352 254.236C192.255 254.899 192.026 255.537 191.677 256.113C191.329 256.689 190.868 257.193 190.322 257.594L181.905 263.778C180.801 264.589 179.413 264.937 178.047 264.745C176.681 264.553 175.449 263.837 174.621 262.755L174.863 263.07L176.069 264.649C176.897 265.731 178.129 266.447 179.495 266.639C180.861 266.831 182.248 266.483 183.353 265.672L191.769 259.488C192.874 258.677 193.604 257.469 193.8 256.13C193.995 254.791 193.64 253.43 192.813 252.348V252.348Z" fill="black"/>
<path id="Vector_71" d="M167.847 218.627C167.774 218.557 167.712 218.5 167.71 218.531C167.78 218.614 167.827 218.636 167.847 218.627Z" fill="#7F77FF"/>
<path id="Vector_72" d="M166.523 216.578C166.516 216.529 166.49 216.485 166.45 216.455L166.523 216.578Z" fill="#7F77FF"/>
<path id="Vector_73" d="M176.042 229.523C175.965 229.547 176.114 229.711 176.212 229.868L176.042 229.523Z" fill="#7F77FF"/>
<path id="Vector_74" d="M180.161 234.719L180.231 234.81C180.275 234.821 180.32 234.827 180.365 234.829L180.161 234.719Z" fill="#7F77FF"/>
<path id="Vector_75" d="M182.763 238.522C182.81 238.522 182.857 238.532 182.901 238.55C182.944 238.569 182.984 238.595 183.017 238.629C183.057 238.598 183.086 238.555 183.101 238.507C183.042 238.415 182.858 238.504 182.763 238.522Z" fill="#7F77FF"/>
<path id="Vector_76" d="M190.836 249.517L190.796 249.584C190.82 249.614 190.847 249.64 190.876 249.664L190.836 249.517Z" fill="#7F77FF"/>
<path id="Vector_77" d="M163.967 212.785L163.976 212.803C164.065 212.882 164.022 212.832 163.967 212.785Z" fill="#7F77FF"/>
<path id="Vector_78" d="M140.329 220.347C140.194 219.875 140.968 220.807 140.708 220.138C140.684 220.236 140.075 219.822 140.329 220.347Z" fill="#7F77FF"/>
<path id="Vector_79" d="M157.674 204.75C157.66 204.793 157.658 204.839 157.666 204.884C157.681 204.869 157.687 204.836 157.674 204.75Z" fill="#7F77FF"/>
<path id="Vector_80" d="M154.372 202.425C154.259 202.494 154.159 202.583 154.077 202.686C154.096 202.683 154.114 202.676 154.131 202.668C154.188 202.567 154.271 202.483 154.372 202.425V202.425Z" fill="#7F77FF"/>
<path id="Vector_81" d="M151.096 205.449C151.124 205.444 151.152 205.438 151.18 205.429L151.27 205.336L151.096 205.449Z" fill="#7F77FF"/>
<path id="Vector_82" d="M191.029 249.678C190.918 249.81 190.701 249.981 190.603 249.924L190.796 249.584C190.783 249.569 190.77 249.551 190.757 249.534C190.769 249.518 190.782 249.503 190.794 249.487L188.015 245.851L188.087 245.855L187.959 245.779L187.607 245.318C187.652 245.308 187.709 245.322 187.793 245.403C187.65 244.975 187.477 245.163 187.384 244.773C187.38 244.726 187.403 244.732 187.435 244.755L187.109 244.474C187.209 244.502 187.235 244.295 187.357 244.525C187.037 243.825 186.441 243.691 186.449 243.333L186.502 243.372C185.967 242.795 186.099 243.107 185.916 243.105L185.619 242.716L185.695 242.212L185.458 242.258C185.398 242.168 185.282 241.989 185.376 241.969C185.012 241.738 185.341 242.079 185.087 241.977C184.931 241.448 184.143 240.894 184.351 240.597C184.105 240.546 184.55 241.067 184.121 240.694C184.324 240.349 183.68 240.223 183.53 239.745C183.773 239.747 183.964 240.164 183.813 239.686C183.378 239.651 183.31 238.91 183.017 238.629C182.798 238.767 182.402 238.002 181.925 237.519C181.642 236.954 181.323 236.406 180.968 235.88L181.014 235.869C180.731 235.928 180.379 235.387 180.051 235.046C180.188 234.968 180.289 234.999 180.499 235.159L180.231 234.81C180.052 234.747 179.897 234.633 179.783 234.484L180.008 234.457C179.532 234.012 179.111 233.516 178.752 232.977C178.635 233.027 178.652 233.359 178.496 233.397L178.253 233.079C178.289 233.064 178.329 233.061 178.366 233.07C178.404 233.079 178.438 233.099 178.464 233.129C178.411 233.082 178.249 232.983 178.2 232.849L178.527 233.004C178.376 232.688 178.306 232.943 178.151 232.715C178.268 232.637 178.109 232.495 178.222 232.46C178.276 232.508 178.321 232.685 178.429 232.736C178.265 232.507 178.156 232.243 178.111 231.966C178.063 232.035 177.959 232.078 177.807 231.909C177.442 231.448 177.821 231.649 177.671 231.334C177.506 231.279 177.36 230.922 177.185 231.038C177.082 230.901 177.141 230.818 177.147 230.732C176.888 230.545 176.264 229.62 176.292 230.024L176.327 230.095L176.29 230.061C175.517 229.394 175.13 228.348 174.457 227.616L174.515 227.576C174.144 227.126 173.739 226.705 173.303 226.316C173.197 226.177 173.156 225.913 173.269 225.923C172.965 225.677 172.721 225.367 172.556 225.017C172.93 225.304 172.548 224.828 172.91 225.333C172.603 224.831 172.614 224.66 172.077 224.274C172.352 224.337 171.992 223.789 171.779 223.6L171.925 224.002C171.735 223.785 171.56 223.554 171.404 223.312L171.686 223.291C171.19 222.169 169.979 221.864 169.813 220.854C169.487 220.7 170.114 221.44 169.786 221.329C169.587 220.927 169.424 220.508 169.298 220.078C168.945 219.4 168.591 219.723 168.184 219.042C168.177 219.172 168.054 219.381 167.631 218.959C167.321 218.502 167.504 218.211 167.77 218.447C167.856 218.548 167.873 218.615 167.847 218.627C167.98 218.751 168.151 218.915 168.092 218.687L167.981 218.68C167.884 218.412 167.416 217.814 167.635 217.874C167.318 217.59 167.416 217.814 167.568 218.086C167.237 217.451 166.9 217.205 166.524 216.578C166.556 216.697 166.541 216.841 166.472 216.749C165.907 215.838 166.058 216.47 165.588 215.916C165.442 215.514 165.925 215.852 165.396 215.337C165.196 214.932 165.519 215.129 165.682 215.229C165.3 214.835 165.003 214.37 164.808 213.862L165.075 214.099C164.938 213.973 164.815 213.833 164.707 213.681L164.693 213.94C164.592 213.759 164.486 213.621 164.545 213.582C164.328 213.48 164.418 213.877 164.041 213.633C163.944 213.365 163.461 213.025 163.584 212.818C164.045 213.547 163.707 212.609 164.179 213.166C164.053 213.046 163.948 212.906 163.867 212.753C163.869 212.713 163.922 212.748 163.967 212.785C163.628 212.012 163.533 212.634 163.019 211.953C163.186 211.964 163.091 211.654 162.985 211.559C163.192 211.834 162.915 211.815 162.646 211.621C162.393 211.128 162.226 211.192 162.061 210.957L162.222 211.244C162.053 211.231 161.9 211.004 161.637 210.724C161.696 210.64 161.902 210.959 161.854 210.826C161.418 210.62 161.457 209.929 160.978 209.548C160.881 209.28 161.153 209.387 161.054 209.162C160.52 208.732 160.758 208.49 160.226 208.017C160.211 208.276 160.266 208.28 159.835 207.988L160.626 208.827L159.982 208.389C160.189 208.665 160.51 208.905 160.612 209.086C160.288 208.89 160.344 208.894 160.331 209.109C160.249 208.583 159.643 208.452 159.45 207.917L159.798 207.681C159.45 206.918 158.739 206.65 158.176 205.74L158.326 206.056C158.104 206.041 157.907 205.546 157.643 205.312C157.775 205.254 157.686 205.053 157.666 204.884C157.593 204.96 157.2 204.258 156.916 204.347L156.775 203.86C156.346 203.173 155.769 203.201 155.209 202.389C155.326 202.418 155.324 202.311 155.345 202.244C155.369 202.18 155.419 202.16 155.713 202.454C155.446 202.104 155.206 201.748 155.185 201.88C155.166 201.836 155.142 201.795 155.113 201.757L155.063 201.694C155.045 201.676 155.022 201.728 155 201.745L154.698 202.11C154.55 202.332 154.357 202.522 154.131 202.668C154.032 202.848 154.064 203.02 153.773 203.283C153.723 203.292 153.73 203.229 153.73 203.229C153.743 203.315 153.417 203.651 153.722 203.579C152.799 203.849 151.995 205.219 151.18 205.429C150.76 205.862 150.241 206.37 149.828 206.727C149.827 206.673 149.783 206.674 149.872 206.618C149.211 207.006 149.782 207.223 149.02 207.657C148.534 207.762 149.295 207.275 149.027 207.383C148.638 207.108 148.267 208.088 147.639 208.234L147.731 208.127C147.289 208.28 146.995 208.924 146.396 209.331C146.396 209.331 146.399 209.278 146.357 209.273C145.946 209.863 145.442 210.384 144.864 210.819C144.936 210.55 145.067 210.562 144.851 210.49C144.611 210.688 145.1 210.674 144.617 211.071C144.394 211.108 143.975 211.294 143.812 211.165L144.289 210.825C143.899 210.794 143.669 211.258 143.386 211.393L143.356 211.281C142.634 211.807 142.772 212.036 141.946 212.539L142.075 212.555C141.775 213.067 141.614 212.656 141.272 213.102L140.989 212.948C140.539 213.378 140.059 213.777 139.553 214.142C139.888 213.732 140.261 213.353 140.667 213.01C140.259 213.214 139.89 213.487 139.577 213.815C139.685 213.724 139.802 213.577 139.942 213.547C139.607 214.014 139.154 214.388 138.627 214.633C138.576 214.357 137.974 214.624 137.246 214.973L136.97 215.106L136.83 215.173C136.785 215.196 136.711 215.212 136.771 215.258C136.883 215.416 136.991 215.571 137.086 215.72C137.255 215.952 137.375 216.215 137.44 216.494C137.594 216.665 137.746 216.835 137.898 217.005C138 217.119 138.096 217.236 138.19 217.357C138.377 217.599 138.551 217.853 138.725 218.115C139.072 218.64 139.418 219.197 139.862 219.751C139.897 219.101 140.123 220.072 140.42 219.746C140.64 219.988 140.711 220.092 140.708 220.134L140.681 220.069L140.708 220.138L140.709 220.138L141.107 221.085C141.149 221.348 140.839 220.892 140.779 220.974C141.191 221.568 140.815 221.324 141.013 221.773C141.078 221.603 141.345 221.841 141.547 222.203L141.356 221.623C142.156 222.289 141.593 222.533 142.396 223.207L142.09 223.032C142.472 223.399 143.258 224.565 143.851 224.766C143.866 224.869 143.845 225.036 143.68 224.872C144.396 225.895 145.668 226.861 146.084 227.759L145.941 227.747C146.107 227.914 146.348 227.951 146.439 228.246C146.394 228.26 146.296 228.234 146.357 228.324C146.621 228.5 146.846 228.725 147.02 228.987L146.764 228.849C147.392 229.899 148.134 230.162 148.813 230.93C148.559 231.113 149.06 231.935 149.309 232.345L149.263 232.358C150.055 233.325 150.914 234.238 151.832 235.09C152.054 235.939 153.395 237.369 154.038 238.523C153.962 238.33 154.254 238.405 154.421 238.571C154.557 238.853 155.112 239.118 154.851 239.249L154.789 239.159C154.703 239.51 155.147 239.968 155.441 240.364L155.793 240.207C156.137 241.556 158.008 242.775 158.042 243.625C158.307 243.816 158.54 244.124 158.803 244.314L158.631 244.419C159.059 245.079 159.53 245.712 160.042 246.312L159.794 246.224C160.149 246.71 160.723 246.485 161.069 246.919L160.929 247.229C161.57 248.061 162.003 249.061 162.852 249.724C162.807 249.736 162.718 249.763 162.605 249.636C162.899 250.033 163.602 251.275 163.825 250.888C163.616 251.057 164.462 251.764 164.901 252.145L164.688 252.192C165.089 252.322 165.444 252.562 165.71 252.883C165.786 253.024 165.667 253.087 165.58 252.89C165.817 253.37 165.981 253.105 166.284 253.676L166.037 253.562C166.104 253.686 166.196 253.795 166.307 253.884C166.418 253.973 166.546 254.039 166.684 254.078C166.955 254.302 167.269 254.926 167.173 255.096C167.298 255.116 167.416 255.166 167.518 255.241C167.619 255.315 167.701 255.412 167.757 255.524C167.728 255.598 167.624 255.53 167.572 255.496C168.014 256.297 168.577 256.432 168.8 257.043C168.78 257.064 168.767 257.089 168.762 257.116C168.756 257.143 168.759 257.171 168.768 257.197C168.334 256.621 167.99 256.153 168.035 256.188C167.888 256.296 168.216 256.778 167.731 256.559C168.274 256.885 168.748 257.31 169.128 257.81C169.133 257.842 169.131 257.875 169.123 257.907L169.071 257.872C169.132 257.977 169.214 258.068 169.313 258.14C169.381 258.281 169.462 258.417 169.554 258.546C169.473 258.689 169.894 259.125 170.065 259.36C170.211 259.223 170.416 259.544 170.333 259.163C170.349 259.208 170.28 259.134 170.156 258.985C170.128 258.954 170.098 258.925 170.064 258.899L170.09 258.904L169.641 258.339C169.767 258.394 169.88 258.475 169.973 258.575C170.066 258.675 170.138 258.793 170.182 258.922C170.376 258.964 170.582 259.016 170.688 259.053C170.705 259.534 171.049 260.232 170.976 260.418C171.29 260.738 171.622 261.142 171.956 261.494C172.117 261.665 172.287 261.827 172.467 261.98C172.633 262.155 172.832 262.296 173.053 262.396C173.144 262.481 173.208 262.589 173.237 262.709C173.266 262.812 173.311 262.801 173.363 262.83C173.312 262.86 173.258 262.884 173.201 262.9L173.095 262.786C173.043 262.723 172.982 262.67 172.912 262.628C173.053 262.72 173.15 263.06 173.425 262.845L174.137 262.562C174.303 262.501 174.461 262.423 174.609 262.328C174.711 262.258 174.777 262.188 174.783 262.117C175.43 261.99 174.527 262.473 175.346 262.108L175.263 262.226C177.091 261.956 177.625 260.535 179.569 260.074C179.433 260.11 179.367 260.128 179.321 260.104C181.406 259.243 183.056 257.517 184.959 256.411C185.49 256.075 185.42 255.894 185.617 255.554L185.862 255.621L186.173 255.012C186.701 254.261 187.692 254.286 188.242 253.211L188.031 253.221C188.342 252.943 188.848 252.196 188.931 252.358C188.922 252.304 188.931 252.249 188.957 252.201C188.982 252.152 189.023 252.113 189.073 252.089L189.167 252.152C189.344 251.857 189.507 251.553 189.677 251.256C190.243 250.701 189.955 251.638 190.696 250.75C190.929 250.385 191.19 249.596 191.029 249.678ZM187.184 244.713C187.19 244.732 187.192 244.753 187.191 244.773L187.048 244.587C187.093 244.627 187.136 244.665 187.184 244.713V244.713ZM169.827 258.862L169.861 258.866C169.819 258.876 169.775 258.876 169.734 258.864C169.594 258.728 169.586 258.653 169.603 258.608C169.661 258.678 169.731 258.759 169.827 258.862V258.862Z" fill="#6C63FF"/>
<path id="Vector_83" d="M170.156 258.985C170.177 259.002 170.197 259.02 170.216 259.04C170.207 259 170.196 258.96 170.182 258.922L170.09 258.904L170.156 258.985Z" fill="#7F77FF"/>
<path id="Vector_84" d="M176.28 230.001C176.287 230.021 176.29 230.041 176.29 230.062C176.289 230.049 176.29 230.037 176.292 230.025L176.28 230.001Z" fill="#7F77FF"/>
<path id="Vector_85" d="M185.384 241.612C184.994 240.722 185.364 241.869 184.791 241.068L185.201 241.7C185.183 241.55 185.162 241.351 185.384 241.612Z" fill="#7F77FF"/>
<path id="Vector_86" d="M183.599 239.068C183.387 238.906 183.335 238.867 183.464 239.147C183.738 239.447 183.551 239.077 183.599 239.068Z" fill="#7F77FF"/>
<path id="Vector_87" d="M173.222 225.746L173.393 225.671C173.183 225.439 173.335 225.71 173.222 225.746Z" fill="#7F77FF"/>
<path id="Vector_88" d="M170.498 221.554L170.129 221.18L170.394 221.461L170.498 221.554Z" fill="#7F77FF"/>
<path id="Vector_89" d="M151.522 204.838L151.743 204.938C151.872 204.768 151.733 204.556 151.522 204.838Z" fill="#7F77FF"/>
<path id="Vector_90" d="M141.344 212.672C141.561 212.59 141.77 212.491 141.97 212.375C141.849 212.372 141.729 212.398 141.621 212.449C141.512 212.501 141.417 212.577 141.344 212.672V212.672Z" fill="#7F77FF"/>
<path id="Vector_91" d="M155.728 240.71L156.059 241.041L155.937 240.862L155.728 240.71Z" fill="#7F77FF"/>
<path id="Vector_92" d="M64.2979 185.823L65.6009 222.635L85.9904 269.568C85.9904 269.568 80.6714 293.903 91.3094 293.034C101.947 292.165 92.1959 268.699 92.1959 268.699L82.4444 219.158L80.6714 178.309L64.2979 185.823Z" fill="#A0616A"/>
<path id="Vector_93" d="M71.8065 160.058L72.2938 156.774L76.2388 158.32L88.6498 177.44L62.9411 190.477L71.8065 160.058Z" fill="#CFCCE0"/>
</g>
<defs>
<clipPath id="clip0">
<rect width="633" height="441" fill="white"/>
</clipPath>
</defs>
</svg>
